<svg><defs><font id="TimesNewRomanPS-BoldMT" horiz-adv-x="0"><font-face font-family="Times New Roman" font-weight="700" units-per-em="2048" panose-1="2 2 8 3 7 5 5 2 3 4" ascent="1638" descent="-410" x-height="934.997" cap-height="1356" bbox="-1141 -671.002 4096 2162" underline-thickness="195" underline-position="-126" unicode-range="U+0020-U+FFFC"/><glyph glyph-name="uniFB4F" unicode="א‍ל" horiz-adv-x="1079" d="M719 589c8 48 22.665 93.335 43.998 136.002-111.333 36-167 110.667-167 224 0 57.333 13 118.666 39 183.999h31c4-38.667 38.333-61.667 103-69l77-9c108-12 162-78.667 162-200 0-42-6.333-83.667-19-125-41.333-10.667-82.666-16-123.999-16-28-50-42-100-42-150 0-46 19-87.667 57-125l35-35c64.667-64.667 97-136.334 97-215.001 0-84-42.333-159-127-225h-28c1.333 13.333 2 21.666 2 24.999 0 45.333-24.667 93-74 143l-453 459c-46-36-69-76.667-69-122 0-38 37-95 111-171 72-74.667 108-137.667 108-189 0-72.667-41.667-109-125-109h-312v36c51.333 9.333 77 33.666 77 72.999 0 30.667-2 58.334-6 83.001-12.667 68.667-19 118.334-19 149.001 0 119.333 57 222.333 171 309l-64 66c-1.333 1.333-33.333 27-96 77-28.667 26.667-43 66.667-43 120 0 57.333 12.667 116 38 176l29 71c6 14.667 9 27.334 9 38.001 0 20-13.667 36-41 48l-68 30c-43.333 19.333-65 53.666-65 102.999 0 44 21 98.667 63 164h32c0-32.667 14.333-54 43-64l95-35c50.667-18 76-48.667 76-92 0-30.667-6.667-63-20-97l-24-59c-14.667-36.667-22-64.667-22-84 0-20 3.833-34.833 11.5-44.5S253.333 1043 294 1023c29.333-16.667 58-39.667 86-69z"/><glyph glyph-name="uniFDF2" unicode="ااﻟﻠﮫ" horiz-adv-x="1744" arabic-form="isolated" d="M1354 570c0-34-5.168-81.002-15.501-141.002s-20.5-109-30.5-147c-6-22-16.333-35.5-31-40.5s-49-7.5-103-7.5c-53.333 0-92 6-116 18s-46.667 34.667-68 68c-43.333-47.333-89.333-82-138-104-44-20-90.667-30-140-30-51.333 0-92 15-122 45s-56.667 83-80 159c-37.333-42-68.333-74-93-96-34.667-30.667-62.334-46-83.001-46-71.333 0-137.166 8.5-197.499 25.5s-90.5 33.833-90.5 50.5c0 24.667 20 77.334 60 158.001s78 144 114 190c22.667 30 45 51.667 67 65l111 59 2 52c0 26.667 4.5 55.834 13.5 87.501s25.167 72.5 48.5 122.5l126-453c12.667-45.333 28.167-77.5 46.5-96.5s46.166-28.5 83.499-28.5c34 0 68.333 8.333 103 25s63.334 37.667 86.001 63l-97 314c-6 20.667-9.833 35.5-11.5 44.5s-2.5 18.167-2.5 27.5c0 35.333 6 73 18 113 9.333 30.667 24 65 44 103l142-442c30-91.333 56.167-149.5 78.5-174.5s58.833-37.5 109.5-37.5c31.333 0 50 10 56 30l-122 391c-5.333 18-9.666 34.833-12.999 50.5s-5 28.5-5 38.5c0 30.667 4.833 63.167 14.5 97.5s24.167 71.833 43.5 112.5l152-466c14.667-44 25-80.667 31-110s9-59.333 9-90zm-882.001-22.002-34 108c-45.333-18.667-81.666-38.667-108.999-60s-41-40-41-56c0-4 14.667-9.667 44-17s52.666-11 69.999-11c8 0 18.833 3.5 32.5 10.5s26.167 15.5 37.5 25.5zm1198.001 36c0-59.333-7-113.501-21-162.501s-41-114.833-81-197.5l-60 24c16 85.333 24 154.666 24 207.999 0 40.667-3.333 100.334-10 179.001s-15 156.5-25 233.5-26.333 168.833-49 275.5c-8 37.333-12 63-12 77 0 20.667 10.333 55.834 31 105.501s49.667 109.834 87 180.501l60-354c22-134.667 37.333-251.334 46-350.001 6.667-76 10-149 10-219zM848.999 1642c0-36-9.001-79-27.001-129l-29 4c2.667 24.667 4 42.667 4 54 0 45.333-11.333 91-34 137 12.667 25.333 28.334 54.333 47.001 87 26-78.667 39-129.667 39-153zm142.999-209c0-50-8.668-90.999-26.001-122.999-19.333-36-46-54-80-54-12 0-23 2-33 6s-21.333 10.333-34 19c-14-24-27-42-39-54-21.333-21.333-43.666-32-66.999-32-28 0-49 9.5-63 28.5s-21 45.167-21 78.5c0 17.333 2.333 34.333 7 51s11.334 35.667 20.001 57l21 9c0-5.333-.667-14-2-26s-2-22-2-30c0-14.667 3-27.834 9-39.501s15-17.5 27-17.5c28.667 0 51.667 18.667 69 56 8 17.333 18 51 30 101l21 6c5.333-32.667 9.666-52.667 12.999-60 8-20.667 21.333-31 40-31 25.333 0 45.333 16.667 60 50 12 26.667 18 54.334 18 83.001l21 6c2.667-12.667 5.167-26.834 7.5-42.501s3.5-29.5 3.5-41.5z"/><glyph glyph-name="uniFDFC" unicode="رﯾﺎل" horiz-adv-x="2436" arabic-form="isolated" d="M924 318c0-102.667-53.332-193.665-159.999-272.998s-228.334-119-365.001-119c-114 0-203.167 28.833-267.5 86.5S35 150.669 35 254.002c0 96.667 12 181 36 253 27.333 81.333 80.666 181 159.999 299l62-42c-52-78-89-145.667-111-203s-33-114.333-33-171c0-60.667 22.5-107.5 67.5-140.5s108.5-49.5 190.5-49.5c117.333 0 212.666 22.667 285.999 68s110 104.666 110 177.999v47c0 26-2.167 54.667-6.5 86s-15.5 96-33.5 194l-86 475-50 36c0 65.333 30.667 165.333 92 300l46-22c-2.667-9.333-4-20-4-32 0-26.667 13.667-48.334 41-65.001l115-65c-7.333-57.333-14.666-98.333-21.999-123s-22.666-61.667-45.999-111l-30 12c0-10 9.5-66.833 28.5-170.5L896 739c18.667-108 28-173.667 28-197V318zm556-24.998h-140c-78 0-134.333 32-169 96-38.667 70.667-58 189.667-58 357v285c0 64.667-9 115-27 151-8.667 17.333-28.667 42.333-60 75l108 250c38.667-53.333 65.667-106 81-158 18-60.667 27-138 27-232v-197c0-139.333 9.333-236 28-290 14.667-43.333 38-65 70-65h140v-272zm476 0-626.001.001v272h526c-7.333 45.333-20.666 83.666-39.999 114.999-10 17.333-33.333 47.333-70 90l80 238c50-56.667 84.167-116 102.5-178s27.5-154 27.5-276v-261zm-416-175.999-104-194-148 74-84-162-182 102 110 204 142-80 80 158zm896 153c0-40.667-23.333-94.499-70-161.499s-101.334-125.167-164-174.5c-69.333-54.667-128.666-82-178-82-58.667 0-121.667 16.667-189 50-58.667 28.667-150.334 86-275.001 172l42 62c60-40 108.333-67 145-81s76.334-21 119.001-21c46 0 92 13 138 39s108.667 74.333 188 145c110.667 98.667 166 174.667 166 228 0 26.667-10.667 61.667-32 105-24 49.333-53.333 90.333-88 123l56 270c45.333-46.667 80.333-100.334 105-161.001s37-129.667 37-207v-306z"/><glyph glyph-name="uniFEF5" unicode="ﻟﺂ" horiz-adv-x="1108" arabic-form="isolated" d="M1076 1356c0-46.667-4.668-93.666-14.001-140.999-4-20-13.333-56.333-28-109l-72 28c0-78.667-9.333-157-28-235s-48.667-155-90-231l64-116c16-30.667 24-58.334 24-83.001v-31c0-16.667-5.333-84.667-16-204-76-36-143.833-59.333-203.5-70s-148.5-16-266.5-16v296c67.333 34.667 115.5 63.834 144.5 87.501s66.833 64.5 113.5 122.5c-76 96-131.333 163.667-166 203-28 32-64 69-108 111-10.667-22-18.5-36.5-23.5-43.5s-9.833-10.5-14.5-10.5c-16 0-46 13.667-90 41-39.333 24.667-69.666 46.667-90.999 66s-37.5 55.5-48.5 108.5-16.5 120.5-16.5 202.5c0 36 2.167 61 6.5 75s13.5 21 27.5 21c26 0 78.667-37.333 158-112 68-64 128.667-128 182-192 42-46 80-92 114-138 30.667-40.667 78.667-110.667 144-210 30 56.667 50.667 129 62 217 6.667 53.333 10 117 10 191-24 11.333-40.333 22.5-49 33.5s-13 25.833-13 44.5c0 40 4.333 80.667 13 122s23 84.666 43 129.999l42-14c0-42.667 10-71 30-85 16-11.333 69.333-31 160-59zM813.999 486.001l-48.001 74.002c-29.333-32.667-51.833-55.834-67.5-69.501s-43.167-34.5-82.5-62.5c50.667 5.333 86.834 11.166 108.501 17.499s51.5 19.833 89.5 40.5zM489.998 1667c-25.333-45.333-56.331-77.832-92.998-97.499s-80-29.5-130-29.5c-24.667 0-55.334 4-92.001 12-15.333 3.333-28.333 5.833-39 7.5s-20.334 2.5-29.001 2.5c-7.333 0-13.5-.5-18.5-1.5s-10-2.5-15-4.5-10.667-4.833-17-8.5-14.5-7.834-24.5-12.501l-16 12c13.333 32.667 28.666 57 45.999 73s40 24 68 24c10.667 0 22.5-.833 35.5-2.5s27.167-4.167 42.5-7.5c17.333-3.333 33.833-6 49.5-8s30.834-3 45.501-3c32.667 0 63.5 5.333 92.5 16s54.5 24.667 76.5 42z"/><glyph glyph-name="uniFEF6" unicode="ﻠﺂ" horiz-adv-x="1220" arabic-form="final" d="M828 794c0-20-3.002-38.5-9.002-55.5s-17-39.167-33-66.5C746.665 760.667 703.332 833.334 656 890.001s-103.333 102-168 136c0-28.667-3.333-49.5-10-62.5s-16-19.5-28-19.5c-20 0-56.667 19-110 57-57.333 40.667-98.666 79.667-123.999 117-18 26-31.5 63.667-40.5 113S162 1320.667 162 1352c0 48 12.667 72 38 72 39.333 0 98-23.167 176-69.5s151.333-101.833 220-166.5c154.667-142.667 232-274 232-394zm392-501h-73c-42 0-81.667 34.333-119 103-40 73.333-60 157.333-60 252-58.667-175.333-140.667-295.666-246-360.999-102-63.333-258-95-468-95l-116 2v64l142.5 49.5c47 16.333 82.167 30.5 105.5 42.5 136 68.667 228 118.667 276 150 85.333 55.333 147 113.333 185 174 44.667 71.333 67 158.666 67 261.999 0 62-4.833 122.333-14.5 181L870 1292c0 45.333 38.667 137.333 116 276 34.667-114 56.667-263 66-447 5.333-130 11-260 17-390 10.667-110.667 36.667-166 78-166h73V293zM489.998 1667c-25.333-45.333-56.331-77.832-92.998-97.499s-80-29.5-130-29.5c-24.667 0-55.334 4-92.001 12-15.333 3.333-28.333 5.833-39 7.5s-20.334 2.5-29.001 2.5c-7.333 0-13.5-.5-18.5-1.5s-10-2.5-15-4.5-10.667-4.833-17-8.5-14.5-7.834-24.5-12.501l-16 12c13.333 32.667 28.666 57 45.999 73s40 24 68 24c10.667 0 22.5-.833 35.5-2.5s27.167-4.167 42.5-7.5c17.333-3.333 33.833-6 49.5-8s30.834-3 45.501-3c32.667 0 63.5 5.333 92.5 16s54.5 24.667 76.5 42z"/><glyph glyph-name="uniFEF7" unicode="ﻟﺄ" horiz-adv-x="996" arabic-form="isolated" d="M964 1356c0-46.667-4.668-93.666-14.001-140.999-4-20-13.333-56.333-28-109l-72 28c0-78.667-9.333-157-28-235s-48.667-155-90-231l64-116c16-30.667 24-58.334 24-83.001v-31c0-16.667-5.333-84.667-16-204-76-36-143.833-59.333-203.5-70s-148.5-16-266.5-16v296c67.333 34.667 115.5 63.834 144.5 87.501s66.833 64.5 113.5 122.5c-76 96-131.333 163.667-166 203-28 32-64 69-108 111-10.667-22-18.5-36.5-23.5-43.5s-9.833-10.5-14.5-10.5c-16 0-46 13.667-90 41-39.333 24.667-69.666 46.667-90.999 66s-37.5 55.5-48.5 108.5-16.5 120.5-16.5 202.5c0 36 2.167 61 6.5 75s13.5 21 27.5 21c26 0 78.667-37.333 158-112 68-64 128.667-128 182-192 42-46 80-92 114-138 30.667-40.667 78.667-110.667 144-210 30 56.667 50.667 129 62 217 6.667 53.333 10 117 10 191-24 11.333-40.333 22.5-49 33.5s-13 25.833-13 44.5c0 40 4.333 80.667 13 122s23 84.666 43 129.999l42-14c0-42.667 10-71 30-85 16-11.333 69.333-31 160-59zM701.999 486.001l-48.001 74.002c-29.333-32.667-51.833-55.834-67.5-69.501s-43.167-34.5-82.5-62.5c50.667 5.333 86.834 11.166 108.501 17.499s51.5 19.833 89.5 40.5zM334.998 1635c-6-21.333-14.002-37-24.002-47-7.333-7.333-18.666-13.333-33.999-18l-216-66c13.333 24 25 40.5 35 49.5s27.333 18.167 52 27.5c-18.667 12-32.167 23.167-40.5 33.5s-12.5 20.5-12.5 30.5c0 8.667 2.667 18.5 8 29.5s12.333 21.833 21 32.5c43.333 58 86.333 87 129 87 12.667 0 22.834-4.167 30.501-12.5s11.5-19.166 11.5-32.499c0-10.667-1.5-19.834-4.5-27.501s-9.167-19.167-18.5-34.5c-33.333 16.667-56 25-68 25s-24-3-36-9c-8-4-15.333-9.333-22-16 0-8.667 16-22 48-40s55-27 69-27c8.667 0 32.667 5 72 15z"/><glyph glyph-name="uniFEF8" unicode="ﻠﺄ" horiz-adv-x="1108" arabic-form="final" d="M716 794c0-20-3.002-38.5-9.002-55.5s-17-39.167-33-66.5C634.665 760.667 591.332 833.334 544 890.001s-103.333 102-168 136c0-28.667-3.333-49.5-10-62.5s-16-19.5-28-19.5c-20 0-56.667 19-110 57-57.333 40.667-98.666 79.667-123.999 117-18 26-31.5 63.667-40.5 113S50 1320.667 50 1352c0 48 12.667 72 38 72 39.333 0 98-23.167 176-69.5s151.333-101.833 220-166.5c154.667-142.667 232-274 232-394zm392-501h-73c-42 0-81.667 34.333-119 103-40 73.333-60 157.333-60 252-58.667-175.333-140.667-295.666-246-360.999-102-63.333-258-95-468-95l-116 2v64l142.5 49.5c47 16.333 82.167 30.5 105.5 42.5 136 68.667 228 118.667 276 150 85.333 55.333 147 113.333 185 174 44.667 71.333 67 158.666 67 261.999 0 62-4.833 122.333-14.5 181L758 1292c0 45.333 38.667 137.333 116 276 34.667-114 56.667-263 66-447 5.333-130 11-260 17-390 10.667-110.667 36.667-166 78-166h73V293zM334.998 1635c-6-21.333-14.002-37-24.002-47-7.333-7.333-18.666-13.333-33.999-18l-216-66c13.333 24 25 40.5 35 49.5s27.333 18.167 52 27.5c-18.667 12-32.167 23.167-40.5 33.5s-12.5 20.5-12.5 30.5c0 8.667 2.667 18.5 8 29.5s12.333 21.833 21 32.5c43.333 58 86.333 87 129 87 12.667 0 22.834-4.167 30.501-12.5s11.5-19.166 11.5-32.499c0-10.667-1.5-19.834-4.5-27.501s-9.167-19.167-18.5-34.5c-33.333 16.667-56 25-68 25s-24-3-36-9c-8-4-15.333-9.333-22-16 0-8.667 16-22 48-40s55-27 69-27c8.667 0 32.667 5 72 15z"/><glyph glyph-name="uniFEF9" unicode="ﻟﺈ" horiz-adv-x="996" arabic-form="isolated" d="M964 1356c0-46.667-4.668-93.666-14.001-140.999-4-20-13.333-56.333-28-109l-72 28c0-78.667-9.333-157-28-235s-48.667-155-90-231l64-116c16-30.667 24-58.334 24-83.001v-31c0-16.667-5.333-84.667-16-204-76-36-143.833-59.333-203.5-70s-148.5-16-266.5-16v296c67.333 34.667 115.5 63.834 144.5 87.501s66.833 64.5 113.5 122.5c-76 96-131.333 163.667-166 203-28 32-64 69-108 111-10.667-22-18.5-36.5-23.5-43.5s-9.833-10.5-14.5-10.5c-16 0-46 13.667-90 41-39.333 24.667-69.666 46.667-90.999 66s-37.5 55.5-48.5 108.5-16.5 120.5-16.5 202.5c0 36 2.167 61 6.5 75s13.5 21 27.5 21c26 0 78.667-37.333 158-112 68-64 128.667-128 182-192 42-46 80-92 114-138 30.667-40.667 78.667-110.667 144-210 30 56.667 50.667 129 62 217 6.667 53.333 10 117 10 191-24 11.333-40.333 22.5-49 33.5s-13 25.833-13 44.5c0 40 4.333 80.667 13 122s23 84.666 43 129.999l42-14c0-42.667 10-71 30-85 16-11.333 69.333-31 160-59zM701.999 486.001l-48.001 74.002c-29.333-32.667-51.833-55.834-67.5-69.501s-43.167-34.5-82.5-62.5c50.667 5.333 86.834 11.166 108.501 17.499s51.5 19.833 89.5 40.5zm-34.001-600.998c-6-21.333-14.002-37-24.002-47-7.333-7.333-18.666-13.333-33.999-18l-216-66c13.333 24 25 40.5 35 49.5s27.333 18.167 52 27.5c-18.667 12-32.167 23.167-40.5 33.5s-12.5 20.5-12.5 30.5c0 8.667 2.667 18.5 8 29.5s12.333 21.833 21 32.5c43.333 58 86.333 87 129 87 12.667 0 22.834-4.167 30.501-12.5s11.5-19.166 11.5-32.499c0-10.667-1.5-19.834-4.5-27.501s-9.167-19.167-18.5-34.5c-33.333 16.667-56 25-68 25s-24-3-36-9c-8-4-15.333-9.333-22-16 0-8.667 16-22 48-40s55-27 69-27c8.667 0 32.667 5 72 15z"/><glyph glyph-name="uniFEFA" unicode="ﻠﺈ" horiz-adv-x="1108" arabic-form="final" d="M716 794c0-20-3.002-38.5-9.002-55.5s-17-39.167-33-66.5C634.665 760.667 591.332 833.334 544 890.001s-103.333 102-168 136c0-28.667-3.333-49.5-10-62.5s-16-19.5-28-19.5c-20 0-56.667 19-110 57-57.333 40.667-98.666 79.667-123.999 117-18 26-31.5 63.667-40.5 113S50 1320.667 50 1352c0 48 12.667 72 38 72 39.333 0 98-23.167 176-69.5s151.333-101.833 220-166.5c154.667-142.667 232-274 232-394zm392-501h-73c-42 0-81.667 34.333-119 103-40 73.333-60 157.333-60 252-58.667-175.333-140.667-295.666-246-360.999-102-63.333-258-95-468-95l-116 2v64l142.5 49.5c47 16.333 82.167 30.5 105.5 42.5 136 68.667 228 118.667 276 150 85.333 55.333 147 113.333 185 174 44.667 71.333 67 158.666 67 261.999 0 62-4.833 122.333-14.5 181L758 1292c0 45.333 38.667 137.333 116 276 34.667-114 56.667-263 66-447 5.333-130 11-260 17-390 10.667-110.667 36.667-166 78-166h73V293zM418.998-115c-6-21.333-14.002-37-24.002-47-7.333-7.333-18.666-13.333-33.999-18l-216-66c13.333 24 25 40.5 35 49.5s27.333 18.167 52 27.5c-18.667 12-32.167 23.167-40.5 33.5s-12.5 20.5-12.5 30.5c0 8.667 2.667 18.5 8 29.5s12.333 21.833 21 32.5c43.333 58 86.333 87 129 87 12.667 0 22.834-4.167 30.501-12.5s11.5-19.166 11.5-32.499c0-10.667-1.5-19.834-4.5-27.501s-9.167-19.167-18.5-34.5c-33.333 16.667-56 25-68 25s-24-3-36-9c-8-4-15.333-9.333-22-16 0-8.667 16-22 48-40s55-27 69-27c8.667 0 32.667 5 72 15z"/><glyph glyph-name="uniFEFB" unicode="ﻟﺎ" horiz-adv-x="996" arabic-form="isolated" d="M964 1356c0-46.667-4.668-93.666-14.001-140.999-4-20-13.333-56.333-28-109l-72 28c0-78.667-9.333-157-28-235s-48.667-155-90-231l64-116c16-30.667 24-58.334 24-83.001v-31c0-16.667-5.333-84.667-16-204-76-36-143.833-59.333-203.5-70s-148.5-16-266.5-16v296c67.333 34.667 115.5 63.834 144.5 87.501s66.833 64.5 113.5 122.5c-76 96-131.333 163.667-166 203-28 32-64 69-108 111-10.667-22-18.5-36.5-23.5-43.5s-9.833-10.5-14.5-10.5c-16 0-46 13.667-90 41-39.333 24.667-69.666 46.667-90.999 66s-37.5 55.5-48.5 108.5-16.5 120.5-16.5 202.5c0 36 2.167 61 6.5 75s13.5 21 27.5 21c26 0 78.667-37.333 158-112 68-64 128.667-128 182-192 42-46 80-92 114-138 30.667-40.667 78.667-110.667 144-210 30 56.667 50.667 129 62 217 6.667 53.333 10 117 10 191-24 11.333-40.333 22.5-49 33.5s-13 25.833-13 44.5c0 40 4.333 80.667 13 122s23 84.666 43 129.999l42-14c0-42.667 10-71 30-85 16-11.333 69.333-31 160-59zM701.999 486.001l-48.001 74.002c-29.333-32.667-51.833-55.834-67.5-69.501s-43.167-34.5-82.5-62.5c50.667 5.333 86.834 11.166 108.501 17.499s51.5 19.833 89.5 40.5z"/><glyph glyph-name="uniFEFC" unicode="ﻠﺎ" horiz-adv-x="1108" arabic-form="final" d="M716 794c0-20-3.002-38.5-9.002-55.5s-17-39.167-33-66.5C634.665 760.667 591.332 833.334 544 890.001s-103.333 102-168 136c0-28.667-3.333-49.5-10-62.5s-16-19.5-28-19.5c-20 0-56.667 19-110 57-57.333 40.667-98.666 79.667-123.999 117-18 26-31.5 63.667-40.5 113S50 1320.667 50 1352c0 48 12.667 72 38 72 39.333 0 98-23.167 176-69.5s151.333-101.833 220-166.5c154.667-142.667 232-274 232-394zm392-501h-73c-42 0-81.667 34.333-119 103-40 73.333-60 157.333-60 252-58.667-175.333-140.667-295.666-246-360.999-102-63.333-258-95-468-95l-116 2v64l142.5 49.5c47 16.333 82.167 30.5 105.5 42.5 136 68.667 228 118.667 276 150 85.333 55.333 147 113.333 185 174 44.667 71.333 67 158.666 67 261.999 0 62-4.833 122.333-14.5 181L758 1292c0 45.333 38.667 137.333 116 276 34.667-114 56.667-263 66-447 5.333-130 11-260 17-390 10.667-110.667 36.667-166 78-166h73V293z"/><glyph glyph-name="uniFEDF_uniFEE0_uniFBAB.liga" unicode="ﻟﻠﮫ" horiz-adv-x="1440" d="M1354 570c0-34-5.168-81.002-15.501-141.002s-20.5-109-30.5-147c-6-22-16.333-35.5-31-40.5s-49-7.5-103-7.5c-53.333 0-92 6-116 18s-46.667 34.667-68 68c-43.333-47.333-89.333-82-138-104-44-20-90.667-30-140-30-51.333 0-92 15-122 45s-56.667 83-80 159c-37.333-42-68.333-74-93-96-34.667-30.667-62.334-46-83.001-46-71.333 0-137.166 8.5-197.499 25.5s-90.5 33.833-90.5 50.5c0 24.667 20 77.334 60 158.001s78 144 114 190c22.667 30 45 51.667 67 65l111 59 2 52c0 26.667 4.5 55.834 13.5 87.501s25.167 72.5 48.5 122.5l126-453c12.667-45.333 28.167-77.5 46.5-96.5s46.166-28.5 83.499-28.5c34 0 68.333 8.333 103 25s63.334 37.667 86.001 63l-97 314c-6 20.667-9.833 35.5-11.5 44.5s-2.5 18.167-2.5 27.5c0 35.333 6 73 18 113 9.333 30.667 24 65 44 103l142-442c30-91.333 56.167-149.5 78.5-174.5s58.833-37.5 109.5-37.5c31.333 0 50 10 56 30l-122 391c-5.333 18-9.666 34.833-12.999 50.5s-5 28.5-5 38.5c0 30.667 4.833 63.167 14.5 97.5s24.167 71.833 43.5 112.5l152-466c14.667-44 25-80.667 31-110s9-59.333 9-90zm-882.001-22.002-34 108c-45.333-18.667-81.666-38.667-108.999-60s-41-40-41-56c0-4 14.667-9.667 44-17s52.666-11 69.999-11c8 0 18.833 3.5 32.5 10.5s26.167 15.5 37.5 25.5zm377 1095.002c0-36-9.001-79-27.001-129l-29 4c2.667 24.667 4 42.667 4 54 0 45.333-11.333 91-34 137 12.667 25.333 28.334 54.333 47.001 87 26-78.667 39-129.667 39-153zm142.999-209c0-50-8.668-90.999-26.001-122.999-19.333-36-46-54-80-54-12 0-23 2-33 6s-21.333 10.333-34 19c-14-24-27-42-39-54-21.333-21.333-43.666-32-66.999-32-28 0-49 9.5-63 28.5s-21 45.167-21 78.5c0 17.333 2.333 34.333 7 51s11.334 35.667 20.001 57l21 9c0-5.333-.667-14-2-26s-2-22-2-30c0-14.667 3-27.834 9-39.501s15-17.5 27-17.5c28.667 0 51.667 18.667 69 56 8 17.333 18 51 30 101l21 6c5.333-32.667 9.666-52.667 12.999-60 8-20.667 21.333-31 40-31 25.333 0 45.333 16.667 60 50 12 26.667 18 54.334 18 83.001l21 6c2.667-12.667 5.167-26.834 7.5-42.501s3.5-29.5 3.5-41.5z"/><glyph glyph-name="uniFEDF_uniFB51.rlig" unicode="ﻟﭑ" horiz-adv-x="996" d="M964 1356c0-46.667-4.668-93.666-14.001-140.999-4-20-13.333-56.333-28-109l-72 28c0-78.667-9.333-157-28-235s-48.667-155-90-231l64-116c16-30.667 24-58.334 24-83.001v-31c0-16.667-5.333-84.667-16-204-76-36-143.833-59.333-203.5-70s-148.5-16-266.5-16v296c67.333 34.667 115.5 63.834 144.5 87.501s66.833 64.5 113.5 122.5c-76 96-131.333 163.667-166 203-28 32-64 69-108 111-10.667-22-18.5-36.5-23.5-43.5s-9.833-10.5-14.5-10.5c-16 0-46 13.667-90 41-39.333 24.667-69.666 46.667-90.999 66s-37.5 55.5-48.5 108.5-16.5 120.5-16.5 202.5c0 36 2.167 61 6.5 75s13.5 21 27.5 21c26 0 78.667-37.333 158-112 68-64 128.667-128 182-192 42-46 80-92 114-138 30.667-40.667 78.667-110.667 144-210 30 56.667 50.667 129 62 217 6.667 53.333 10 117 10 191-24 11.333-40.333 22.5-49 33.5s-13 25.833-13 44.5c0 40 4.333 80.667 13 122s23 84.666 43 129.999l42-14c0-42.667 10-71 30-85 16-11.333 69.333-31 160-59zM701.999 486.001l-48.001 74.002c-29.333-32.667-51.833-55.834-67.5-69.501s-43.167-34.5-82.5-62.5c50.667 5.333 86.834 11.166 108.501 17.499s51.5 19.833 89.5 40.5zM430.998 1724c0-35.333-16-67.668-48-97.001-34.667-32-76-48-124-48h-167c-20.667 0-31-15-31-45 0-3.333.667-9.333 2-18 .667-8 .667-14 0-18-32 32.667-48 66.334-48 101.001 0 44 25.333 66 76 66h24c78.667 106 156.667 159 234 159 54.667 0 82-33.333 82-100zm-90 1c0 25.333-10.666 38-31.999 38-36.667 0-83.334-32.667-140.001-98h82c60 0 90 20 90 60z"/><glyph glyph-name="uniFEE0_uniFB51.rlig" unicode="ﻠﭑ" horiz-adv-x="1108" d="M716 794c0-20-3.002-38.5-9.002-55.5s-17-39.167-33-66.5C634.665 760.667 591.332 833.334 544 890.001s-103.333 102-168 136c0-28.667-3.333-49.5-10-62.5s-16-19.5-28-19.5c-20 0-56.667 19-110 57-57.333 40.667-98.666 79.667-123.999 117-18 26-31.5 63.667-40.5 113S50 1320.667 50 1352c0 48 12.667 72 38 72 39.333 0 98-23.167 176-69.5s151.333-101.833 220-166.5c154.667-142.667 232-274 232-394zm392-501h-73c-42 0-81.667 34.333-119 103-40 73.333-60 157.333-60 252-58.667-175.333-140.667-295.666-246-360.999-102-63.333-258-95-468-95l-116 2v64l142.5 49.5c47 16.333 82.167 30.5 105.5 42.5 136 68.667 228 118.667 276 150 85.333 55.333 147 113.333 185 174 44.667 71.333 67 158.666 67 261.999 0 62-4.833 122.333-14.5 181L758 1292c0 45.333 38.667 137.333 116 276 34.667-114 56.667-263 66-447 5.333-130 11-260 17-390 10.667-110.667 36.667-166 78-166h73V293zM430.998 1724c0-35.333-16-67.668-48-97.001-34.667-32-76-48-124-48h-167c-20.667 0-31-15-31-45 0-3.333.667-9.333 2-18 .667-8 .667-14 0-18-32 32.667-48 66.334-48 101.001 0 44 25.333 66 76 66h24c78.667 106 156.667 159 234 159 54.667 0 82-33.333 82-100zm-90 1c0 25.333-10.666 38-31.999 38-36.667 0-83.334-32.667-140.001-98h82c60 0 90 20 90 60z"/><glyph glyph-name="uniFEDF_uniFEE0_uni06C1.liga" unicode="ﻟﻠہ" horiz-adv-x="1440" d="M1354 570c0-34-5.168-81.002-15.501-141.002s-20.5-109-30.5-147c-6-22-16.333-35.5-31-40.5s-49-7.5-103-7.5c-53.333 0-92 6-116 18s-46.667 34.667-68 68c-43.333-47.333-89.333-82-138-104-44-20-90.667-30-140-30-51.333 0-92 15-122 45s-56.667 83-80 159c-37.333-42-68.333-74-93-96-34.667-30.667-62.334-46-83.001-46-71.333 0-137.166 8.5-197.499 25.5s-90.5 33.833-90.5 50.5c0 24.667 20 77.334 60 158.001s78 144 114 190c22.667 30 45 51.667 67 65l111 59 2 52c0 26.667 4.5 55.834 13.5 87.501s25.167 72.5 48.5 122.5l126-453c12.667-45.333 28.167-77.5 46.5-96.5s46.166-28.5 83.499-28.5c34 0 68.333 8.333 103 25s63.334 37.667 86.001 63l-97 314c-6 20.667-9.833 35.5-11.5 44.5s-2.5 18.167-2.5 27.5c0 35.333 6 73 18 113 9.333 30.667 24 65 44 103l142-442c30-91.333 56.167-149.5 78.5-174.5s58.833-37.5 109.5-37.5c31.333 0 50 10 56 30l-122 391c-5.333 18-9.666 34.833-12.999 50.5s-5 28.5-5 38.5c0 30.667 4.833 63.167 14.5 97.5s24.167 71.833 43.5 112.5l152-466c14.667-44 25-80.667 31-110s9-59.333 9-90zm-882.001-22.002-34 108c-45.333-18.667-81.666-38.667-108.999-60s-41-40-41-56c0-4 14.667-9.667 44-17s52.666-11 69.999-11c8 0 18.833 3.5 32.5 10.5s26.167 15.5 37.5 25.5z"/><glyph glyph-name="afii57410" unicode="آ" horiz-adv-x="488" arabic-form="isolated" d="M370 584c0-59.333-7-113.501-21-162.501s-41-114.833-81-197.5l-60 24c16 85.333 24 154.666 24 207.999 0 40.667-3.333 100.334-10 179.001s-15 156.5-25 233.5-26.333 168.833-49 275.5c-8 37.333-12 63-12 77 0 20.667 10.333 55.834 31 105.501s49.667 109.834 87 180.501l60-354c22-134.667 37.333-251.334 46-350.001 6.667-76 10-149 10-219zm110 1103c-25.333-45.333-56.331-77.832-92.998-97.499s-80-29.5-130-29.5c-24.667 0-55.334 4-92.001 12-15.333 3.333-28.333 5.833-39 7.5s-20.334 2.5-29.001 2.5c-7.333 0-13.5-.5-18.5-1.5s-10-2.5-15-4.5-10.667-4.833-17-8.5S32 1559.667 22 1555l-16 12c13.333 32.667 28.666 57 45.999 73s40 24 68 24c10.667 0 22.5-.833 35.5-2.5s27.167-4.167 42.5-7.5c17.333-3.333 33.833-6 49.5-8s30.834-3 45.501-3c32.667 0 63.5 5.333 92.5 16s54.5 24.667 76.5 42z"/><glyph glyph-name="afii57411" unicode="أ" horiz-adv-x="444" arabic-form="isolated" d="M370 1635c-7.333-19.333-16.002-34-26.002-44-7.333-7.333-18.666-13.333-33.999-18l-216-66c13.333 24 25 40.5 35 49.5s28 17.167 54 24.5c-18.667 12-32.167 23.167-40.5 33.5s-12.5 20.5-12.5 30.5c0 8.667 2.667 18.5 8 29.5s12.333 21.833 21 32.5c43.333 58 86.333 87 129 87 12.667 0 22.834-4.167 30.501-12.5s11.5-19.166 11.5-32.499c0-10.667-1.5-19.834-4.5-27.501s-9.167-19.167-18.5-34.5c-33.333 16.667-56 25-68 25s-24-3-36-9c-8-4-15.333-9.333-22-16 0-8.667 16-22 48-40s55-27 69-27c8.667 0 32.667 5 72 15zm1.998-1051c0-59.333-7-113.501-21-162.501s-41-114.833-81-197.5l-60 24c16 85.333 24 154.666 24 207.999 0 40.667-3.333 100.334-10 179.001s-15 156.5-25 233.5-26.333 168.833-49 275.5c-8 37.333-12 63-12 77 0 20.667 10.333 55.834 31 105.501s49.667 109.834 87 180.501l60-354c22-134.667 37.333-251.334 46-350.001 6.667-76 10-149 10-219z"/><glyph glyph-name="afii57412" unicode="ؤ" horiz-adv-x="924" arabic-form="isolated" d="M924 362c0-114.667-48.666-228-145.999-340s-193.333-168-288-168c-55.333 0-115.833 17.667-181.5 53s-166.5 105-302.5 209l42 58c72-48 131-80 177-96 38-13.333 81-20 129-20 64.667 0 128.667 18 192 54 74.667 42.667 152 111.334 232 206.001-28-4-51.333-6-70-6-66 0-118.5 21.5-157.5 64.5s-58.5 101.5-58.5 175.5c0 100 23 196.333 69 289 50 100.667 107 151 171 151 53.333 0 98.666-36.333 135.999-109S924 722.667 924 620V362zM804.001 565c-18.667 107.333-56.666 160.999-113.999 160.999-20.667 0-37.167-8.167-49.5-24.5s-18.5-34.166-18.5-53.499c0-24 13.167-43.833 39.5-59.5S722.668 565 766.001 565h38zm-257.999 630c-6-21.333-14.002-37-24.002-47-7.333-7.333-18.666-13.333-33.999-18l-216-66c13.333 24 25 40.5 35 49.5s27.333 18.167 52 27.5c-18.667 12-32.167 23.167-40.5 33.5s-12.5 20.5-12.5 30.5c0 8.667 2.667 18.5 8 29.5s12.333 21.833 21 32.5c43.333 58 86.333 87 129 87 12.667 0 22.834-4.167 30.501-12.5s11.5-19.166 11.5-32.499c0-10.667-1.5-19.834-4.5-27.501s-9.167-19.167-18.5-34.5c-33.333 16.667-56 25-68 25s-24-3-36-9c-8-4-15.333-9.333-22-16 0-8.667 16-22 48-40s55-27 69-27c8.667 0 32.667 5 72 15z"/><glyph glyph-name="afii57413" unicode="إ" horiz-adv-x="444" arabic-form="isolated" d="M368-50c-6-21.333-14.002-37-24.002-47-7.333-7.333-18.666-13.333-33.999-18l-216-66c13.333 24 25 40.5 35 49.5s27.333 18.167 52 27.5c-18.667 12-32.167 23.167-40.5 33.5s-12.5 20.5-12.5 30.5c0 8.667 2.667 18.5 8 29.5s12.333 21.833 21 32.5c43.333 58 86.333 87 129 87 12.667 0 22.834-4.167 30.501-12.5S328 77.334 328 64.001c0-10.667-1.5-19.834-4.5-27.501S314.333 17.333 305 2c-33.333 16.667-56 25-68 25s-24-3-36-9c-8-4-15.333-9.333-22-16 0-8.667 16-22 48-40s55-27 69-27c8.667 0 32.667 5 72 15zm1.998 634c0-59.333-7-113.501-21-162.501s-41-114.833-81-197.5l-60 24c16 85.333 24 154.666 24 207.999 0 40.667-3.333 100.334-10 179.001s-15 156.5-25 233.5-26.333 168.833-49 275.5c-8 37.333-12 63-12 77 0 20.667 10.333 55.834 31 105.501s49.667 109.834 87 180.501l60-354c22-134.667 37.333-251.334 46-350.001 6.667-76 10-149 10-219z"/><glyph glyph-name="afii57414" unicode="ئ" horiz-adv-x="1320" arabic-form="isolated" d="M1177 780c0-36.667-3.672-67.001-11.005-91.001s-23-55.667-47-95c-18 47.333-33.167 78.166-45.5 92.499s-30.166 21.5-53.499 21.5c-36 0-85.5-20.5-148.5-61.5s-94.5-75.5-94.5-103.5c0-14.667 12.667-25 38-31 18-4 46-6 84-6h29.5c9.667 0 19.5.333 29.5 1 72.667 0 121-7.333 145-22 20.667-12.667 31-37.334 31-74.001 0-72-13.333-141-40-207-33.333-83.333-81.666-142.666-144.999-177.999-79.333-44.667-161.833-80.667-247.5-108s-165.5-41-239.5-41c-207.333 0-311 93-311 279 0 94 11.667 175 35 243 26 76 81 179 165 309l46-30c-49.333-83.333-86.333-157.5-111-222.5s-37-121.833-37-170.5c0-126 71-189 213-189 53.333 0 104 4.833 152 14.5s96.667 23.167 146 40.5c32 11.333 68.667 26 110 44 66 29.333 101 45 105 47 30 16 45 30.333 45 43 0 6.667-16.167 10.834-48.5 12.501s-55.166 2.5-68.499 2.5c-102.667 0-171.334 14.667-206 44-28 24-42 68.333-42 133 0 30.667 9.832 69.334 29.5 116.001s45.5 93 77.5 139c48.666 70 97.333 123 146 159s96.334 54 143.001 54c38.667 0 69.334-15 92.001-45s34-70 34-120zM460.995 959.999c-6-21.333-14.002-37-24.002-47-7.333-7.333-18.666-13.333-33.999-18l-216-66c13.333 24 25 40.5 35 49.5s27.333 18.167 52 27.5c-18.667 12-32.167 23.167-40.5 33.5s-12.5 20.5-12.5 30.5c0 8.667 2.667 18.5 8 29.5s12.333 21.833 21 32.5c43.333 58 86.333 87 129 87 12.667 0 22.834-4.167 30.501-12.5s11.5-19.166 11.5-32.499c0-10.667-1.5-19.834-4.5-27.501s-9.167-19.167-18.5-34.5c-33.333 16.667-56 25-68 25s-24-3-36-9c-8-4-15.333-9.333-22-16 0-8.667 16-22 48-40s55-27 69-27c8.667 0 32.667 5 72 15z"/><glyph glyph-name="afii57415" unicode="ا" horiz-adv-x="444" arabic-form="isolated" d="M370 584c0-59.333-7-113.501-21-162.501s-41-114.833-81-197.5l-60 24c16 85.333 24 154.666 24 207.999 0 40.667-3.333 100.334-10 179.001s-15 156.5-25 233.5-26.333 168.833-49 275.5c-8 37.333-12 63-12 77 0 20.667 10.333 55.834 31 105.501s49.667 109.834 87 180.501l60-354c22-134.667 37.333-251.334 46-350.001 6.667-76 10-149 10-219z"/><glyph glyph-name="afii57416" unicode="ب" horiz-adv-x="1330" arabic-form="isolated" d="m1330 293-838.999.001c-80.667 0-134.167 1.333-160.5 4s-54.833 9.667-85.5 21c-54.667 18.667-99.667 56.667-135 114s-53 121.333-53 192c0 27.333 1.333 51.833 4 73.5s8 47.167 16 76.5c11.333 43.333 24 79.666 38 108.999s38.667 69 74 119l56-40c-28.667-52.667-48.167-94.334-58.5-125.001s-15.5-61-15.5-91c0-38 12.167-72.167 36.5-102.5S263.667 593.333 303 584c23.333-6 53.833-10.667 91.5-14s77.167-5 118.5-5h723c-18.667 50.667-34 86.667-46 108-14 25.333-36.667 57.666-68 96.999l90 232c50-71.333 82.667-136.666 98-195.999 13.333-52 20-128.667 20-230V293zM939.001 82.001l-120-224-232 126 120 228z"/><glyph glyph-name="afii57417" unicode="ة" horiz-adv-x="702" arabic-form="isolated" d="m572 1461-110-204-142 80-80-158-186 102 104 194 148-74 84 162zm50-793c0-40-3.168-80.502-9.501-121.502s-14.5-74.5-24.5-100.5c-18.667-50.667-64.667-95.334-138-134.001-68-36-132-54-192-54-52 0-93.333 18-124 54s-46 84-46 144c0 54.667 7.833 108.334 23.5 161.001s43.834 119 84.501 199l-36 24c11.333 30.667 26.666 67.834 45.999 111.501s36.666 80.5 51.999 110.5l98-58c42.667-26 83.334-54 122.001-84C532.666 878.666 570.333 839.833 591 803.5S622 722 622 668zm-148.001-80.002c0 12.667-23.167 38.999-69.5 78.999s-91.833 74.333-136.5 103c-42.667-67.333-64-123.333-64-168 0-21.333 8.833-39.666 26.5-54.999s38.834-23 63.501-23c33.333 0 71.666 7.833 114.999 23.5s65 29.167 65 40.5z"/><glyph glyph-name="afii57418" unicode="ت" horiz-adv-x="1330" arabic-form="isolated" d="m977 1242-110-204-142 80-80-158-186 102 104 194 148-74 84 162zm353-949-838.999.001c-80.667 0-134.167 1.333-160.5 4s-54.833 9.667-85.5 21c-54.667 18.667-99.667 56.667-135 114s-53 121.333-53 192c0 27.333 1.333 51.833 4 73.5s8 47.167 16 76.5c11.333 43.333 24 79.666 38 108.999s38.667 69 74 119l56-40c-28.667-52.667-48.167-94.334-58.5-125.001s-15.5-61-15.5-91c0-38 12.167-72.167 36.5-102.5S263.667 593.333 303 584c23.333-6 53.833-10.667 91.5-14s77.167-5 118.5-5h723c-18.667 50.667-34 86.667-46 108-14 25.333-36.667 57.666-68 96.999l90 232c50-71.333 82.667-136.666 98-195.999 13.333-52 20-128.667 20-230V293z"/><glyph glyph-name="afii57419" unicode="ث" horiz-adv-x="1330" arabic-form="isolated" d="m781 1473-100-208-188 100 102 204zm194-237-110-204-142 80-80-158-186 102 104 194 148-74 84 162zm355-942-846.001-.001c-89.333 0-156 5.333-200 16s-83.333 30-118 58c-33.333 29.333-59.333 66.666-78 111.999s-28 95.333-28 150c0 62.667 9.5 120.834 28.5 174.501s52.833 119.5 101.5 197.5l56-36c-28-57.333-47-100.833-57-130.5s-15-58.167-15-85.5c0-64.667 26.5-111.5 79.5-140.5s137.833-43.5 254.5-43.5h726c-14.667 47.333-28.167 82.833-40.5 106.5s-36.166 57.5-71.499 101.5l88 230c26.667-36.667 45.5-65.667 56.5-87s22.333-51.166 34-89.499S1320 752 1324 716s6-88.667 6-158V294z"/><glyph glyph-name="afii57420" unicode="ج" horiz-adv-x="1182" arabic-form="isolated" d="M1152-178 765.999-416c-237.333 0-412 45.333-524 136-114.667 93.333-172 240-172 440 0 138 27.333 259.833 82 365.5S293.333 726 412 810c-79.333 0-149.333-11.667-210-35-22-8.667-72-31-150-67 32 248 150 372 354 372 30.667 0 81-3.5 151-10.5s131.667-12.167 185-15.5c101.333-6.667 201.333-10 300-10l-60-246c-255.333-32-450.166-93.5-584.499-184.5S196.001 406 196.001 264c0-133.333 55.167-235.333 165.5-306S630.667-148 838-148c5.333 0 55.666 3 150.999 9 52.667 3.333 100.334 5 143.001 5zM833.999 354l-120-230-234 130 124 228z"/><glyph glyph-name="afii57421" unicode="ح" horiz-adv-x="1182" arabic-form="isolated" d="M1152-178 765.999-416c-237.333 0-412 45.333-524 136-114.667 93.333-172 240-172 440 0 138 27.333 259.833 82 365.5S293.333 726 412 810c-79.333 0-149.333-11.667-210-35-22-8.667-72-31-150-67 32 248 150 372 354 372 30.667 0 81-3.5 151-10.5s131.667-12.167 185-15.5c101.333-6.667 201.333-10 300-10l-60-246c-255.333-32-450.166-93.5-584.499-184.5S196.001 406 196.001 264c0-133.333 55.167-235.333 165.5-306S630.667-148 838-148c5.333 0 55.666 3 150.999 9 52.667 3.333 100.334 5 143.001 5z"/><glyph glyph-name="afii57422" unicode="خ" horiz-adv-x="1182" arabic-form="isolated" d="m712 1403-120-224-234 122 120 226zm440-1581L765.999-416c-237.333 0-412 45.333-524 136-114.667 93.333-172 240-172 440 0 138 27.333 259.833 82 365.5S293.333 726 412 810c-79.333 0-149.333-11.667-210-35-22-8.667-72-31-150-67 32 248 150 372 354 372 30.667 0 81-3.5 151-10.5s131.667-12.167 185-15.5c101.333-6.667 201.333-10 300-10l-60-246c-255.333-32-450.166-93.5-584.499-184.5S196.001 406 196.001 264c0-133.333 55.167-235.333 165.5-306S630.667-148 838-148c5.333 0 55.666 3 150.999 9 52.667 3.333 100.334 5 143.001 5z"/><glyph glyph-name="afii57423" unicode="د" horiz-adv-x="702" arabic-form="isolated" d="M702 293H249.001c-44 0-77.667 9.333-101 28-28.667 22.667-43 59.667-43 111 0 29.333 1.5 61 4.5 95s7.5 68.333 13.5 103l38 2c5.333-23.333 17.166-40.333 35.499-51s40.5-16 66.5-16h344c-15.333 98-42 176.333-80 235-31.333 48.667-75 90.667-131 126l72 312c86.667-64.667 148-148 184-250 33.333-94 50-218.667 50-374V293z"/><glyph glyph-name="afii57424" unicode="ذ" horiz-adv-x="702" arabic-form="isolated" d="m531 1607-120-224-234 122 125 226zM702 293H249.001c-44 0-77.667 9.333-101 28-28.667 22.667-43 59.667-43 111 0 29.333 1.5 61 4.5 95s7.5 68.333 13.5 103l38 2c5.333-23.333 17.166-40.333 35.499-51s40.5-16 66.5-16h344c-15.333 98-42 176.333-80 235-31.333 48.667-75 90.667-131 126l72 312c86.667-64.667 148-148 184-250 33.333-94 50-218.667 50-374V293z"/><glyph glyph-name="afii57425" unicode="ر" horiz-adv-x="886" arabic-form="isolated" d="M886 270c0-40.667-23.333-94.499-70-161.499S714.666-16.666 651.999-65.999c-69.333-54.667-128.666-82-177.999-82-58.667 0-121.667 16.667-189 50-58.667 28.667-150.334 86-275.001 172l42 62c60-40 108.333-67 145-81s76.334-21 119.001-21c46 0 92 13 138 39s108.667 74.333 188 145c110.667 98.667 166 174.667 166 228 0 26.667-10.667 61.667-32 105-24 49.333-53.333 90.333-88 123l56 270C789.333 897.334 824.333 843.667 849 783s37-129.667 37-207V270z"/><glyph glyph-name="afii57426" unicode="ز" horiz-adv-x="886" arabic-form="isolated" d="m835 1295-120-224-234 122 119 226zm51-1025c0-40.667-23.333-94.499-70-161.499S714.666-16.666 651.999-65.999c-69.333-54.667-128.666-82-177.999-82-58.667 0-121.667 16.667-189 50-58.667 28.667-150.334 86-275.001 172l42 62c60-40 108.333-67 145-81s76.334-21 119.001-21c46 0 92 13 138 39s108.667 74.333 188 145c110.667 98.667 166 174.667 166 228 0 26.667-10.667 61.667-32 105-24 49.333-53.333 90.333-88 123l56 270C789.333 897.334 824.333 843.667 849 783s37-129.667 37-207V270z"/><glyph glyph-name="afii57427" unicode="س" horiz-adv-x="1842" arabic-form="isolated" d="M1842 294c-73.333 0-125.669 3.333-157.002 10s-89.666 25.334-174.999 56.001c-38.667-27.333-73.167-45.333-103.5-54s-75.833-13-136.5-13h-163c0-154.667-49.333-266-148-334-86-59.333-215.667-89-389-89-162 0-286.833 29.5-374.5 88.5s-131.5 142.833-131.5 251.5c0 92.667 14 177.334 42 254.001 30.667 84.667 90.667 194.667 180 330l60-42c-66-112.667-109.167-194.334-129.5-245.001s-30.5-103-30.5-157c0-70 37.5-127.167 112.5-171.5s173.5-66.5 295.5-66.5c120 0 221 23 303 69s123 102.333 123 169c0 41.333-7.167 82.333-21.5 123s-45.166 105.667-92.499 195l88 270c47.333-80 78.666-146 93.999-198 13.333-45.333 20-103.666 20-174.999h92c100.667 0 170.834 11.833 210.501 35.5s59.5 66.167 59.5 127.5c0 26.667 2.5 46.167 7.5 58.5s16.833 25.166 35.5 38.499l47 33c1.333-12.667 2.333-29.834 3-51.501s1-35.834 1-42.501c0-36.667-5.333-85.334-16-146.001 30.667-10 61.5-19.167 92.5-27.5s60.167-14.5 87.5-18.5c0 24-8.333 53.333-25 88s-25 57.334-25 68.001c0 8 1.167 15.667 3.5 23s7.833 17 16.5 29l94 134c18-42 30.833-80.167 38.5-114.5S1842 722.333 1842 671V294z"/><glyph glyph-name="afii57428" unicode="ش" horiz-adv-x="1842" arabic-form="isolated" d="m1566 1489-100-208-188 100 102 204zm194-237-110-204-142 80-80-158-186 102 104 194 148-74 84 162zm82-958c-73.333 0-125.669 3.333-157.002 10s-89.666 25.334-174.999 56.001c-38.667-27.333-73.167-45.333-103.5-54s-75.833-13-136.5-13h-163c0-154.667-49.333-266-148-334-86-59.333-215.667-89-389-89-162 0-286.833 29.5-374.5 88.5s-131.5 142.833-131.5 251.5c0 92.667 14 177.334 42 254.001 30.667 84.667 90.667 194.667 180 330l60-42c-66-112.667-109.167-194.334-129.5-245.001s-30.5-103-30.5-157c0-70 37.5-127.167 112.5-171.5s173.5-66.5 295.5-66.5c120 0 221 23 303 69s123 102.333 123 169c0 41.333-7.167 82.333-21.5 123s-45.166 105.667-92.499 195l88 270c47.333-80 78.666-146 93.999-198 13.333-45.333 20-103.666 20-174.999h92c100.667 0 170.834 11.833 210.501 35.5s59.5 66.167 59.5 127.5c0 26.667 2.5 46.167 7.5 58.5s16.833 25.166 35.5 38.499l47 33c1.333-12.667 2.333-29.834 3-51.501s1-35.834 1-42.501c0-36.667-5.333-85.334-16-146.001 30.667-10 61.5-19.167 92.5-27.5s60.167-14.5 87.5-18.5c0 24-8.333 53.333-25 88s-25 57.334-25 68.001c0 8 1.167 15.667 3.5 23s7.833 17 16.5 29l94 134c18-42 30.833-80.167 38.5-114.5S1842 722.333 1842 671V294z"/><glyph glyph-name="afii57429" unicode="ص" horiz-adv-x="2176" arabic-form="isolated" d="m2176 293-1069 .001c0-155.333-49.333-267-148-335-85.333-58.667-215-88-389-88-162 0-286.833 29.5-374.5 88.5S64 101.334 64 210.001c0 92.667 14 177.334 42 254.001 30.667 84.667 90.667 194.667 180 330l60-42c-66-112.667-109.167-194.334-129.5-245.001s-30.5-103-30.5-157c0-70 37.5-127.167 112.5-171.5s173.5-66.5 295.5-66.5c120 0 221 23 303 69s123 102.333 123 169c0 41.333-7.167 82.333-21.5 123s-45.166 105.667-92.499 195l88 270c36.667-70.667 57.334-111.334 62.001-122.001 19.333-40.667 32.833-78.667 40.5-114s11.5-81 11.5-137c43.333 0 82.666 11 117.999 33 4 2.667 37 26 99 70l358 256c56 39.333 98 66 126 80 38.667 18.667 77.667 28 117 28 74.667 0 133.334-26.333 176.001-79 49.333-60.667 74-153 74-277V293zm-132 374.001c0 25.333-20.667 47.666-62 66.999s-91 29-149 29c-44 0-93.5-14.167-148.5-42.5s-134.833-80.166-239.5-155.499h262c224.667 0 337 34 337 102z"/><glyph glyph-name="afii57430" unicode="ض" horiz-adv-x="2176" arabic-form="isolated" d="m1658 1367-120-224-234 122 121 226zm518-1074-1069 .001c0-155.333-49.333-267-148-335-85.333-58.667-215-88-389-88-162 0-286.833 29.5-374.5 88.5S64 101.334 64 210.001c0 92.667 14 177.334 42 254.001 30.667 84.667 90.667 194.667 180 330l60-42c-66-112.667-109.167-194.334-129.5-245.001s-30.5-103-30.5-157c0-70 37.5-127.167 112.5-171.5s173.5-66.5 295.5-66.5c120 0 221 23 303 69s123 102.333 123 169c0 41.333-7.167 82.333-21.5 123s-45.166 105.667-92.499 195l88 270c36.667-70.667 57.334-111.334 62.001-122.001 19.333-40.667 32.833-78.667 40.5-114s11.5-81 11.5-137c43.333 0 82.666 11 117.999 33 4 2.667 37 26 99 70l358 256c56 39.333 98 66 126 80 38.667 18.667 77.667 28 117 28 74.667 0 133.334-26.333 176.001-79 49.333-60.667 74-153 74-277V293zm-132 374.001c0 25.333-20.667 47.666-62 66.999s-91 29-149 29c-44 0-93.5-14.167-148.5-42.5s-134.833-80.166-239.5-155.499h262c224.667 0 337 34 337 102z"/><glyph glyph-name="afii57431" unicode="ط" horiz-adv-x="1072" arabic-form="isolated" d="m1072 293-1142 .002v272H63c16 0 61 27.667 135 83 24.667 18 60.334 46 107.001 84 0 82-3 151.333-9 208s-15.667 115.667-29 177c-3.333 14.667-21.333 87-54 217l-58 36c15.333 70 28 120.167 38 150.5s29.333 78.166 58 143.499l46-18c0-4-1.333-12.667-4-26 0-23.333 33-51 99-83 22-10.667 55-24.334 99-41.001-6.667-52-17.334-100.667-32.001-146-7.333-22.667-20.666-58-39.999-106l-36 12c20.667-94.667 34.5-164.5 41.5-209.5s10.5-85.167 10.5-120.5v-11c0-19.333-.5-34.5-1.5-45.5s-3.833-28.167-8.5-51.5l105 76c54 38 102.333 68.667 145 92 56 30.667 98.667 46 128 46 78.667 0 141.667-20.333 189-61 53.333-46 80-112.333 80-199V293zM932.999 667.002c0 23.333-24.668 45.166-74.001 65.499s-92.666 30.5-129.999 30.5c-44 0-93.5-14.167-148.5-42.5s-134.833-80.166-239.5-155.499h262c220 0 330 34 330 102z"/><glyph glyph-name="afii57432" unicode="ظ" horiz-adv-x="1072" arabic-form="isolated" d="m916 1367-120-224-234 122 121 226zm156-1074-1142 .002v272H63c16 0 61 27.667 135 83 24.667 18 60.334 46 107.001 84 0 82-3 151.333-9 208s-15.667 115.667-29 177c-3.333 14.667-21.333 87-54 217l-58 36c15.333 70 28 120.167 38 150.5s29.333 78.166 58 143.499l46-18c0-4-1.333-12.667-4-26 0-23.333 33-51 99-83 22-10.667 55-24.334 99-41.001-6.667-52-17.334-100.667-32.001-146-7.333-22.667-20.666-58-39.999-106l-36 12c20.667-94.667 34.5-164.5 41.5-209.5s10.5-85.167 10.5-120.5v-11c0-19.333-.5-34.5-1.5-45.5s-3.833-28.167-8.5-51.5l105 76c54 38 102.333 68.667 145 92 56 30.667 98.667 46 128 46 78.667 0 141.667-20.333 189-61 53.333-46 80-112.333 80-199V293zM932.999 667.002c0 23.333-24.668 45.166-74.001 65.499s-92.666 30.5-129.999 30.5c-44 0-93.5-14.167-148.5-42.5s-134.833-80.166-239.5-155.499h262c220 0 330 34 330 102z"/><glyph glyph-name="afii57433" unicode="ع" horiz-adv-x="1108" arabic-form="isolated" d="M1096-182 717.999-415.999l-102-2c-186 0-326.5 39.833-421.5 119.5s-142.5 196.5-142.5 350.5c0 99.333 13 187 39 263 29.333 86 76.333 161 141 225-33.333 38-62.666 82-87.999 132s-38 90.667-38 122c0 38 14.333 94.667 43 170s57 128.666 85 159.999c22.667 28.667 56.834 51.5 102.501 68.5s94.834 25.5 147.501 25.5c73.333 0 141-16.833 203-50.5s114.333-82.167 157-145.5c-20 0-39 .333-57 1s-37 1.667-57 3c-138 0-249.5-11-334.5-33s-127.5-51-127.5-87c0-28 14.667-56 44-84 34.667-33.333 90.667-66.666 168-99.999 92 40 162.667 67.833 212 83.5s126 35.167 230 58.5c-18.667-58-33-100.333-43-127-12-30.667-29.667-70.334-53-119.001-202.667-48-363.334-115-482.001-201s-178-177.667-178-275c0-91.333 51-161.333 153-210 116.667-56 299.667-84 549-84h24c39.333 0 68.166.5 86.499 1.5s51.5 3.833 99.5 8.5z"/><glyph glyph-name="afii57434" unicode="غ" horiz-adv-x="1108" arabic-form="isolated" d="m599 1559-120-224-234 122 121 226zm497-1741L717.999-415.999l-102-2c-186 0-326.5 39.833-421.5 119.5s-142.5 196.5-142.5 350.5c0 99.333 13 187 39 263 29.333 86 76.333 161 141 225-33.333 38-62.666 82-87.999 132s-38 90.667-38 122c0 38 14.333 94.667 43 170s57 128.666 85 159.999c22.667 28.667 56.834 51.5 102.501 68.5s94.834 25.5 147.501 25.5c73.333 0 141-16.833 203-50.5s114.333-82.167 157-145.5c-20 0-39 .333-57 1s-37 1.667-57 3c-138 0-249.5-11-334.5-33s-127.5-51-127.5-87c0-28 14.667-56 44-84 34.667-33.333 90.667-66.666 168-99.999 92 40 162.667 67.833 212 83.5s126 35.167 230 58.5c-18.667-58-33-100.333-43-127-12-30.667-29.667-70.334-53-119.001-202.667-48-363.334-115-482.001-201s-178-177.667-178-275c0-91.333 51-161.333 153-210 116.667-56 299.667-84 549-84h24c39.333 0 68.166.5 86.499 1.5s51.5 3.833 99.5 8.5z"/><glyph glyph-name="uni063B.init" unicode="ػ" horiz-adv-x="738" d="m738 293-808 .001v272h649c-26 31.333-51.333 58.666-76 81.999-20 18.667-47 41.334-81 68.001l-113 88-32-36c-59.333 58.667-94.666 94.334-105.999 107.001-33.333 38-50 81.667-50 131 0 67.333 4.667 114.666 14 141.999 13.333 38.667 41.666 73 84.999 103 38.667 26.667 80 51 124 73 34.667 17.333 80.667 37.666 138 60.999l169 66v-238c-3.333 0-31.333-8.667-84-26-65.333-21.333-117.333-40-156-56-56-22.667-84-39.667-84-51 0-6 23.667-32 71-78 64.667-62.667 119-120 163-172 72.667-86 131.667-171.667 177-257V293zM590 1697l-104-194-148 74-84-162-182 102 110 204 142-80 80 158z"/><glyph glyph-name="uni063B.medi" unicode="ػ" horiz-adv-x="1110" d="m-70 293 .002 271.999h170c72 0 126.333 1.667 163 5 57.333 5.333 101.333 15.666 132 30.999 36 18 54 44.667 54 80 0 18-11.333 40.333-34 67s-47.667 47.334-75 62.001l-35-35c-51.333 48.667-83.333 80-96 94-37.333 42-56 87.333-56 136 0 67.333 4.667 114.666 14 141.999 13.333 38.667 41.666 73 84.999 103 36.667 25.333 86 52 148 80 50 22.667 110.667 47.667 182 75l193 73v-238l-107-33c-82-26-149-49-201-69-72-28-108-47.667-108-59-.667-10-1-17-1-21 0-15.333 7-31 21-47 18.667-21.333 57.667-55.333 117-102 43.333-34.667 104-89 182-163 66-63.333 115.333-106.333 148-129 49.333-34.667 96-52 140-52h144v-272h-136c-50 0-105.667 21.667-167 65-50 35.333-101.333 82-154 140-28 30.667-64.667 75.334-110 134.001 0-111.333-36.667-194.666-110-249.999C354.334 322.667 228.667 293 56 293H-70zm660.002 1404-104-194-148 74-84-162-182 102 110 204 142-80 80 158z"/><glyph glyph-name="uni063C.init" unicode="ؼ" horiz-adv-x="738" d="m738 293-808 .001v272h649c-26 31.333-51.333 58.666-76 81.999-20 18.667-47 41.334-81 68.001l-113 88-32-36c-59.333 58.667-94.666 94.334-105.999 107.001-33.333 38-50 81.667-50 131 0 67.333 4.667 114.666 14 141.999 13.333 38.667 41.666 73 84.999 103 38.667 26.667 80 51 124 73 34.667 17.333 80.667 37.666 138 60.999l169 66v-238c-3.333 0-31.333-8.667-84-26-65.333-21.333-117.333-40-156-56-56-22.667-84-39.667-84-51 0-6 23.667-32 71-78 64.667-62.667 119-120 163-172 72.667-86 131.667-171.667 177-257V293zm17-175.999-104-194-148 74-84-162-182 102 110 204 142-80 80 158zm-36-309-102-204-186 96 100 208z"/><glyph glyph-name="uni063C.medi" unicode="ؼ" horiz-adv-x="1110" d="m-70 293 .002 271.999h170c72 0 126.333 1.667 163 5 57.333 5.333 101.333 15.666 132 30.999 36 18 54 44.667 54 80 0 18-11.333 40.333-34 67s-47.667 47.334-75 62.001l-35-35c-51.333 48.667-83.333 80-96 94-37.333 42-56 87.333-56 136 0 67.333 4.667 114.666 14 141.999 13.333 38.667 41.666 73 84.999 103 36.667 25.333 86 52 148 80 50 22.667 110.667 47.667 182 75l193 73v-238l-107-33c-82-26-149-49-201-69-72-28-108-47.667-108-59-.667-10-1-17-1-21 0-15.333 7-31 21-47 18.667-21.333 57.667-55.333 117-102 43.333-34.667 104-89 182-163 66-63.333 115.333-106.333 148-129 49.333-34.667 96-52 140-52h144v-272h-136c-50 0-105.667 21.667-167 65-50 35.333-101.333 82-154 140-28 30.667-64.667 75.334-110 134.001 0-111.333-36.667-194.666-110-249.999C354.334 322.667 228.667 293 56 293H-70zm725.002-176.001-104-194-148 74-84-162-182 102 110 204 142-80 80 158zm-36-309-102-204-186 96 100 208z"/><glyph glyph-name="uni063D.init" unicode="ؽ" horiz-adv-x="556" d="m556 293-626.001.001v272h526C448.666 610.334 435.333 648.667 416 680c-10 17.333-33.333 47.333-70 90l80 238c50-56.667 84.167-116 102.5-178S556 676 556 554V293zm-16.001-175.999-110-204-142 80-80-158-186 102 104 194 148-74 84 162zm45 967.999h-117l-67 120-67-120h-117l136 230h96z"/><glyph glyph-name="uni063D.medi" unicode="ؽ" horiz-adv-x="556" d="m556 293-626.001.001v272h526C448.666 610.334 435.333 648.667 416 680c-10 17.333-33.333 47.333-70 90l80 238c50-56.667 84.167-116 102.5-178S556 676 556 554V293zm-16.001-175.999-110-204-142 80-80-158-186 102 104 194 148-74 84 162zm45 967.999h-117l-67 120-67-120h-117l136 230h96z"/><glyph glyph-name="uni063E.init" unicode="ؾ" horiz-adv-x="556" d="m556 293-626.001.001v272h526C448.666 610.334 435.333 648.667 416 680c-10 17.333-33.333 47.333-70 90l80 238c50-56.667 84.167-116 102.5-178S556 676 556 554V293zm-16.001-175.999-110-204-142 80-80-158-186 102 104 194 148-74 84 162zm6 1223.999-104-194-148 74-84-162-182 102 110 204 142-80 80 158z"/><glyph glyph-name="uni063E.medi" unicode="ؾ" horiz-adv-x="556" d="m556 293-626.001.001v272h526C448.666 610.334 435.333 648.667 416 680c-10 17.333-33.333 47.333-70 90l80 238c50-56.667 84.167-116 102.5-178S556 676 556 554V293zm-16.001-175.999-110-204-142 80-80-158-186 102 104 194 148-74 84 162zm6 1223.999-104-194-148 74-84-162-182 102 110 204 142-80 80 158z"/><glyph glyph-name="uni063F.init" unicode="ؿ" horiz-adv-x="556" d="m556 293-626.001.001v272h526C448.666 610.334 435.333 648.667 416 680c-10 17.333-33.333 47.333-70 90l80 238c50-56.667 84.167-116 102.5-178S556 676 556 554V293zm-16.001-175.999-110-204-142 80-80-158-186 102 104 194 148-74 84 162zM345.999 1529l-100-208-188 100 102 204zm194-237-110-204-142 80-80-158-186 102 104 194 148-74 84 162z"/><glyph glyph-name="uni063F.medi" unicode="ؿ" horiz-adv-x="556" d="m556 293-626.001.001v272h526C448.666 610.334 435.333 648.667 416 680c-10 17.333-33.333 47.333-70 90l80 238c50-56.667 84.167-116 102.5-178S556 676 556 554V293zm-16.001-175.999-110-204-142 80-80-158-186 102 104 194 148-74 84 162zM345.999 1529l-100-208-188 100 102 204zm194-237-110-204-142 80-80-158-186 102 104 194 148-74 84 162z"/><glyph glyph-name="afii57441" unicode="ف" horiz-adv-x="1552" arabic-form="isolated" d="m1474 1472-120-224-234 122 120 226zm78-1179-134.001.001c-116.667 0-249-2.667-397-8-89.333-3.333-205.333-8.333-348-15s-219.334-10-230.001-10c-142 0-244.667 25-308 75-58.667 46.667-88 119-88 217 0 76 7.333 142.333 22 199s48.667 148.334 102 275.001l66-30c-48-114-72-197.333-72-250 0-68.667 27-118 81-148 60-33.333 163.667-50 311-50 102 6 201.333 11.167 298 15.5s189.334 6.5 278.001 6.5c-27.333 13.333-46.166 28.166-56.499 44.499S1061 654.667 1061 686c0 95.333 29 190.333 87 285 62.667 102 131.667 153 207 153 70.667 0 122-49.333 154-148 28.667-89.333 43-226.333 43-411V293zm-156 399.001c-23.333 65.333-42.666 108.333-57.999 129s-35.333 31-60 31c-12.667 0-23.834-4.833-33.501-14.5s-14.5-22.167-14.5-37.5c0-20.667 14.333-40 43-58s69.667-34.667 123-50z"/><glyph glyph-name="afii57442" unicode="ق" horiz-adv-x="1254" arabic-form="isolated" d="m1212 1246-110-204-142 80-80-158-186 102 104 194 148-74 84 162zm42-980c0-131.333-7.332-218.168-21.999-260.501s-49.667-85.5-105-129.5c-120.667-94.667-291.334-142-512.001-142-185.333 0-327.666 30.333-426.999 91s-149 147.667-149 261c0 98 15.333 187 46 267 34 88 97.333 196.333 190 325l60-42c-60.667-88-103.834-162.333-129.501-223s-38.5-119.667-38.5-177C167 154.666 209 91.333 293 46s202-68 354-68c137.333 0 258.666 26.667 363.999 80s158 114 158 182c0 8.667-.167 17.667-.5 27s-2.166 20.333-5.499 33c-70-6.667-122-10-156-10-73.333 0-130.666 18.333-171.999 55s-62 88.334-62 155.001c0 98 24.667 195.667 74 293 53.333 104.667 112.666 157 177.999 157 72 0 129-51.667 171-155 38.667-94.667 58-212.334 58-353.001V266zm-181 299.998c-18 41.333-36.332 70.667-54.999 88s-41 26-67 26c-16.667 0-29.834-5.167-39.501-15.5s-14.5-23.833-14.5-40.5c0-44 28-66 84-66 20 0 34.667.5 44 1.5s25.333 3.167 48 6.5z"/><glyph glyph-name="afii57443" unicode="ك" horiz-adv-x="1108" arabic-form="isolated" d="M765 1038c0-88.667-26.168-157.834-78.501-207.501s-125.5-74.5-219.5-74.5c-26 0-46.833.667-62.5 2s-41.5 5.333-77.5 12l12 64h18c66 0 126.833 9.167 182.5 27.5s83.5 39.833 83.5 64.5c0 9.333-3.333 15.833-10 19.5s-20 6.5-40 8.5c-64 0-96 28-96 84 0 40 7.833 84.5 23.5 133.5s37.834 98.5 66.501 148.5c18.667 30.667 37.667 53.334 57 68.001s48.333 28 87 40c-1.333-26-2.333-54.333-3-85s-1-57.667-1-81c-36-10-66-24-90-42-21.333-16-32-30-32-42 0-14 22.667-24 68-30 41.333 0 70.333-8.333 87-25s25-45 25-85zm343-745-670.998.001c-144 0-247.667 24.667-311 74-56.667 44-85 112.333-85 205 0 62 9.5 122.833 28.5 182.5s51.5 130.834 97.5 213.501l60-42c-26-51.333-42.833-89.5-50.5-114.5s-11.5-51.5-11.5-79.5c0-64 23.667-107.833 71-131.5s137.666-35.5 270.999-35.5h481l-121 679-64 42c0 39.333 6 79 18 119 15.333 50.667 41.333 111 78 181l46-24c0-4-1.333-14.667-4-32 0-22 14-43.333 42-64 24.667-18.667 64-39.334 118-62.001-6-42.667-14.833-84.334-26.5-125.001s-24.834-77-39.501-109l-36 14 109-619V293z"/><glyph glyph-name="afii57444" unicode="ل" horiz-adv-x="924" arabic-form="isolated" d="M924 318c0-102.667-53.332-193.665-159.999-272.998s-228.334-119-365.001-119c-114 0-203.167 28.833-267.5 86.5S35 150.669 35 254.002c0 96.667 12 181 36 253 27.333 81.333 80.666 181 159.999 299l62-42c-52-78-89-145.667-111-203s-33-114.333-33-171c0-60.667 22.5-107.5 67.5-140.5s108.5-49.5 190.5-49.5c117.333 0 212.666 22.667 285.999 68s110 104.666 110 177.999v47c0 26-2.167 54.667-6.5 86s-15.5 96-33.5 194l-86 475-50 36c0 65.333 30.667 165.333 92 300l46-22c-2.667-9.333-4-20-4-32 0-26.667 13.667-48.334 41-65.001l115-65c-7.333-57.333-14.666-98.333-21.999-123s-22.666-61.667-45.999-111l-30 12c0-10 9.5-66.833 28.5-170.5L896 739c18.667-108 28-173.667 28-197V318z"/><glyph glyph-name="afii57445" unicode="م" horiz-adv-x="738" arabic-form="isolated" d="m738 293-130.002 1.001c-122 0-230-10.333-324-31s-141-44.334-141-71.001c26-80 49.167-155 69.5-225s30.5-136.333 30.5-199c0-45.333-4.5-82-13.5-110s-25.833-58.667-50.5-92c-7.333 88-23.666 180.333-48.999 277-8.667 34-30.334 105.667-65.001 215-21.333 67.333-32 112-32 134 0 31.333 8.667 70.333 26 117 14 38 30 71.667 48 101 21.333 33.333 58.5 59.666 111.5 78.999s133.833 35 242.5 47c-53.333 74.667-100 112-140 112-17.333 0-33.666-6.667-48.999-20s-40.333-42.666-75-87.999l-48 24c29.333 102 65.5 180.5 108.5 235.5s90.167 82.5 141.5 82.5c44.667 0 94.334-25.667 149.001-77s118-131.333 190-240V293z"/><glyph glyph-name="afii57446" unicode="ن" horiz-adv-x="1108" arabic-form="isolated" d="M779 1129 659 905l-234 122 121 226zm329-787c0-92-9.002-165.833-27.002-221.5s-47.5-100.5-88.5-134.5-101-61.833-180-83.5-160.5-32.5-244.5-32.5c-162 0-286.833 29.5-374.5 88.5S61.998 101.333 61.998 210c0 92.667 14 177.334 42 254.001 30.667 84.667 90.667 194.667 180 330l60-42c-66-112.667-109.167-194.334-129.5-245.001s-30.5-103-30.5-157c0-70 37.5-127.167 112.5-171.5s173.5-66.5 295.5-66.5c120 0 221 23 303 69s123 102.333 123 169c0 41.333-7.167 82.333-21.5 123s-45.166 105.667-92.499 195l88 270c46.667-84.667 75.334-143 86.001-175 20-58 30-131.667 30-221V342z"/><glyph glyph-name="afii57470" unicode="ه" horiz-adv-x="702" arabic-form="isolated" d="M622 668c0-40-3.168-80.502-9.501-121.502s-14.5-74.5-24.5-100.5c-18.667-50.667-64.667-95.334-138-134.001-68-36-132-54-192-54-52 0-93.333 18-124 54s-46 84-46 144c0 54.667 7.833 108.334 23.5 161.001s43.834 119 84.501 199l-36 24c11.333 30.667 26.666 67.834 45.999 111.501s36.666 80.5 51.999 110.5l98-58c42.667-26 83.334-54 122.001-84C532.666 878.666 570.333 839.833 591 803.5S622 722 622 668zm-148.001-80.002c0 12.667-23.167 38.999-69.5 78.999s-91.833 74.333-136.5 103c-42.667-67.333-64-123.333-64-168 0-21.333 8.833-39.666 26.5-54.999s38.834-23 63.501-23c33.333 0 71.666 7.833 114.999 23.5s65 29.167 65 40.5z"/><glyph glyph-name="afii57448" unicode="و" horiz-adv-x="924" arabic-form="isolated" d="M924 362c0-114.667-48.666-228-145.999-340s-193.333-168-288-168c-55.333 0-115.833 17.667-181.5 53s-166.5 105-302.5 209l42 58c72-48 131-80 177-96 38-13.333 81-20 129-20 64.667 0 128.667 18 192 54 74.667 42.667 152 111.334 232 206.001-28-4-51.333-6-70-6-66 0-118.5 21.5-157.5 64.5s-58.5 101.5-58.5 175.5c0 100 23 196.333 69 289 50 100.667 107 151 171 151 53.333 0 98.666-36.333 135.999-109S924 722.667 924 620V362zM804.001 565c-18.667 107.333-56.666 160.999-113.999 160.999-20.667 0-37.167-8.167-49.5-24.5s-18.5-34.166-18.5-53.499c0-24 13.167-43.833 39.5-59.5S722.668 565 766.001 565h38z"/><glyph glyph-name="afii57449" unicode="ى" horiz-adv-x="1320" arabic-form="isolated" d="M1177 780c0-36.667-3.672-67.001-11.005-91.001s-23-55.667-47-95c-18 47.333-33.167 78.166-45.5 92.499s-30.166 21.5-53.499 21.5c-36 0-85.5-20.5-148.5-61.5s-94.5-75.5-94.5-103.5c0-14.667 12.667-25 38-31 18-4 46-6 84-6h29.5c9.667 0 19.5.333 29.5 1 72.667 0 121-7.333 145-22 20.667-12.667 31-37.334 31-74.001 0-72-13.333-141-40-207-33.333-83.333-81.666-142.666-144.999-177.999-79.333-44.667-161.833-80.667-247.5-108s-165.5-41-239.5-41c-207.333 0-311 93-311 279 0 94 11.667 175 35 243 26 76 81 179 165 309l46-30c-49.333-83.333-86.333-157.5-111-222.5s-37-121.833-37-170.5c0-126 71-189 213-189 53.333 0 104 4.833 152 14.5s96.667 23.167 146 40.5c32 11.333 68.667 26 110 44 66 29.333 101 45 105 47 30 16 45 30.333 45 43 0 6.667-16.167 10.834-48.5 12.501s-55.166 2.5-68.499 2.5c-102.667 0-171.334 14.667-206 44-28 24-42 68.333-42 133 0 30.667 9.832 69.334 29.5 116.001s45.5 93 77.5 139c48.666 70 97.333 123 146 159s96.334 54 143.001 54c38.667 0 69.334-15 92.001-45s34-70 34-120z"/><glyph glyph-name="afii57450" unicode="ي" horiz-adv-x="1320" arabic-form="isolated" d="M1177 780c0-36.667-3.672-67.001-11.005-91.001s-23-55.667-47-95c-18 47.333-33.167 78.166-45.5 92.499s-30.166 21.5-53.499 21.5c-36 0-85.5-20.5-148.5-61.5s-94.5-75.5-94.5-103.5c0-14.667 12.667-25 38-31 18-4 46-6 84-6h29.5c9.667 0 19.5.333 29.5 1 72.667 0 121-7.333 145-22 20.667-12.667 31-37.334 31-74.001 0-72-13.333-141-40-207-33.333-83.333-81.666-142.666-144.999-177.999-79.333-44.667-161.833-80.667-247.5-108s-165.5-41-239.5-41c-207.333 0-311 93-311 279 0 94 11.667 175 35 243 26 76 81 179 165 309l46-30c-49.333-83.333-86.333-157.5-111-222.5s-37-121.833-37-170.5c0-126 71-189 213-189 53.333 0 104 4.833 152 14.5s96.667 23.167 146 40.5c32 11.333 68.667 26 110 44 66 29.333 101 45 105 47 30 16 45 30.333 45 43 0 6.667-16.167 10.834-48.5 12.501s-55.166 2.5-68.499 2.5c-102.667 0-171.334 14.667-206 44-28 24-42 68.333-42 133 0 30.667 9.832 69.334 29.5 116.001s45.5 93 77.5 139c48.666 70 97.333 123 146 159s96.334 54 143.001 54c38.667 0 69.334-15 92.001-45s34-70 34-120zM911.995-208.001l-74-136-154 78-74-132-154 82 76 138 150-78 74 128z"/><glyph glyph-name="uni066F.init" unicode="ٯ" horiz-adv-x="624" d="m624 293-694 .001v272h600c0 58-1.667 99.333-5 124-5.333 38-16.333 71-33 99-21.333-41.333-50-73-86-95s-74.333-33-115-33c-53.333 0-98.333 17.667-135 53S101 792.667 101 846c0 78.667 24 172 72 280 52.667 118.667 106 178 160 178 70 0 136-61 198-183s93-251 93-387V293zM407 966.001c-18 31.333-33.833 53.166-47.5 65.499S331 1050 315 1050c-20 0-38-9-54-27s-24-39-24-63c0-15.333 6.167-28.166 18.5-38.499s28.166-15.5 47.499-15.5c15.333 0 30.833 4.5 46.5 13.5s34.834 24.5 57.501 46.5z"/><glyph glyph-name="uni066F.medi" unicode="ٯ" horiz-adv-x="664" d="m664 293-733.999.001v272h180c30.667 0 59.667-1.333 87-4l251-27c-99.333 22-168.833 51.167-208.5 87.5s-59.5 89.166-59.5 158.499c0 103.333 23.833 196.5 71.5 279.5s101.167 124.5 160.5 124.5c67.333 0 126.166-58.167 176.499-174.5S664 752.667 664 588V293zM528.001 708.001c-24 57.333-50.668 102-80.001 134s-58.666 48-87.999 48c-13.333 0-25-4.333-35-13s-15-19-15-31c0-28.667 21.5-56.5 64.5-83.5s94.167-45.167 153.5-54.5z"/><glyph glyph-name="uni0671" unicode="ٱ" horiz-adv-x="444" arabic-form="isolated" d="M370 584c0-59.333-7-113.501-21-162.501s-41-114.833-81-197.5l-60 24c16 85.333 24 154.666 24 207.999 0 40.667-3.333 100.334-10 179.001s-15 156.5-25 233.5-26.333 168.833-49 275.5c-8 37.333-12 63-12 77 0 20.667 10.333 55.834 31 105.501s49.667 109.834 87 180.501l60-354c22-134.667 37.333-251.334 46-350.001 6.667-76 10-149 10-219zm61 1140c0-35.333-16-67.668-48-97.001-34.667-32-76-48-124-48H92c-20.667 0-31-15-31-45 0-3.333.667-9.333 2-18 .667-8 .667-14 0-18-32 32.667-48 66.334-48 101.001 0 44 25.333 66 76 66h24c78.667 106 156.667 159 234 159 54.667 0 82-33.333 82-100zm-90 1c0 25.333-10.666 38-31.999 38-36.667 0-83.334-32.667-140.001-98h82c60 0 90 20 90 60z"/><glyph glyph-name="uni0677" unicode="ٷ" horiz-adv-x="924" arabic-form="isolated" d="M924 362c0-114.667-48.666-228-145.999-340s-193.333-168-288-168c-55.333 0-115.833 17.667-181.5 53s-166.5 105-302.5 209l42 58c72-48 131-80 177-96 38-13.333 81-20 129-20 64.667 0 128.667 18 192 54 74.667 42.667 152 111.334 232 206.001-28-4-51.333-6-70-6-66 0-118.5 21.5-157.5 64.5s-58.5 101.5-58.5 175.5c0 100 23 196.333 69 289 50 100.667 107 151 171 151 53.333 0 98.666-36.333 135.999-109S924 722.667 924 620V362zM804.001 565c-18.667 107.333-56.666 160.999-113.999 160.999-20.667 0-37.167-8.167-49.5-24.5s-18.5-34.166-18.5-53.499c0-24 13.167-43.833 39.5-59.5S722.668 565 766.001 565h38zM1020 1263c-7.333-19.333-16.002-34-26.002-44-7.333-7.333-18.666-13.333-33.999-18l-216-66c13.333 24 25 40.5 35 49.5s28 17.167 54 24.5c-18.667 12-32.167 23.167-40.5 33.5s-12.5 20.5-12.5 30.5c0 8.667 2.667 18.5 8 29.5s12.333 21.833 21 32.5c43.333 58 86.333 87 129 87 12.667 0 22.834-4.167 30.501-12.5s11.5-19.166 11.5-32.499c0-10.667-1.5-19.834-4.5-27.501s-9.167-19.167-18.5-34.5c-33.333 16.667-56 25-68 25s-24-3-36-9c-8-4-15.333-9.333-22-16 0-8.667 16-22 48-40s55-27 69-27c8.667 0 32.667 5 72 15zm-341-39c0-11.333-.999-22.998-2.999-34.998l-6-36-83 50c-33.333-36.667-56-61-68-73-49.333-48-90.666-72-123.999-72h-73c35.333 16.667 76.666 43.667 123.999 81 42.667 34 75 64 97 90-20.667 12.667-36.334 26-47.001 40-13.333 17.333-20 36.333-20 57 0 44 12.833 82.833 38.5 116.5s53.5 50.5 83.5 50.5c17.333 0 33-9.333 47-28s21-41.334 21-68.001c0-12.667-1.833-25.834-5.5-39.501s-12.167-38.834-25.5-75.501a646.781 646.781 0 0 1 33-27c7.333-7.333 11-17.666 11-30.999zm-74.999 113c0 18-6.332 34.669-18.999 50.002s-25 23-37 23c-6.667 0-11.834-2.333-15.501-7s-5.5-9.334-5.5-14.001c0-14.667 8.333-30 25-46l44-34c5.333 13.333 8 22.666 8 27.999z"/><glyph glyph-name="afii57511" unicode="ٹ" horiz-adv-x="1330" arabic-form="isolated" d="m1330 293-838.999.001c-80.667 0-134.167 1.333-160.5 4s-54.833 9.667-85.5 21c-54.667 18.667-99.667 56.667-135 114s-53 121.333-53 192c0 27.333 1.333 51.833 4 73.5s8 47.167 16 76.5c11.333 43.333 24 79.666 38 108.999s38.667 69 74 119l56-40c-28.667-52.667-48.167-94.334-58.5-125.001s-15.5-61-15.5-91c0-38 12.167-72.167 36.5-102.5S263.667 593.333 303 584c23.333-6 53.833-10.667 91.5-14s77.167-5 118.5-5h723c-18.667 50.667-34 86.667-46 108-14 25.333-36.667 57.666-68 96.999l90 232c50-71.333 82.667-136.666 98-195.999 13.333-52 20-128.667 20-230V293zm-364.999 769L421 1061.997v130h64c8 0 29.333 13 64 39 14.667 10.667 31.667 24 51 40 0 67.333-6 128.333-18 183l-26 104-28 17c10 46.667 25.333 93.334 46 140.001l22-9c-1.333-4-2-8-2-12 0-11.333 15.667-24.666 47-39.999 7.333-3.333 23-9.666 47-18.999-3.333-26-8.333-49.333-15-70-3.333-9.333-9.666-26-18.999-50l-17 6c16.667-76.667 25-129 25-157v-6c0-14-1.667-29.333-5-46 26 19.333 65.667 46 119 80 26.667 14.667 47 22 61 22 85.333 0 128-41.333 128-124v-228zM899 1240c0 18.667-12 31.667-36 39-14 4.667-34.333 7-61 7-40 0-101.667-31.333-185-94h125c104.667 0 157 16 157 48z"/><glyph glyph-name="uni067A" unicode="ٺ" horiz-adv-x="1330" arabic-form="isolated" d="m1330 293-838.999.001c-80.667 0-134.167 1.333-160.5 4s-54.833 9.667-85.5 21c-54.667 18.667-99.667 56.667-135 114s-53 121.333-53 192c0 27.333 1.333 51.833 4 73.5s8 47.167 16 76.5c11.333 43.333 24 79.666 38 108.999s38.667 69 74 119l56-40c-28.667-52.667-48.167-94.334-58.5-125.001s-15.5-61-15.5-91c0-38 12.167-72.167 36.5-102.5S263.667 593.333 303 584c23.333-6 53.833-10.667 91.5-14s77.167-5 118.5-5h723c-18.667 50.667-34 86.667-46 108-14 25.333-36.667 57.666-68 96.999l90 232c50-71.333 82.667-136.666 98-195.999 13.333-52 20-128.667 20-230V293zM755.001 1473l-100-208-188 100 102 204zm-53-169 186-96-100-208-188 100z"/><glyph glyph-name="uni067B" unicode="ٻ" horiz-adv-x="1330" arabic-form="isolated" d="m1330 293-838.999.001c-80.667 0-134.167 1.333-160.5 4s-54.833 9.667-85.5 21c-54.667 18.667-99.667 56.667-135 114s-53 121.333-53 192c0 27.333 1.333 51.833 4 73.5s8 47.167 16 76.5c11.333 43.333 24 79.666 38 108.999s38.667 69 74 119l56-40c-28.667-52.667-48.167-94.334-58.5-125.001s-15.5-61-15.5-91c0-38 12.167-72.167 36.5-102.5S263.667 593.333 303 584c23.333-6 53.833-10.667 91.5-14s77.167-5 118.5-5h723c-18.667 50.667-34 86.667-46 108-14 25.333-36.667 57.666-68 96.999l90 232c50-71.333 82.667-136.666 98-195.999 13.333-52 20-128.667 20-230V293zM855.001 123.001l-100-208-188 100 102 204zm-53-169 186-96-100-208-188 100z"/><glyph glyph-name="uni067C.init" unicode="ټ" horiz-adv-x="556" d="m540 1362-110-204-142 80-80-158-186 102 104 194 148-74 84 162zm16-1069-626.001.001v272h526C448.666 610.334 435.333 648.667 416 680c-10 17.333-33.333 47.333-70 90l80 238c50-56.667 84.167-116 102.5-178S556 676 556 554V293zm-179.001-68.999c0-41.333-15.332-78.333-45.999-111s-68.334-49-113.001-49c-36 0-63 10-81 30s-27 48-27 84c0 51.333 13.333 96.833 40 136.5s59.667 59.5 99 59.5c36 0 66.333-15 91-45s37-65 37-105zm-59.999-27c0 18.667-13 39.331-39 61.998s-48 34-66 34c-17.333 0-32-7.5-44-22.5s-18-30.5-18-46.5c0-23.333 11-39.666 33-48.999 17.333-7.333 42.333-11 75-11 16.667 0 30.667 2.333 42 7s17 13.334 17 26.001z"/><glyph glyph-name="uni067C.medi" unicode="ټ" horiz-adv-x="556" d="m540 1362-110-204-142 80-80-158-186 102 104 194 148-74 84 162zm16-1069-626.001.001v272h526C448.666 610.334 435.333 648.667 416 680c-10 17.333-33.333 47.333-70 90l80 238c50-56.667 84.167-116 102.5-178S556 676 556 554V293zm-179.001-68.999c0-41.333-15.332-78.333-45.999-111s-68.334-49-113.001-49c-36 0-63 10-81 30s-27 48-27 84c0 51.333 13.333 96.833 40 136.5s59.667 59.5 99 59.5c36 0 66.333-15 91-45s37-65 37-105zm-59.999-27c0 18.667-13 39.331-39 61.998s-48 34-66 34c-17.333 0-32-7.5-44-22.5s-18-30.5-18-46.5c0-23.333 11-39.666 33-48.999 17.333-7.333 42.333-11 75-11 16.667 0 30.667 2.333 42 7s17 13.334 17 26.001z"/><glyph glyph-name="uni067D.init" unicode="ٽ" horiz-adv-x="556" d="m556 293-626.001.001v272h526C448.666 610.334 435.333 648.667 416 680c-10 17.333-33.333 47.333-70 90l80 238c50-56.667 84.167-116 102.5-178S556 676 556 554V293zm-38.001 1300-104-194-148 74-84-162-182 102 110 204 142-80 80 158zm-36-309-102-204-186 96 100 208z"/><glyph glyph-name="uni067D.medi" unicode="ٽ" horiz-adv-x="556" d="m556 293-626.001.001v272h526C448.666 610.334 435.333 648.667 416 680c-10 17.333-33.333 47.333-70 90l80 238c50-56.667 84.167-116 102.5-178S556 676 556 554V293zm-38.001 1300-104-194-148 74-84-162-182 102 110 204 142-80 80 158zm-36-309-102-204-186 96 100 208z"/><glyph glyph-name="afii57506" unicode="پ" horiz-adv-x="1330" arabic-form="isolated" d="m1330 293-838.999.001c-80.667 0-134.167 1.333-160.5 4s-54.833 9.667-85.5 21c-54.667 18.667-99.667 56.667-135 114s-53 121.333-53 192c0 27.333 1.333 51.833 4 73.5s8 47.167 16 76.5c11.333 43.333 24 79.666 38 108.999s38.667 69 74 119l56-40c-28.667-52.667-48.167-94.334-58.5-125.001s-15.5-61-15.5-91c0-38 12.167-72.167 36.5-102.5S263.667 593.333 303 584c23.333-6 53.833-10.667 91.5-14s77.167-5 118.5-5h723c-18.667 50.667-34 86.667-46 108-14 25.333-36.667 57.666-68 96.999l90 232c50-71.333 82.667-136.666 98-195.999 13.333-52 20-128.667 20-230V293zM984.001 117.001l-104-194-148 74-84-162-182 102 110 204 142-80 80 158zm-36-309-102-204-186 96 100 208z"/><glyph glyph-name="uni067F" unicode="ٿ" horiz-adv-x="1330" arabic-form="isolated" d="m1330 293-838.999.001c-80.667 0-134.167 1.333-160.5 4s-54.833 9.667-85.5 21c-54.667 18.667-99.667 56.667-135 114s-53 121.333-53 192c0 27.333 1.333 51.833 4 73.5s8 47.167 16 76.5c11.333 43.333 24 79.666 38 108.999s38.667 69 74 119l56-40c-28.667-52.667-48.167-94.334-58.5-125.001s-15.5-61-15.5-91c0-38 12.167-72.167 36.5-102.5S263.667 593.333 303 584c23.333-6 53.833-10.667 91.5-14s77.167-5 118.5-5h723c-18.667 50.667-34 86.667-46 108-14 25.333-36.667 57.666-68 96.999l90 232c50-71.333 82.667-136.666 98-195.999 13.333-52 20-128.667 20-230V293zM872.001 1501l-104-194-148 74-84-162-182 102 110 204 142-80 80 158zm-275-241 142-80 80 158 186-102-104-194-148 74-84-162-182 102z"/><glyph glyph-name="uni0680" unicode="ڀ" horiz-adv-x="1330" arabic-form="isolated" d="m1330 293-838.999.001c-80.667 0-134.167 1.333-160.5 4s-54.833 9.667-85.5 21c-54.667 18.667-99.667 56.667-135 114s-53 121.333-53 192c0 27.333 1.333 51.833 4 73.5s8 47.167 16 76.5c11.333 43.333 24 79.666 38 108.999s38.667 69 74 119l56-40c-28.667-52.667-48.167-94.334-58.5-125.001s-15.5-61-15.5-91c0-38 12.167-72.167 36.5-102.5S263.667 593.333 303 584c23.333-6 53.833-10.667 91.5-14s77.167-5 118.5-5h723c-18.667 50.667-34 86.667-46 108-14 25.333-36.667 57.666-68 96.999l90 232c50-71.333 82.667-136.666 98-195.999 13.333-52 20-128.667 20-230V293zM932.001 117.001l-104-194-148 74-84-162-182 102 110 204 142-80 80 158zm-275-241 142-80 80 158 186-102-104-194-148 74-84-162-182 102z"/><glyph glyph-name="uni0681.init" unicode="ځ" horiz-adv-x="1072" d="m1072 293-1142-.002v272h711c-80.667 83.333-155.334 143.333-224.001 180-60.667 32.667-120 49-178 49-17.333 0-33.166-.833-47.499-2.5s-35.166-5.5-62.499-11.5c36.667 84 77.5 146 122.5 186s96.167 60 153.5 60c44 0 86.333-10.667 127-32s86.334-55.666 137.001-102.999c40-37.333 96.667-95.666 170-174.999 50-56 88.167-92.333 114.5-109s65.833-30.667 118.5-42V293zm-442.002 990c-7.333-19.333-16.002-34-26.002-44-7.333-7.333-18.666-13.333-33.999-18l-216-66c13.333 24 25 40.5 35 49.5s28 17.167 54 24.5c-18.667 12-32.167 23.167-40.5 33.5s-12.5 20.5-12.5 30.5c0 8.667 2.667 18.5 8 29.5s12.333 21.833 21 32.5c43.333 58 86.333 87 129 87 12.667 0 22.834-4.167 30.501-12.5s11.5-19.166 11.5-32.499c0-10.667-1.5-19.834-4.5-27.501s-9.167-19.167-18.5-34.5c-33.333 16.667-56 25-68 25s-24-3-36-9c-8-4-15.333-9.333-22-16 0-8.667 16-22 48-40s55-27 69-27c8.667 0 32.667 5 72 15z"/><glyph glyph-name="uni0681.medi" unicode="ځ" horiz-adv-x="1072" d="m1072 293-1142-.002v272h711c-80.667 83.333-155.334 143.333-224.001 180-60.667 32.667-120 49-178 49-17.333 0-33.166-.833-47.499-2.5s-35.166-5.5-62.499-11.5c36.667 84 77.5 146 122.5 186s96.167 60 153.5 60c44 0 86.333-10.667 127-32s86.334-55.666 137.001-102.999c40-37.333 96.667-95.666 170-174.999 50-56 88.167-92.333 114.5-109s65.833-30.667 118.5-42V293zm-442.002 990c-7.333-19.333-16.002-34-26.002-44-7.333-7.333-18.666-13.333-33.999-18l-216-66c13.333 24 25 40.5 35 49.5s28 17.167 54 24.5c-18.667 12-32.167 23.167-40.5 33.5s-12.5 20.5-12.5 30.5c0 8.667 2.667 18.5 8 29.5s12.333 21.833 21 32.5c43.333 58 86.333 87 129 87 12.667 0 22.834-4.167 30.501-12.5s11.5-19.166 11.5-32.499c0-10.667-1.5-19.834-4.5-27.501s-9.167-19.167-18.5-34.5c-33.333 16.667-56 25-68 25s-24-3-36-9c-8-4-15.333-9.333-22-16 0-8.667 16-22 48-40s55-27 69-27c8.667 0 32.667 5 72 15z"/><glyph glyph-name="uni0682.init" unicode="ڂ" horiz-adv-x="1072" d="m1072 293-1142-.002v272h711c-80.667 83.333-155.334 143.333-224.001 180-60.667 32.667-120 49-178 49-17.333 0-33.166-.833-47.499-2.5s-35.166-5.5-62.499-11.5c36.667 84 77.5 146 122.5 186s96.167 60 153.5 60c44 0 86.333-10.667 127-32s86.334-55.666 137.001-102.999c40-37.333 96.667-95.666 170-174.999 50-56 88.167-92.333 114.5-109s65.833-30.667 118.5-42V293zM564.998 1607l-100-208-188 100 102 204zm-53-169 186-96-100-208-188 100z"/><glyph glyph-name="uni0682.medi" unicode="ڂ" horiz-adv-x="1072" d="m1072 293-1142-.002v272h711c-80.667 83.333-155.334 143.333-224.001 180-60.667 32.667-120 49-178 49-17.333 0-33.166-.833-47.499-2.5s-35.166-5.5-62.499-11.5c36.667 84 77.5 146 122.5 186s96.167 60 153.5 60c44 0 86.333-10.667 127-32s86.334-55.666 137.001-102.999c40-37.333 96.667-95.666 170-174.999 50-56 88.167-92.333 114.5-109s65.833-30.667 118.5-42V293zM564.998 1607l-100-208-188 100 102 204zm-53-169 186-96-100-208-188 100z"/><glyph glyph-name="uni0683" unicode="ڃ" horiz-adv-x="1182" arabic-form="isolated" d="M1152-178 765.999-416c-237.333 0-412 45.333-524 136-114.667 93.333-172 240-172 440 0 138 27.333 259.833 82 365.5S293.333 726 412 810c-79.333 0-149.333-11.667-210-35-22-8.667-72-31-150-67 32 248 150 372 354 372 30.667 0 81-3.5 151-10.5s131.667-12.167 185-15.5c101.333-6.667 201.333-10 300-10l-60-246c-255.333-32-450.166-93.5-584.499-184.5S196.001 406 196.001 264c0-133.333 55.167-235.333 165.5-306S630.667-148 838-148c5.333 0 55.666 3 150.999 9 52.667 3.333 100.334 5 143.001 5zM919.999 417l-104-194-148 74-84-162-182 102 110 204 142-80 80 158z"/><glyph glyph-name="uni0684" unicode="ڄ" horiz-adv-x="1182" arabic-form="isolated" d="M1152-178 765.999-416c-237.333 0-412 45.333-524 136-114.667 93.333-172 240-172 440 0 138 27.333 259.833 82 365.5S293.333 726 412 810c-79.333 0-149.333-11.667-210-35-22-8.667-72-31-150-67 32 248 150 372 354 372 30.667 0 81-3.5 151-10.5s131.667-12.167 185-15.5c101.333-6.667 201.333-10 300-10l-60-246c-255.333-32-450.166-93.5-584.499-184.5S196.001 406 196.001 264c0-133.333 55.167-235.333 165.5-306S630.667-148 838-148c5.333 0 55.666 3 150.999 9 52.667 3.333 100.334 5 143.001 5zM734.999 453l-100-208-188 100 102 204zm-53-169 186-96-100-208-188 100z"/><glyph glyph-name="uni0685.init" unicode="څ" horiz-adv-x="1072" d="m1072 293-1142-.002v272h711c-80.667 83.333-155.334 143.333-224.001 180-60.667 32.667-120 49-178 49-17.333 0-33.166-.833-47.499-2.5s-35.166-5.5-62.499-11.5c36.667 84 77.5 146 122.5 186s96.167 60 153.5 60c44 0 86.333-10.667 127-32s86.334-55.666 137.001-102.999c40-37.333 96.667-95.666 170-174.999 50-56 88.167-92.333 114.5-109s65.833-30.667 118.5-42V293zM565.998 1653l-100-208-188 100 102 204zm194-237-110-204-142 80-80-158-186 102 104 194 148-74 84 162z"/><glyph glyph-name="uni0685.medi" unicode="څ" horiz-adv-x="1072" d="m1072 293-1142-.002v272h711c-80.667 83.333-155.334 143.333-224.001 180-60.667 32.667-120 49-178 49-17.333 0-33.166-.833-47.499-2.5s-35.166-5.5-62.499-11.5c36.667 84 77.5 146 122.5 186s96.167 60 153.5 60c44 0 86.333-10.667 127-32s86.334-55.666 137.001-102.999c40-37.333 96.667-95.666 170-174.999 50-56 88.167-92.333 114.5-109s65.833-30.667 118.5-42V293zM565.998 1653l-100-208-188 100 102 204zm194-237-110-204-142 80-80-158-186 102 104 194 148-74 84 162z"/><glyph glyph-name="afii57507" unicode="چ" horiz-adv-x="1182" arabic-form="isolated" d="M1152-178 765.999-416c-237.333 0-412 45.333-524 136-114.667 93.333-172 240-172 440 0 138 27.333 259.833 82 365.5S293.333 726 412 810c-79.333 0-149.333-11.667-210-35-22-8.667-72-31-150-67 32 248 150 372 354 372 30.667 0 81-3.5 151-10.5s131.667-12.167 185-15.5c101.333-6.667 201.333-10 300-10l-60-246c-255.333-32-450.166-93.5-584.499-184.5S196.001 406 196.001 264c0-133.333 55.167-235.333 165.5-306S630.667-148 838-148c5.333 0 55.666 3 150.999 9 52.667 3.333 100.334 5 143.001 5zM885.999 487l-104-194-148 74-84-162-182 102 110 204 142-80 80 158zm-36-309-102-204-186 96 100 208z"/><glyph glyph-name="uni0687" unicode="ڇ" horiz-adv-x="1182" arabic-form="isolated" d="M1152-178 765.999-416c-237.333 0-412 45.333-524 136-114.667 93.333-172 240-172 440 0 138 27.333 259.833 82 365.5S293.333 726 412 810c-79.333 0-149.333-11.667-210-35-22-8.667-72-31-150-67 32 248 150 372 354 372 30.667 0 81-3.5 151-10.5s131.667-12.167 185-15.5c101.333-6.667 201.333-10 300-10l-60-246c-255.333-32-450.166-93.5-584.499-184.5S196.001 406 196.001 264c0-133.333 55.167-235.333 165.5-306S630.667-148 838-148c5.333 0 55.666 3 150.999 9 52.667 3.333 100.334 5 143.001 5zM891.999 517l-104-194-148 74-84-162-182 102 110 204 142-80 80 158zm-275-241 142-80 80 158 186-102-104-194-148 74-84-162-182 102z"/><glyph glyph-name="afii57512" unicode="ڈ" horiz-adv-x="702" arabic-form="isolated" d="m702 293-452.999-.001c-44 0-77.667 9.333-101 28-28.667 22.667-43 59.667-43 111 0 29.333 1.5 61 4.5 95s7.5 68.333 13.5 103l38 2c5.333-23.333 17.166-40.333 35.499-51s40.5-16 66.5-16h344c-15.333 64.667-42 119.667-80 165-31.333 42-75 74-131 96l72 312c86.667-51.333 148-124.666 184-219.999 33.333-80.667 50-182 50-304V293zm-78.999 879L79 1171.997v130h64c8 0 29.333 13 64 39 14.667 10.667 31.667 24 51 40 0 67.333-6 128.333-18 183l-26 104-28 17c10 46.667 25.333 93.334 46 140.001l22-9c-1.333-4-2-8-2-12 0-11.333 15.667-24.666 47-39.999 7.333-3.333 23-9.666 47-18.999-3.333-26-8.333-49.333-15-70-3.333-9.333-9.666-26-18.999-50l-17 6c16.667-76.667 25-129 25-157v-6c0-14-1.667-29.333-5-46 26 19.333 65.667 46 119 80 26.667 14.667 47 22 61 22 85.333 0 128-41.333 128-124v-228zM557 1350c0 18.667-12 31.667-36 39-14 4.667-34.333 7-61 7-40 0-101.667-31.333-185-94h125c104.667 0 157 16 157 48z"/><glyph glyph-name="uni068C" unicode="ڌ" horiz-adv-x="702" arabic-form="isolated" d="M702 293H249.001c-44 0-77.667 9.333-101 28-28.667 22.667-43 59.667-43 111 0 29.333 1.5 61 4.5 95s7.5 68.333 13.5 103l38 2c5.333-23.333 17.166-40.333 35.499-51s40.5-16 66.5-16h344c-15.333 98-42 176.333-80 235-31.333 48.667-75 90.667-131 126l72 312c86.667-64.667 148-148 184-250 33.333-94 50-218.667 50-374V293zm-81.999 1344-104-194-148 74-84-162-182 102 110 204 142-80 80 158z"/><glyph glyph-name="uni068D" unicode="ڍ" horiz-adv-x="702" arabic-form="isolated" d="M702 293H249.001c-44 0-77.667 9.333-101 28-28.667 22.667-43 59.667-43 111 0 29.333 1.5 61 4.5 95s7.5 68.333 13.5 103l38 2c5.333-23.333 17.166-40.333 35.499-51s40.5-16 66.5-16h344c-15.333 98-42 176.333-80 235-31.333 48.667-75 90.667-131 126l72 312c86.667-64.667 148-148 184-250 33.333-94 50-218.667 50-374V293zm-21.999-176-104-194-148 74-84-162-182 102 110 204 142-80 80 158z"/><glyph glyph-name="uni068E" unicode="ڎ" horiz-adv-x="702" arabic-form="isolated" d="m702 293-452.999-.001c-44 0-77.667 9.333-101 28-28.667 22.667-43 59.667-43 111 0 29.333 1.5 61 4.5 95s7.5 68.333 13.5 103l38 2c5.333-23.333 17.166-40.333 35.499-51s40.5-16 66.5-16h344c-15.333 64.667-42 119.667-80 165-31.333 42-75 74-131 96l72 312c86.667-51.333 148-124.666 184-219.999 33.333-80.667 50-182 50-304V293zM446.001 1723l-100-208-188 100 102 204zm194-237-110-204-142 80-80-158-186 102 104 194 148-74 84 162z"/><glyph glyph-name="afii57513" unicode="ڑ" horiz-adv-x="886" arabic-form="isolated" d="M886 270c0-40.667-23.333-94.499-70-161.499S714.666-16.666 651.999-65.999c-69.333-54.667-128.666-82-177.999-82-58.667 0-121.667 16.667-189 50-58.667 28.667-150.334 86-275.001 172l42 62c60-40 108.333-67 145-81s76.334-21 119.001-21c46 0 92 13 138 39s108.667 74.333 188 145c110.667 98.667 166 174.667 166 228 0 26.667-10.667 61.667-32 105-24 49.333-53.333 90.333-88 123l56 270C789.333 897.334 824.333 843.667 849 783s37-129.667 37-207V270zm-34 792-544.001-.003v130h64c8 0 29.333 13 64 39 14.667 10.667 31.667 24 51 40 0 67.333-6 128.333-18 183l-26 104-28 17c10 46.667 25.333 93.334 46 140.001l22-9c-1.333-4-2-8-2-12 0-11.333 15.667-24.666 47-39.999 7.333-3.333 23-9.666 47-18.999-3.333-26-8.333-49.333-15-70-3.333-9.333-9.666-26-18.999-50l-17 6c16.667-76.667 25-129 25-157v-6c0-14-1.667-29.333-5-46 26 19.333 65.667 46 119 80 26.667 14.667 47 22 61 22 85.333 0 128-41.333 128-124v-228zm-66.001 178c0 18.667-12 31.667-36 39-14 4.667-34.333 7-61 7-40 0-101.667-31.333-185-94h125c104.667 0 157 16 157 48z"/><glyph glyph-name="afii57508" unicode="ژ" horiz-adv-x="886" arabic-form="isolated" d="M886 270c0-40.667-23.333-94.499-70-161.499S714.666-16.666 651.999-65.999c-69.333-54.667-128.666-82-177.999-82-58.667 0-121.667 16.667-189 50-58.667 28.667-150.334 86-275.001 172l42 62c60-40 108.333-67 145-81s76.334-21 119.001-21c46 0 92 13 138 39s108.667 74.333 188 145c110.667 98.667 166 174.667 166 228 0 26.667-10.667 61.667-32 105-24 49.333-53.333 90.333-88 123l56 270C789.333 897.334 824.333 843.667 849 783s37-129.667 37-207V270zM721 1569l-100-208-188 100 102 204zm194-237-110-204-142 80-80-158-186 102 104 194 148-74 84 162z"/><glyph glyph-name="uni069A.init" unicode="ښ" horiz-adv-x="1246" d="M1246 293c-74.667 0-136.668 5.336-186.001 16.003s-98 27.667-146 51c-38.667-27.333-73.167-45.333-103.5-54s-75.833-13-136.5-13h-163c-44.667 0-80 11.667-106 35s-49.333 62-70 116c-36.667-56-77.667-96-123-120-38.667-20.667-85-31-139-31h-143v272h143c70 0 128.333 19.667 175 59 60.667 51.333 91 129.333 91 234l66-10c-1.333-21.333-2.666-45.666-3.999-73s-2-57.665-2-90.998c0-34 11.667-62.333 35-85s50-34 80-34h123c81.333 0 139.333 11.333 174 34 42 27.333 63 78.333 63 153 0 16 5 30.333 15 43 6 7.333 18.333 18.333 37 33l38 30c1.333-12.667 2.333-29.834 3-51.501s1-35.834 1-42.501c0-36.667-5.333-85.334-16-146.001 24.667-12 52.334-22.333 83.001-31s63-15.334 97-20.001c0 22.667-8.333 52-25 88s-25 60.333-25 73c0 17.333 2.333 30.666 7 39.999 1.333 3.333 8.666 13.666 21.999 30.999l85 115c18-42 30.833-80.167 38.5-114.5s11.5-77.166 11.5-128.5V293zm-391.001 882-120-224-234 122 121 226zM1055 95.003l-120-224-234 122 121 226z"/><glyph glyph-name="uni069A.medi" unicode="ښ" horiz-adv-x="1246" d="M1246 293c-74.667 0-136.668 5.336-186.001 16.003s-98 27.667-146 51c-38.667-27.333-73.167-45.333-103.5-54s-75.833-13-136.5-13h-163c-44.667 0-80 11.667-106 35s-49.333 62-70 116c-36.667-56-77.667-96-123-120-38.667-20.667-85-31-139-31h-143v272h143c70 0 128.333 19.667 175 59 60.667 51.333 91 129.333 91 234l66-10c-1.333-21.333-2.666-45.666-3.999-73s-2-57.665-2-90.998c0-34 11.667-62.333 35-85s50-34 80-34h123c81.333 0 139.333 11.333 174 34 42 27.333 63 78.333 63 153 0 16 5 30.333 15 43 6 7.333 18.333 18.333 37 33l38 30c1.333-12.667 2.333-29.834 3-51.501s1-35.834 1-42.501c0-36.667-5.333-85.334-16-146.001 24.667-12 52.334-22.333 83.001-31s63-15.334 97-20.001c0 22.667-8.333 52-25 88s-25 60.333-25 73c0 17.333 2.333 30.666 7 39.999 1.333 3.333 8.666 13.666 21.999 30.999l85 115c18-42 30.833-80.167 38.5-114.5s11.5-77.166 11.5-128.5V293zm-391.001 882-120-224-234 122 121 226zM1055 95.003l-120-224-234 122 121 226z"/><glyph glyph-name="uni069B.init" unicode="ڛ" horiz-adv-x="1246" d="M1246 293c-74.667 0-136.668 5.336-186.001 16.003s-98 27.667-146 51c-38.667-27.333-73.167-45.333-103.5-54s-75.833-13-136.5-13h-163c-44.667 0-80 11.667-106 35s-49.333 62-70 116c-36.667-56-77.667-96-123-120-38.667-20.667-85-31-139-31h-143v272h143c70 0 128.333 19.667 175 59 60.667 51.333 91 129.333 91 234l66-10c-1.333-21.333-2.666-45.666-3.999-73s-2-57.665-2-90.998c0-34 11.667-62.333 35-85s50-34 80-34h123c81.333 0 139.333 11.333 174 34 42 27.333 63 78.333 63 153 0 16 5 30.333 15 43 6 7.333 18.333 18.333 37 33l38 30c1.333-12.667 2.333-29.834 3-51.501s1-35.834 1-42.501c0-36.667-5.333-85.334-16-146.001 24.667-12 52.334-22.333 83.001-31s63-15.334 97-20.001c0 22.667-8.333 52-25 88s-25 60.333-25 73c0 17.333 2.333 30.666 7 39.999 1.333 3.333 8.666 13.666 21.999 30.999l85 115c18-42 30.833-80.167 38.5-114.5s11.5-77.166 11.5-128.5V293zm-111-175.997-104-194-148 74-84-162-182 102 110 204 142-80 80 158zm-36-309-102-204-186 96 100 208z"/><glyph glyph-name="uni069B.medi" unicode="ڛ" horiz-adv-x="1246" d="M1246 293c-74.667 0-136.668 5.336-186.001 16.003s-98 27.667-146 51c-38.667-27.333-73.167-45.333-103.5-54s-75.833-13-136.5-13h-163c-44.667 0-80 11.667-106 35s-49.333 62-70 116c-36.667-56-77.667-96-123-120-38.667-20.667-85-31-139-31h-143v272h143c70 0 128.333 19.667 175 59 60.667 51.333 91 129.333 91 234l66-10c-1.333-21.333-2.666-45.666-3.999-73s-2-57.665-2-90.998c0-34 11.667-62.333 35-85s50-34 80-34h123c81.333 0 139.333 11.333 174 34 42 27.333 63 78.333 63 153 0 16 5 30.333 15 43 6 7.333 18.333 18.333 37 33l38 30c1.333-12.667 2.333-29.834 3-51.501s1-35.834 1-42.501c0-36.667-5.333-85.334-16-146.001 24.667-12 52.334-22.333 83.001-31s63-15.334 97-20.001c0 22.667-8.333 52-25 88s-25 60.333-25 73c0 17.333 2.333 30.666 7 39.999 1.333 3.333 8.666 13.666 21.999 30.999l85 115c18-42 30.833-80.167 38.5-114.5s11.5-77.166 11.5-128.5V293zm-111-175.997-104-194-148 74-84-162-182 102 110 204 142-80 80 158zm-36-309-102-204-186 96 100 208z"/><glyph glyph-name="uni069C.init" unicode="ڜ" horiz-adv-x="1246" d="m936 1489-100-208-188 100 102 204zm194-237-110-204-142 80-87-158-179 102 104 194 148-74 84 162zm116-959c-74.667 0-136.668 5.336-186.001 16.003s-98 27.667-146 51c-38.667-27.333-73.167-45.333-103.5-54s-75.833-13-136.5-13h-163c-44.667 0-80 11.667-106 35s-49.333 62-70 116c-36.667-56-77.667-96-123-120-38.667-20.667-85-31-139-31h-143v272h143c70 0 128.333 19.667 175 59 60.667 51.333 91 129.333 91 234l66-10c-1.333-21.333-2.666-45.666-3.999-73s-2-57.665-2-90.998c0-34 11.667-62.333 35-85s50-34 80-34h123c81.333 0 139.333 11.333 174 34 42 27.333 63 78.333 63 153 0 16 5 30.333 15 43 6 7.333 18.333 18.333 37 33l38 30c1.333-12.667 2.333-29.834 3-51.501s1-35.834 1-42.501c0-36.667-5.333-85.334-16-146.001 24.667-12 52.334-22.333 83.001-31s63-15.334 97-20.001c0 22.667-8.333 52-25 88s-25 60.333-25 73c0 17.333 2.333 30.666 7 39.999 1.333 3.333 8.666 13.666 21.999 30.999l85 115c18-42 30.833-80.167 38.5-114.5s11.5-77.166 11.5-128.5V293zm-111-175.997-104-194-148 74-84-162-182 102 110 204 142-80 80 158zm-36-309-102-204-186 96 100 208z"/><glyph glyph-name="uni069C.medi" unicode="ڜ" horiz-adv-x="1246" d="m936 1489-100-208-188 100 102 204zm194-237-110-204-142 80-87-158-179 102 104 194 148-74 84 162zm116-959c-74.667 0-136.668 5.336-186.001 16.003s-98 27.667-146 51c-38.667-27.333-73.167-45.333-103.5-54s-75.833-13-136.5-13h-163c-44.667 0-80 11.667-106 35s-49.333 62-70 116c-36.667-56-77.667-96-123-120-38.667-20.667-85-31-139-31h-143v272h143c70 0 128.333 19.667 175 59 60.667 51.333 91 129.333 91 234l66-10c-1.333-21.333-2.666-45.666-3.999-73s-2-57.665-2-90.998c0-34 11.667-62.333 35-85s50-34 80-34h123c81.333 0 139.333 11.333 174 34 42 27.333 63 78.333 63 153 0 16 5 30.333 15 43 6 7.333 18.333 18.333 37 33l38 30c1.333-12.667 2.333-29.834 3-51.501s1-35.834 1-42.501c0-36.667-5.333-85.334-16-146.001 24.667-12 52.334-22.333 83.001-31s63-15.334 97-20.001c0 22.667-8.333 52-25 88s-25 60.333-25 73c0 17.333 2.333 30.666 7 39.999 1.333 3.333 8.666 13.666 21.999 30.999l85 115c18-42 30.833-80.167 38.5-114.5s11.5-77.166 11.5-128.5V293zm-111-175.997-104-194-148 74-84-162-182 102 110 204 142-80 80 158zm-36-309-102-204-186 96 100 208z"/><glyph glyph-name="uni069D.init" unicode="ڝ" horiz-adv-x="1580" d="m1580 293-1059-.002c-47.333 0-85.166 11.833-113.499 35.5s-52.5 62.167-72.5 115.5C292.334 384.665 251.667 344.332 213 322.999c-35.333-19.333-82-29-140-29l-143-1v272l143 1c77.333 0 136 19.333 176 58 46.667 45.333 76.667 123.333 90 234l68-10c-2-24-3.333-43.333-4-58-2.667-44-4-79.333-4-106 0-38 10-67.333 30-88s46.333-31 79-31 62.834 6.667 90.501 20 71.167 41 130.5 83l358 256c42 30 73.667 51.333 95 64 48.667 29.333 95.667 44 141 44 74.667 0 134.334-26.333 179.001-79 52-61.333 78-153.666 78-276.999V293zm-140 373.998c0 30-23.667 54.332-71 72.999-39.333 15.333-83.333 23-132 23-44 0-93.5-14.167-148.5-42.5S953.667 640.331 849 564.998h262c219.333 0 329 34 329 102zm-150-550.001-104-194-148 74-84-162-182 102 110 204 142-80 80 158z"/><glyph glyph-name="uni069D.medi" unicode="ڝ" horiz-adv-x="1580" d="m1580 293-1059-.002c-47.333 0-85.166 11.833-113.499 35.5s-52.5 62.167-72.5 115.5C292.334 384.665 251.667 344.332 213 322.999c-35.333-19.333-82-29-140-29l-143-1v272l143 1c77.333 0 136 19.333 176 58 46.667 45.333 76.667 123.333 90 234l68-10c-2-24-3.333-43.333-4-58-2.667-44-4-79.333-4-106 0-38 10-67.333 30-88s46.333-31 79-31 62.834 6.667 90.501 20 71.167 41 130.5 83l358 256c42 30 73.667 51.333 95 64 48.667 29.333 95.667 44 141 44 74.667 0 134.334-26.333 179.001-79 52-61.333 78-153.666 78-276.999V293zm-140 373.998c0 30-23.667 54.332-71 72.999-39.333 15.333-83.333 23-132 23-44 0-93.5-14.167-148.5-42.5S953.667 640.331 849 564.998h262c219.333 0 329 34 329 102zm-150-550.001-104-194-148 74-84-162-182 102 110 204 142-80 80 158z"/><glyph glyph-name="uni069E.init" unicode="ڞ" horiz-adv-x="1580" d="m1580 293-1059-.002c-47.333 0-85.166 11.833-113.499 35.5s-52.5 62.167-72.5 115.5C292.334 384.665 251.667 344.332 213 322.999c-35.333-19.333-82-29-140-29l-143-1v272l143 1c77.333 0 136 19.333 176 58 46.667 45.333 76.667 123.333 90 234l68-10c-2-24-3.333-43.333-4-58-2.667-44-4-79.333-4-106 0-38 10-67.333 30-88s46.333-31 79-31 62.834 6.667 90.501 20 71.167 41 130.5 83l358 256c42 30 73.667 51.333 95 64 48.667 29.333 95.667 44 141 44 74.667 0 134.334-26.333 179.001-79 52-61.333 78-153.666 78-276.999V293zm-140 373.998c0 30-23.667 54.332-71 72.999-39.333 15.333-83.333 23-132 23-44 0-93.5-14.167-148.5-42.5S953.667 640.331 849 564.998h262c219.333 0 329 34 329 102zM949.998 1584l-100-208-188 100 102 204zM1144 1347l-110-204-142 80-80-158-186 102 104 194 148-74 84 162z"/><glyph glyph-name="uni069E.medi" unicode="ڞ" horiz-adv-x="1580" d="m1580 293-1059-.002c-47.333 0-85.166 11.833-113.499 35.5s-52.5 62.167-72.5 115.5C292.334 384.665 251.667 344.332 213 322.999c-35.333-19.333-82-29-140-29l-143-1v272l143 1c77.333 0 136 19.333 176 58 46.667 45.333 76.667 123.333 90 234l68-10c-2-24-3.333-43.333-4-58-2.667-44-4-79.333-4-106 0-38 10-67.333 30-88s46.333-31 79-31 62.834 6.667 90.501 20 71.167 41 130.5 83l358 256c42 30 73.667 51.333 95 64 48.667 29.333 95.667 44 141 44 74.667 0 134.334-26.333 179.001-79 52-61.333 78-153.666 78-276.999V293zm-140 373.998c0 30-23.667 54.332-71 72.999-39.333 15.333-83.333 23-132 23-44 0-93.5-14.167-148.5-42.5S953.667 640.331 849 564.998h262c219.333 0 329 34 329 102zM949.998 1584l-100-208-188 100 102 204zM1144 1347l-110-204-142 80-80-158-186 102 104 194 148-74 84 162z"/><glyph glyph-name="uni06A0.init" unicode="ڠ" horiz-adv-x="1108" d="M990 770 878 486.001c-179.333-55.333-327.666-98-444.999-128-102-26-188-44-258-54-51.333-7.333-103-11-155-11h-90v272h108c19.333 0 33.666.333 42.999 1 20 2.667 39.667 4.667 59 6-33.333 50-55.666 90.5-66.999 121.5s-17 65.833-17 104.5c0 99.333 41.167 186.166 123.5 260.499s178.5 111.5 288.5 111.5c74 0 144.667-24.333 212-73 62-45.333 107.333-100.333 136-165l-42-36c-52.667 20-94.5 33-125.5 39s-69.167 9-114.5 9c-82.667 0-154.334-6.667-215.001-20-76.667-16.667-115-40.667-115-72 0-46 92.667-122 278-228zm-524 959-100-208-188 100 102 204zm194-237-110-204-142 80-80-158-186 102 104 194 148-74 84 162z"/><glyph glyph-name="uni06A0.medi" unicode="ڠ" horiz-adv-x="738" d="M738 293H589.999c-52.667 0-99 10.667-139 32s-72.333 55.666-97 102.999c-43.333-53.333-99.666-91-168.999-113-46-14.667-96-22-150-22H-70v272H35c55.333 0 94.166 2.833 116.499 8.5s52.5 18.5 90.5 38.5c-20 39.333-37.333 67.666-52 84.999-18 20.667-36.667 31-56 31-7.333 0-14.166-2.5-20.499-7.5s-13.5-14.5-21.5-28.5l-44 6c0 120.667 20.833 206.834 62.5 258.501s107.5 77.5 197.5 77.5c92.667 0 165.5-18.167 218.5-54.5S606 893.333 606 830c0-34-7-66.5-21-97.5s-40.333-73.167-79-126.5c9.333-12.667 22-22.667 38-30s31.333-11 46-11h148V293zM375.999 1649l-100-208-188 100 102 204zm194-237-110-204-142 80-80-158-186 102 104 194 148-74 84 162z"/><glyph glyph-name="uni06A2.init" unicode="ڢ" horiz-adv-x="624" d="m624 293-694 .001v272h600c0 58-1.667 99.333-5 124-5.333 38-16.333 71-33 99-21.333-41.333-50-73-86-95s-74.333-33-115-33c-53.333 0-98.333 17.667-135 53S101 792.667 101 846c0 78.667 24 172 72 280 52.667 118.667 106 178 160 178 70 0 136-61 198-183s93-251 93-387V293zM407 966.001c-18 31.333-33.833 53.166-47.5 65.499S331 1050 315 1050c-20 0-38-9-54-27s-24-39-24-63c0-15.333 6.167-28.166 18.5-38.499s28.166-15.5 47.499-15.5c15.333 0 30.833 4.5 46.5 13.5s34.834 24.5 57.501 46.5zm108-871-120-224-234 122 121 226z"/><glyph glyph-name="uni06A2.medi" unicode="ڢ" horiz-adv-x="664" d="m664 293-733.999.001v272h180c30.667 0 59.667-1.333 87-4l251-27c-99.333 22-168.833 51.167-208.5 87.5s-59.5 89.166-59.5 158.499c0 103.333 23.833 196.5 71.5 279.5s101.167 124.5 160.5 124.5c67.333 0 126.166-58.167 176.499-174.5S664 752.667 664 588V293zM528.001 708.001c-24 57.333-50.668 102-80.001 134s-58.666 48-87.999 48c-13.333 0-25-4.333-35-13s-15-19-15-31c0-28.667 21.5-56.5 64.5-83.5s94.167-45.167 153.5-54.5zM515 95.001l-120-224-234 122 121 226z"/><glyph glyph-name="uni06A3.init" unicode="ڣ" horiz-adv-x="624" d="m624 293-694 .001v272h600c0 58-1.667 99.333-5 124-5.333 38-16.333 71-33 99-21.333-41.333-50-73-86-95s-74.333-33-115-33c-53.333 0-98.333 17.667-135 53S101 792.667 101 846c0 78.667 24 172 72 280 52.667 118.667 106 178 160 178 70 0 136-61 198-183s93-251 93-387V293zM407 966.001c-18 31.333-33.833 53.166-47.5 65.499S331 1050 315 1050c-20 0-38-9-54-27s-24-39-24-63c0-15.333 6.167-28.166 18.5-38.499s28.166-15.5 47.499-15.5c15.333 0 30.833 4.5 46.5 13.5s34.834 24.5 57.501 46.5zm108-871-120-224-234 122 121 226zM479 1616l-120-224-234 122 121 226z"/><glyph glyph-name="uni06A3.medi" unicode="ڣ" horiz-adv-x="664" d="m664 293-733.999.001v272h180c30.667 0 59.667-1.333 87-4l251-27c-99.333 22-168.833 51.167-208.5 87.5s-59.5 89.166-59.5 158.499c0 103.333 23.833 196.5 71.5 279.5s101.167 124.5 160.5 124.5c67.333 0 126.166-58.167 176.499-174.5S664 752.667 664 588V293zM528.001 708.001c-24 57.333-50.668 102-80.001 134s-58.666 48-87.999 48c-13.333 0-25-4.333-35-13s-15-19-15-31c0-28.667 21.5-56.5 64.5-83.5s94.167-45.167 153.5-54.5zM515 95.001l-120-224-234 122 121 226zM566 1482l-120-224-234 122 121 226z"/><glyph glyph-name="afii57505" unicode="ڤ" horiz-adv-x="1552" arabic-form="isolated" d="m1552 293-134.001.001c-116.667 0-249-2.667-397-8-89.333-3.333-205.333-8.333-348-15s-219.334-10-230.001-10c-142 0-244.667 25-308 75-58.667 46.667-88 119-88 217 0 76 7.333 142.333 22 199s48.667 148.334 102 275.001l66-30c-48-114-72-197.333-72-250 0-68.667 27-118 81-148 60-33.333 163.667-50 311-50 102 6 201.333 11.167 298 15.5s189.334 6.5 278.001 6.5c-27.333 13.333-46.166 28.166-56.499 44.499S1061 654.667 1061 686c0 95.333 29 190.333 87 285 62.667 102 131.667 153 207 153 70.667 0 122-49.333 154-148 28.667-89.333 43-226.333 43-411V293zm-156 399.001c-23.333 65.333-42.666 108.333-57.999 129s-35.333 31-60 31c-12.667 0-23.834-4.833-33.501-14.5s-14.5-22.167-14.5-37.5c0-20.667 14.333-40 43-58s69.667-34.667 123-50zM1306 1689l-100-208-188 100 102 204zm194-237-110-204-142 80-80-158-186 102 104 194 148-74 84 162z"/><glyph glyph-name="uni06A5.init" unicode="ڥ" horiz-adv-x="624" d="m624 293-694 .001v272h600c0 58-1.667 99.333-5 124-5.333 38-16.333 71-33 99-21.333-41.333-50-73-86-95s-74.333-33-115-33c-53.333 0-98.333 17.667-135 53S101 792.667 101 846c0 78.667 24 172 72 280 52.667 118.667 106 178 160 178 70 0 136-61 198-183s93-251 93-387V293zM407 966.001c-18 31.333-33.833 53.166-47.5 65.499S331 1050 315 1050c-20 0-38-9-54-27s-24-39-24-63c0-15.333 6.167-28.166 18.5-38.499s28.166-15.5 47.499-15.5c15.333 0 30.833 4.5 46.5 13.5s34.834 24.5 57.501 46.5zm168-849-104-194-148 74-84-162-182 102 110 204 142-80 80 158zm-36-309-102-204-186 96 100 208z"/><glyph glyph-name="uni06A5.medi" unicode="ڥ" horiz-adv-x="664" d="m664 293-733.999.001v272h180c30.667 0 59.667-1.333 87-4l251-27c-99.333 22-168.833 51.167-208.5 87.5s-59.5 89.166-59.5 158.499c0 103.333 23.833 196.5 71.5 279.5s101.167 124.5 160.5 124.5c67.333 0 126.166-58.167 176.499-174.5S664 752.667 664 588V293zM528.001 708.001c-24 57.333-50.668 102-80.001 134s-58.666 48-87.999 48c-13.333 0-25-4.333-35-13s-15-19-15-31c0-28.667 21.5-56.5 64.5-83.5s94.167-45.167 153.5-54.5zm62.999-591-104-194-148 74-84-162-182 102 110 204 142-80 80 158zm-36-309-102-204-186 96 100 208z"/><glyph glyph-name="uni06A6" unicode="ڦ" horiz-adv-x="1552" arabic-form="isolated" d="m1552 293-134.001.001c-116.667 0-249-2.667-397-8-89.333-3.333-205.333-8.333-348-15s-219.334-10-230.001-10c-142 0-244.667 25-308 75-58.667 46.667-88 119-88 217 0 76 7.333 142.333 22 199s48.667 148.334 102 275.001l66-30c-48-114-72-197.333-72-250 0-68.667 27-118 81-148 60-33.333 163.667-50 311-50 102 6 201.333 11.167 298 15.5s189.334 6.5 278.001 6.5c-27.333 13.333-46.166 28.166-56.499 44.499S1061 654.667 1061 686c0 95.333 29 190.333 87 285 62.667 102 131.667 153 207 153 70.667 0 122-49.333 154-148 28.667-89.333 43-226.333 43-411V293zm-156 399.001c-23.333 65.333-42.666 108.333-57.999 129s-35.333 31-60 31c-12.667 0-23.834-4.833-33.501-14.5s-14.5-22.167-14.5-37.5c0-20.667 14.333-40 43-58s69.667-34.667 123-50zM1372 1707l-104-194-148 74-84-162-182 102 110 204 142-80 80 158zm-275-241 142-80 80 158 186-102-104-194-148 74-84-162-182 102z"/><glyph glyph-name="uni06A9" unicode="ک" horiz-adv-x="1550" arabic-form="isolated" d="M437 293c-144 0-247.666 24.667-310.999 74-56.667 44-85 112.333-85 205 0 62 9.5 122.833 28.5 182.5s51.5 130.834 97.5 213.501l60-42c-26-51.333-42.833-89.5-50.5-114.5s-11.5-51.5-11.5-79.5c0-64 23.667-107.833 71-131.5s137.666-35.5 270.999-35.5h884c-26 31.333-51.333 58.666-76 81.999-20 18.667-47 41.334-81 68.001l-113 88-32-36c-59.333 58.667-94.666 94.334-105.999 107.001-33.333 38-50 81.667-50 131 0 67.333 4.667 114.666 14 141.999 13.333 38.667 41.666 73 84.999 103 38.667 26.667 80 51 124 73 34.667 17.333 80.667 37.666 138 60.999l169 66v-238c-3.333 0-31.333-8.667-84-26-65.333-21.333-117.333-40-156-56-56-22.667-84-39.667-84-51 0-6 23.667-32 71-78 64.667-62.667 119-120 163-172 72.667-86 131.667-171.667 177-257V293H437z"/><glyph glyph-name="uni06AA.init" unicode="ڪ" horiz-adv-x="1856" d="M1786 803c0-181.333-73-304.334-219-369.001-102-45.333-311.667-81.666-629-108.999-247.333-21.333-466.666-32-657.999-32h-350v272h369c487.333 0 884.666 31 1192 93 89.333 18 134 46.667 134 86 0 24.667-23.333 37-70 37-53.333 0-228-10.667-524-32-425.333-30.667-703.666-46-834.999-46-38 0-68.667 10.333-92 31-20.667 18.667-31 40.334-31 65.001 0 44 8 97 24 159 17.333 69.333 37.666 116.666 60.999 141.999 99.333 108 263 203.667 491 287v-203c-118.667-38.667-221.334-82.667-308.001-132-68.667-39.333-103-73-103-101 0-22 33-33 99-33 119.333 0 341.333 12 666 36 306.667 22.667 517.667 34 633 34 50.667 0 89.334-19.333 116.001-58 22.667-32.667 34-75 34-127z"/><glyph glyph-name="uni06AA.medi" unicode="ڪ" horiz-adv-x="1856" d="m1856 293-74.998-.001c-100.667 0-158.334 54-173.001 162-12.667-7.333-26.334-14.333-41.001-21-102-45.333-311.667-81.666-629-108.999-247.333-21.333-466.666-32-657.999-32h-350v272h369c487.333 0 884.666 31 1192 93 89.333 18 134 46.667 134 86 0 24.667-23.333 37-70 37-53.333 0-228-10.667-524-32-425.333-30.667-703.666-46-834.999-46-38 0-68.667 10.667-92 32-20.667 18-31 39.333-31 64 0 44 8 97 24 159 17.333 69.333 37.666 116.666 60.999 141.999 99.333 108 263 203.667 491 287v-203c-118.667-38.667-221.334-82.667-308.001-132-68.667-39.333-103-73-103-101 0-22 33-33 99-33 119.333 0 341.333 12 666 36 306.667 22.667 517.667 34 633 34 50.667 0 89.334-19.333 116.001-58 22.667-32.667 34-75 34-127 0-89.333-19-165.666-57-228.999 14-6 31.333-9 52-9h75V293z"/><glyph glyph-name="uni06AB.init" unicode="ګ" horiz-adv-x="738" d="m738 293-808 .001v272h649c-26 31.333-51.333 58.666-76 81.999-20 18.667-47 41.334-81 68.001l-113 88-32-36c-59.333 58.667-94.666 94.334-105.999 107.001-33.333 38-50 81.667-50 131 0 67.333 4.667 114.666 14 141.999 13.333 38.667 41.666 73 84.999 103 38.667 26.667 80 51 124 73 34.667 17.333 80.667 37.666 138 60.999l169 66v-238c-3.333 0-31.333-8.667-84-26-65.333-21.333-117.333-40-156-56-56-22.667-84-39.667-84-51 0-6 23.667-32 71-78 64.667-62.667 119-120 163-172 72.667-86 131.667-171.667 177-257V293zm-21 815c0-41.333-15.332-78.333-45.999-111S602.667 948 558 948c-36 0-63 10-81 30s-27 48-27 84c0 51.333 13.333 96.833 40 136.5s59.667 59.5 99 59.5c36 0 66.333-15 91-45s37-65 37-105zm-59.999-27c0 18.667-13 39.331-39 61.998s-48 34-66 34c-17.333 0-32-7.5-44-22.5s-18-30.5-18-46.5c0-23.333 11-39.666 33-48.999 17.333-7.333 42.333-11 75-11 16.667 0 30.667 2.333 42 7s17 13.334 17 26.001z"/><glyph glyph-name="uni06AB.medi" unicode="ګ" horiz-adv-x="1110" d="m-70 293 .002 271.999h170c72 0 126.333 1.667 163 5 57.333 5.333 101.333 15.666 132 30.999 36 18 54 44.667 54 80 0 18-11.333 40.333-34 67s-47.667 47.334-75 62.001l-35-35c-51.333 48.667-83.333 80-96 94-37.333 42-56 87.333-56 136 0 67.333 4.667 114.666 14 141.999 13.333 38.667 41.666 73 84.999 103 36.667 25.333 86 52 148 80 50 22.667 110.667 47.667 182 75l193 73v-238l-107-33c-82-26-149-49-201-69-72-28-108-47.667-108-59-.667-10-1-17-1-21 0-15.333 7-31 21-47 18.667-21.333 57.667-55.333 117-102 43.333-34.667 104-89 182-163 66-63.333 115.333-106.333 148-129 49.333-34.667 96-52 140-52h144v-272h-136c-50 0-105.667 21.667-167 65-50 35.333-101.333 82-154 140-28 30.667-64.667 75.334-110 134.001 0-111.333-36.667-194.666-110-249.999C354.334 322.667 228.667 293 56 293H-70zm857.002 825c0-41.333-15.332-78.333-45.999-111s-68.334-49-113.001-49c-36 0-63 10-81 30s-27 48-27 84c0 51.333 13.333 96.833 40 136.5s59.667 59.5 99 59.5c36 0 66.333-15 91-45s37-65 37-105zm-59.999-27c0 18.667-13 39.331-39 61.998s-48 34-66 34c-17.333 0-32-7.5-44-22.5s-18-30.5-18-46.5c0-23.333 11-39.666 33-48.999 17.333-7.333 42.333-11 75-11 16.667 0 30.667 2.333 42 7s17 13.334 17 26.001z"/><glyph glyph-name="uni06AC.init" unicode="ڬ" horiz-adv-x="738" d="m738 293-808 .001v272h649c-26 31.333-51.333 58.666-76 81.999-20 18.667-47 41.334-81 68.001l-113 88-32-36c-59.333 58.667-94.666 94.334-105.999 107.001-33.333 38-50 81.667-50 131 0 67.333 4.667 114.666 14 141.999 13.333 38.667 41.666 73 84.999 103 38.667 26.667 80 51 124 73 34.667 17.333 80.667 37.666 138 60.999l169 66v-238c-3.333 0-31.333-8.667-84-26-65.333-21.333-117.333-40-156-56-56-22.667-84-39.667-84-51 0-6 23.667-32 71-78 64.667-62.667 119-120 163-172 72.667-86 131.667-171.667 177-257V293zM495 1675l-120-224-234 122 121 226z"/><glyph glyph-name="uni06AC.medi" unicode="ڬ" horiz-adv-x="738" d="m738 293-808 .001v272h649c-26 31.333-51.333 58.666-76 81.999-20 18.667-47 41.334-81 68.001l-113 88-32-36c-59.333 58.667-94.666 94.334-105.999 107.001-33.333 38-50 81.667-50 131 0 67.333 4.667 114.666 14 141.999 13.333 38.667 41.666 73 84.999 103 38.667 26.667 80 51 124 73 34.667 17.333 80.667 37.666 138 60.999l169 66v-238c-3.333 0-31.333-8.667-84-26-65.333-21.333-117.333-40-156-56-56-22.667-84-39.667-84-51 0-6 23.667-32 71-78 64.667-62.667 119-120 163-172 72.667-86 131.667-171.667 177-257V293zM495 1675l-120-224-234 122 121 226z"/><glyph glyph-name="uni06AD" unicode="ڭ" horiz-adv-x="1108" arabic-form="isolated" d="M765 1038c0-88.667-26.168-157.834-78.501-207.501s-125.5-74.5-219.5-74.5c-26 0-46.833.667-62.5 2s-41.5 5.333-77.5 12l12 64h18c66 0 126.833 9.167 182.5 27.5s83.5 39.833 83.5 64.5c0 9.333-3.333 15.833-10 19.5s-20 6.5-40 8.5c-64 0-96 28-96 84 0 40 7.833 84.5 23.5 133.5s37.834 98.5 66.501 148.5c18.667 30.667 37.667 53.334 57 68.001s48.333 28 87 40c-1.333-26-2.333-54.333-3-85s-1-57.667-1-81c-36-10-66-24-90-42-21.333-16-32-30-32-42 0-14 22.667-24 68-30 41.333 0 70.333-8.333 87-25s25-45 25-85zm343-745-670.998.001c-144 0-247.667 24.667-311 74-56.667 44-85 112.333-85 205 0 62 9.5 122.833 28.5 182.5s51.5 130.834 97.5 213.501l60-42c-26-51.333-42.833-89.5-50.5-114.5s-11.5-51.5-11.5-79.5c0-64 23.667-107.833 71-131.5s137.666-35.5 270.999-35.5h481l-121 679-64 42c0 39.333 6 79 18 119 15.333 50.667 41.333 111 78 181l46-24c0-4-1.333-14.667-4-32 0-22 14-43.333 42-64 24.667-18.667 64-39.334 118-62.001-6-42.667-14.833-84.334-26.5-125.001s-24.834-77-39.501-109l-36 14 109-619V293zM588.001 1724l-57-96-130 36 54 96zm175-49-57-96-130 36 54 96zm-217-88-57-96-130 36 54 96z"/><glyph glyph-name="uni06AE.init" unicode="ڮ" horiz-adv-x="738" d="m738 293-808 .001v272h649c-26 31.333-51.333 58.666-76 81.999-20 18.667-47 41.334-81 68.001l-113 88-32-36c-59.333 58.667-94.666 94.334-105.999 107.001-33.333 38-50 81.667-50 131 0 67.333 4.667 114.666 14 141.999 13.333 38.667 41.666 73 84.999 103 38.667 26.667 80 51 124 73 34.667 17.333 80.667 37.666 138 60.999l169 66v-238c-3.333 0-31.333-8.667-84-26-65.333-21.333-117.333-40-156-56-56-22.667-84-39.667-84-51 0-6 23.667-32 71-78 64.667-62.667 119-120 163-172 72.667-86 131.667-171.667 177-257V293zM628 117.001l-104-194-148 74-84-162-182 102 110 204 142-80 80 158zm-36-309-102-204-186 96 100 208z"/><glyph glyph-name="uni06AE.medi" unicode="ڮ" horiz-adv-x="738" d="m738 293-808 .001v272h649c-26 31.333-51.333 58.666-76 81.999-20 18.667-47 41.334-81 68.001l-113 88-32-36c-59.333 58.667-94.666 94.334-105.999 107.001-33.333 38-50 81.667-50 131 0 67.333 4.667 114.666 14 141.999 13.333 38.667 41.666 73 84.999 103 38.667 26.667 80 51 124 73 34.667 17.333 80.667 37.666 138 60.999l169 66v-238c-3.333 0-31.333-8.667-84-26-65.333-21.333-117.333-40-156-56-56-22.667-84-39.667-84-51 0-6 23.667-32 71-78 64.667-62.667 119-120 163-172 72.667-86 131.667-171.667 177-257V293zM628 117.001l-104-194-148 74-84-162-182 102 110 204 142-80 80 158zm-36-309-102-204-186 96 100 208z"/><glyph glyph-name="afii57509" unicode="گ" horiz-adv-x="1550" arabic-form="isolated" d="M437 293c-144 0-247.666 24.667-310.999 74-56.667 44-85 112.333-85 205 0 62 9.5 122.833 28.5 182.5s51.5 130.834 97.5 213.501l60-42c-26-51.333-42.833-89.5-50.5-114.5s-11.5-51.5-11.5-79.5c0-64 23.667-107.833 71-131.5s137.666-35.5 270.999-35.5h884c-26 31.333-51.333 58.666-76 81.999-20 18.667-47 41.334-81 68.001l-113 88-32-36c-59.333 58.667-94.666 94.334-105.999 107.001-33.333 38-50 81.667-50 131 0 67.333 4.667 114.666 14 141.999 13.333 38.667 41.666 73 84.999 103 38.667 26.667 80 51 124 73 34.667 17.333 80.667 37.666 138 60.999l169 66v-238c-3.333 0-31.333-8.667-84-26-65.333-21.333-117.333-40-156-56-56-22.667-84-39.667-84-51 0-6 23.667-32 71-78 64.667-62.667 119-120 163-172 72.667-86 131.667-171.667 177-257V293H437zm1026 1474-.001-223.001c-143.333-52.667-267.333-103.667-372-153-96-45.333-172.333-87-229-125v154c22.667 22.667 62.334 53.334 119.001 92.001 66 44.667 136 87 210 127 91.333 49.333 182 92 272 128z"/><glyph glyph-name="uni06B0.init" unicode="ڰ" horiz-adv-x="738" d="m738 293-808 .001v272h649c-26 31.333-51.333 58.666-76 81.999-20 18.667-47 41.334-81 68.001l-113 88-32-36c-59.333 58.667-94.666 94.334-105.999 107.001-33.333 38-50 81.667-50 131 0 67.333 4.667 114.666 14 141.999 13.333 38.667 41.666 73 84.999 103 38.667 26.667 80 51 124 73 34.667 17.333 80.667 37.666 138 60.999l169 66v-238c-3.333 0-31.333-8.667-84-26-65.333-21.333-117.333-40-156-56-56-22.667-84-39.667-84-51 0-6 23.667-32 71-78 64.667-62.667 119-120 163-172 72.667-86 131.667-171.667 177-257V293zm-87 1474-.001-223.001c-143.333-52.667-267.333-103.667-372-153-96-45.333-172.333-87-229-125v154C72.666 1442.666 112.333 1473.333 169 1512c66 44.667 136 87 210 127 91.333 49.333 182 92 272 128zm65.999-659c0-41.333-15.332-78.333-45.999-111s-68.334-49-113.001-49c-36 0-63 10-81 30s-27 48-27 84c0 51.333 13.333 96.833 40 136.5s59.667 59.5 99 59.5c36 0 66.333-15 91-45s37-65 37-105zM657 1081c0 18.667-13 39.331-39 61.998s-48 34-66 34c-17.333 0-32-7.5-44-22.5s-18-30.5-18-46.5c0-23.333 11-39.666 33-48.999 17.333-7.333 42.333-11 75-11 16.667 0 30.667 2.333 42 7s17 13.334 17 26.001z"/><glyph glyph-name="uni06B0.medi" unicode="ڰ" horiz-adv-x="1110" d="m-70 293 .002 271.999h170c72 0 126.333 1.667 163 5 57.333 5.333 101.333 15.666 132 30.999 36 18 54 44.667 54 80 0 18-11.333 40.333-34 67s-47.667 47.334-75 62.001l-35-35c-51.333 48.667-83.333 80-96 94-37.333 42-56 87.333-56 136 0 67.333 4.667 114.666 14 141.999 13.333 38.667 41.666 73 84.999 103 36.667 25.333 86 52 148 80 50 22.667 110.667 47.667 182 75l193 73v-238l-107-33c-82-26-149-49-201-69-72-28-108-47.667-108-59-.667-10-1-17-1-21 0-15.333 7-31 21-47 18.667-21.333 57.667-55.333 117-102 43.333-34.667 104-89 182-163 66-63.333 115.333-106.333 148-129 49.333-34.667 96-52 140-52h144v-272h-136c-50 0-105.667 21.667-167 65-50 35.333-101.333 82-154 140-28 30.667-64.667 75.334-110 134.001 0-111.333-36.667-194.666-110-249.999C354.334 322.667 228.667 293 56 293H-70zm845.002 1502-.001-223.001c-143.333-52.667-267.333-103.667-372-153-96-45.333-172.333-87-229-125v154c22.667 22.667 62.334 53.334 119.001 92.001 66 44.667 136 87 210 127 91.333 49.333 182 92 272 128zm11.999-677c0-41.333-15.332-78.333-45.999-111s-68.334-49-113.001-49c-36 0-63 10-81 30s-27 48-27 84c0 51.333 13.333 96.833 40 136.5s59.667 59.5 99 59.5c36 0 66.333-15 91-45s37-65 37-105zm-59.999-27c0 18.667-13 39.331-39 61.998s-48 34-66 34c-17.333 0-32-7.5-44-22.5s-18-30.5-18-46.5c0-23.333 11-39.666 33-48.999 17.333-7.333 42.333-11 75-11 16.667 0 30.667 2.333 42 7s17 13.334 17 26.001z"/><glyph glyph-name="uni06B1" unicode="ڱ" horiz-adv-x="1550" arabic-form="isolated" d="M437 293c-144 0-247.666 24.667-310.999 74-56.667 44-85 112.333-85 205 0 62 9.5 122.833 28.5 182.5s51.5 130.834 97.5 213.501l60-42c-26-51.333-42.833-89.5-50.5-114.5s-11.5-51.5-11.5-79.5c0-64 23.667-107.833 71-131.5s137.666-35.5 270.999-35.5h884c-26 31.333-51.333 58.666-76 81.999-20 18.667-47 41.334-81 68.001l-113 88-32-36c-59.333 58.667-94.666 94.334-105.999 107.001-33.333 38-50 81.667-50 131 0 67.333 4.667 114.666 14 141.999 13.333 38.667 41.666 73 84.999 103 38.667 26.667 80 51 124 73 34.667 17.333 80.667 37.666 138 60.999l169 66v-238c-3.333 0-31.333-8.667-84-26-65.333-21.333-117.333-40-156-56-56-22.667-84-39.667-84-51 0-6 23.667-32 71-78 64.667-62.667 119-120 163-172 72.667-86 131.667-171.667 177-257V293H437zm1026 1474-.001-223.001c-143.333-52.667-267.333-103.667-372-153-96-45.333-172.333-87-229-125v154c22.667 22.667 62.334 53.334 119.001 92.001 66 44.667 136 87 210 127 91.333 49.333 182 92 272 128zm-189 14-54-105-144 44 56 105zm-209-91-54-105-144 44 56 105z"/><glyph glyph-name="uni06B2.init" unicode="ڲ" horiz-adv-x="738" d="m738 293-808 .001v272h649c-26 31.333-51.333 58.666-76 81.999-20 18.667-47 41.334-81 68.001l-113 88-32-36c-59.333 58.667-94.666 94.334-105.999 107.001-33.333 38-50 81.667-50 131 0 67.333 4.667 114.666 14 141.999 13.333 38.667 41.666 73 84.999 103 38.667 26.667 80 51 124 73 34.667 17.333 80.667 37.666 138 60.999l169 66v-238c-3.333 0-31.333-8.667-84-26-65.333-21.333-117.333-40-156-56-56-22.667-84-39.667-84-51 0-6 23.667-32 71-78 64.667-62.667 119-120 163-172 72.667-86 131.667-171.667 177-257V293zm-87 1474-.001-223.001c-143.333-52.667-267.333-103.667-372-153-96-45.333-172.333-87-229-125v154C72.666 1442.666 112.333 1473.333 169 1512c66 44.667 136 87 210 127 91.333 49.333 182 92 272 128zM627.999 117l-104-194-148 74-84-162-182 102 110 204 142-80 80 158z"/><glyph glyph-name="uni06B2.medi" unicode="ڲ" horiz-adv-x="1110" d="m-70 293 .002 271.999h170c72 0 126.333 1.667 163 5 57.333 5.333 101.333 15.666 132 30.999 36 18 54 44.667 54 80 0 18-11.333 40.333-34 67s-47.667 47.334-75 62.001l-35-35c-51.333 48.667-83.333 80-96 94-37.333 42-56 87.333-56 136 0 67.333 4.667 114.666 14 141.999 13.333 38.667 41.666 73 84.999 103 36.667 25.333 86 52 148 80 50 22.667 110.667 47.667 182 75l193 73v-238l-107-33c-82-26-149-49-201-69-72-28-108-47.667-108-59-.667-10-1-17-1-21 0-15.333 7-31 21-47 18.667-21.333 57.667-55.333 117-102 43.333-34.667 104-89 182-163 66-63.333 115.333-106.333 148-129 49.333-34.667 96-52 140-52h144v-272h-136c-50 0-105.667 21.667-167 65-50 35.333-101.333 82-154 140-28 30.667-64.667 75.334-110 134.001 0-111.333-36.667-194.666-110-249.999C354.334 322.667 228.667 293 56 293H-70zm845.002 1502-.001-223.001c-143.333-52.667-267.333-103.667-372-153-96-45.333-172.333-87-229-125v154c22.667 22.667 62.334 53.334 119.001 92.001 66 44.667 136 87 210 127 91.333 49.333 182 92 272 128zM560.001 116.998l-104-194-148 74-84-162-182 102 110 204 142-80 80 158z"/><glyph glyph-name="uni06B3" unicode="ڳ" horiz-adv-x="1550" arabic-form="isolated" d="M437 293c-144 0-247.666 24.667-310.999 74-56.667 44-85 112.333-85 205 0 62 9.5 122.833 28.5 182.5s51.5 130.834 97.5 213.501l60-42c-26-51.333-42.833-89.5-50.5-114.5s-11.5-51.5-11.5-79.5c0-64 23.667-107.833 71-131.5s137.666-35.5 270.999-35.5h884c-26 31.333-51.333 58.666-76 81.999-20 18.667-47 41.334-81 68.001l-113 88-32-36c-59.333 58.667-94.666 94.334-105.999 107.001-33.333 38-50 81.667-50 131 0 67.333 4.667 114.666 14 141.999 13.333 38.667 41.666 73 84.999 103 38.667 26.667 80 51 124 73 34.667 17.333 80.667 37.666 138 60.999l169 66v-238c-3.333 0-31.333-8.667-84-26-65.333-21.333-117.333-40-156-56-56-22.667-84-39.667-84-51 0-6 23.667-32 71-78 64.667-62.667 119-120 163-172 72.667-86 131.667-171.667 177-257V293H437zm1026 1474-.001-223.001c-143.333-52.667-267.333-103.667-372-153-96-45.333-172.333-87-229-125v154c22.667 22.667 62.334 53.334 119.001 92.001 66 44.667 136 87 210 127 91.333 49.333 182 92 272 128zM905 122.999l-100-208-188 100 102 204zm-53-169 186-96-100-208-188 100z"/><glyph glyph-name="uni06B4.init" unicode="ڴ" horiz-adv-x="738" d="m738 293-808 .001v272h649c-26 31.333-51.333 58.666-76 81.999-20 18.667-47 41.334-81 68.001l-113 88-32-36c-59.333 58.667-94.666 94.334-105.999 107.001-33.333 38-50 81.667-50 131 0 67.333 4.667 114.666 14 141.999 13.333 38.667 41.666 73 84.999 103 38.667 26.667 80 51 124 73 34.667 17.333 80.667 37.666 138 60.999l169 66v-238c-3.333 0-31.333-8.667-84-26-65.333-21.333-117.333-40-156-56-56-22.667-84-39.667-84-51 0-6 23.667-32 71-78 64.667-62.667 119-120 163-172 72.667-86 131.667-171.667 177-257V293zm-87 1474-.001-223.001c-143.333-52.667-267.333-103.667-372-153-96-45.333-172.333-87-229-125v154C72.666 1442.666 112.333 1473.333 169 1512c66 44.667 136 87 210 127 91.333 49.333 182 92 272 128zm-393.001 22-57-96-130 36 54 96zm175-49-57-96-130 36 54 96zm-217-88-57-96-130 36 54 96z"/><glyph glyph-name="uni06B4.medi" unicode="ڴ" horiz-adv-x="1110" d="m-70 293 .002 271.999h170c72 0 126.333 1.667 163 5 57.333 5.333 101.333 15.666 132 30.999 36 18 54 44.667 54 80 0 18-11.333 40.333-34 67s-47.667 47.334-75 62.001l-35-35c-51.333 48.667-83.333 80-96 94-37.333 42-56 87.333-56 136 0 67.333 4.667 114.666 14 141.999 13.333 38.667 41.666 73 84.999 103 36.667 25.333 86 52 148 80 50 22.667 110.667 47.667 182 75l193 73v-238l-107-33c-82-26-149-49-201-69-72-28-108-47.667-108-59-.667-10-1-17-1-21 0-15.333 7-31 21-47 18.667-21.333 57.667-55.333 117-102 43.333-34.667 104-89 182-163 66-63.333 115.333-106.333 148-129 49.333-34.667 96-52 140-52h144v-272h-136c-50 0-105.667 21.667-167 65-50 35.333-101.333 82-154 140-28 30.667-64.667 75.334-110 134.001 0-111.333-36.667-194.666-110-249.999C354.334 322.667 228.667 293 56 293H-70zm845.002 1502-.001-223.001c-143.333-52.667-267.333-103.667-372-153-96-45.333-172.333-87-229-125v154c22.667 22.667 62.334 53.334 119.001 92.001 66 44.667 136 87 210 127 91.333 49.333 182 92 272 128zm-457.001-6-57-96-130 36 54 96zm175-49-57-96-130 36 54 96zm-217-88-57-96-130 36 54 96z"/><glyph glyph-name="uni06B5.init" unicode="ڵ" horiz-adv-x="480" d="m480 293-549.999.002v272h430l-121 679-64 42c0 39.333 6 79 18 119 15.333 50.667 41.333 111 78 181l46-24c0-4-1.333-14.667-4-32 0-22 14-43.333 42-64 24.667-18.667 64-39.334 118-62.001-6-42.667-14.833-84.334-26.5-125.001s-24.834-77-39.501-109l-36 14 109-619V293zm-87.999 1532-136-230h-96l-136 230h117l67-120 67 120h117z"/><glyph glyph-name="uni06B5.medi" unicode="ڵ" horiz-adv-x="480" d="m480 293-549.999.002v272h430l-121 679-64 42c0 39.333 6 79 18 119 15.333 50.667 41.333 111 78 181l46-24c0-4-1.333-14.667-4-32 0-22 14-43.333 42-64 24.667-18.667 64-39.334 118-62.001-6-42.667-14.833-84.334-26.5-125.001s-24.834-77-39.501-109l-36 14 109-619V293zm-87.999 1532-136-230h-96l-136 230h117l67-120 67 120h117z"/><glyph glyph-name="uni06B6.init" unicode="ڶ" horiz-adv-x="480" d="m480 293-549.999.002v272h430l-121 679-64 42c0 39.333 6 79 18 119 15.333 50.667 41.333 111 78 181l46-24c0-4-1.333-14.667-4-32 0-22 14-43.333 42-64 24.667-18.667 64-39.334 118-62.001-6-42.667-14.833-84.334-26.5-125.001s-24.834-77-39.501-109l-36 14 109-619V293zM275.001 1701l-120-224-234 122 121 226z"/><glyph glyph-name="uni06B6.medi" unicode="ڶ" horiz-adv-x="480" d="m480 293-549.999.002v272h430l-121 679-64 42c0 39.333 6 79 18 119 15.333 50.667 41.333 111 78 181l46-24c0-4-1.333-14.667-4-32 0-22 14-43.333 42-64 24.667-18.667 64-39.334 118-62.001-6-42.667-14.833-84.334-26.5-125.001s-24.834-77-39.501-109l-36 14 109-619V293zM275.001 1701l-120-224-234 122 121 226z"/><glyph glyph-name="uni06B7.init" unicode="ڷ" horiz-adv-x="480" d="m480 293-549.999.002v272h430l-121 679-64 42c0 39.333 6 79 18 119 15.333 50.667 41.333 111 78 181l46-24c0-4-1.333-14.667-4-32 0-22 14-43.333 42-64 24.667-18.667 64-39.334 118-62.001-6-42.667-14.833-84.334-26.5-125.001s-24.834-77-39.501-109l-36 14 109-619V293zM228.001 1789l-57-96-130 36 54 96zm175-49-57-96-130 36 54 96zm-217-88-57-96-130 36 54 96z"/><glyph glyph-name="uni06B7.medi" unicode="ڷ" horiz-adv-x="480" d="m480 293-549.999.002v272h430l-121 679-64 42c0 39.333 6 79 18 119 15.333 50.667 41.333 111 78 181l46-24c0-4-1.333-14.667-4-32 0-22 14-43.333 42-64 24.667-18.667 64-39.334 118-62.001-6-42.667-14.833-84.334-26.5-125.001s-24.834-77-39.501-109l-36 14 109-619V293zM228.001 1789l-57-96-130 36 54 96zm175-49-57-96-130 36 54 96zm-217-88-57-96-130 36 54 96z"/><glyph glyph-name="uni06B8.init" unicode="ڸ" horiz-adv-x="480" d="m480 293-549.999.002v272h430l-121 679-64 42c0 39.333 6 79 18 119 15.333 50.667 41.333 111 78 181l46-24c0-4-1.333-14.667-4-32 0-22 14-43.333 42-64 24.667-18.667 64-39.334 118-62.001-6-42.667-14.833-84.334-26.5-125.001s-24.834-77-39.501-109l-36 14 109-619V293zm15.001-175.998-104-194-148 74-84-162-182 102 110 204 142-80 80 158zm-36-309-102-204-186 96 100 208z"/><glyph glyph-name="uni06B8.medi" unicode="ڸ" horiz-adv-x="480" d="m480 293-549.999.002v272h430l-121 679-64 42c0 39.333 6 79 18 119 15.333 50.667 41.333 111 78 181l46-24c0-4-1.333-14.667-4-32 0-22 14-43.333 42-64 24.667-18.667 64-39.334 118-62.001-6-42.667-14.833-84.334-26.5-125.001s-24.834-77-39.501-109l-36 14 109-619V293zm15.001-175.998-104-194-148 74-84-162-182 102 110 204 142-80 80 158zm-36-309-102-204-186 96 100 208z"/><glyph glyph-name="uni06B9.init" unicode="ڹ" horiz-adv-x="556" d="m562 1382-120-224-234 122 121 226zm-6-1089-626.001.001v272h526C448.666 610.334 435.333 648.667 416 680c-10 17.333-33.333 47.333-70 90l80 238c50-56.667 84.167-116 102.5-178S556 676 556 554V293zM454.999 95.001l-120-224-234 122 121 226z"/><glyph glyph-name="uni06B9.medi" unicode="ڹ" horiz-adv-x="556" d="m562 1382-120-224-234 122 121 226zm-6-1089-626.001.001v272h526C448.666 610.334 435.333 648.667 416 680c-10 17.333-33.333 47.333-70 90l80 238c50-56.667 84.167-116 102.5-178S556 676 556 554V293zM454.999 95.001l-120-224-234 122 121 226z"/><glyph glyph-name="afii57514" unicode="ں" horiz-adv-x="1108" arabic-form="isolated" d="M1108 342c0-92-9.002-165.833-27.002-221.5s-47.5-100.5-88.5-134.5-101-61.833-180-83.5-160.5-32.5-244.5-32.5c-162 0-286.833 29.5-374.5 88.5S61.998 101.333 61.998 210c0 92.667 14 177.334 42 254.001 30.667 84.667 90.667 194.667 180 330l60-42c-66-112.667-109.167-194.334-129.5-245.001s-30.5-103-30.5-157c0-70 37.5-127.167 112.5-171.5s173.5-66.5 295.5-66.5c120 0 221 23 303 69s123 102.333 123 169c0 41.333-7.167 82.333-21.5 123s-45.166 105.667-92.499 195l88 270c46.667-84.667 75.334-143 86.001-175 20-58 30-131.667 30-221V342z"/><glyph glyph-name="uni06BB" unicode="ڻ" horiz-adv-x="1108" arabic-form="isolated" d="M1108 342c0-92-9.002-165.833-27.002-221.5s-47.5-100.5-88.5-134.5-101-61.833-180-83.5-160.5-32.5-244.5-32.5c-162 0-286.833 29.5-374.5 88.5S61.998 101.333 61.998 210c0 92.667 14 177.334 42 254.001 30.667 84.667 90.667 194.667 180 330l60-42c-66-112.667-109.167-194.334-129.5-245.001s-30.5-103-30.5-157c0-70 37.5-127.167 112.5-171.5s173.5-66.5 295.5-66.5c120 0 221 23 303 69s123 102.333 123 169c0 41.333-7.167 82.333-21.5 123s-45.166 105.667-92.499 195l88 270c46.667-84.667 75.334-143 86.001-175 20-58 30-131.667 30-221V342zM871.998 982l-544.001-.003v130h64c8 0 29.333 13 64 39 14.667 10.667 31.667 24 51 40 0 67.333-6 128.333-18 183l-26 104-28 17c10 46.667 25.333 93.334 46 140.001l22-9c-1.333-4-2-8-2-12 0-11.333 15.667-24.666 47-39.999 7.333-3.333 23-9.666 47-18.999-3.333-26-8.333-49.333-15-70-3.333-9.333-9.666-26-18.999-50l-17 6c16.667-76.667 25-129 25-157v-6c0-14-1.667-29.333-5-46 26 19.333 65.667 46 119 80 26.667 14.667 47 22 61 22 85.333 0 128-41.333 128-124V982zm-66.001 178c0 18.667-12 31.667-36 39-14 4.667-34.333 7-61 7-40 0-101.667-31.333-185-94h125c104.667 0 157 16 157 48z"/><glyph glyph-name="uni06BC.init" unicode="ڼ" horiz-adv-x="556" d="m562 1382-120-224-234 122 121 226zm-6-1089-626.001.001v272h526C448.666 610.334 435.333 648.667 416 680c-10 17.333-33.333 47.333-70 90l80 238c50-56.667 84.167-116 102.5-178S556 676 556 554V293zm-145.001-68.999c0-41.333-15.332-78.333-45.999-111s-68.334-49-113.001-49c-36 0-63 10-81 30s-27 48-27 84c0 51.333 13.333 96.833 40 136.5s59.667 59.5 99 59.5c36 0 66.333-15 91-45s37-65 37-105zm-59.999-27c0 18.667-13 39.331-39 61.998s-48 34-66 34c-17.333 0-32-7.5-44-22.5s-18-30.5-18-46.5c0-23.333 11-39.666 33-48.999 17.333-7.333 42.333-11 75-11 16.667 0 30.667 2.333 42 7s17 13.334 17 26.001z"/><glyph glyph-name="uni06BC.medi" unicode="ڼ" horiz-adv-x="556" d="m562 1382-120-224-234 122 121 226zm-6-1089-626.001.001v272h526C448.666 610.334 435.333 648.667 416 680c-10 17.333-33.333 47.333-70 90l80 238c50-56.667 84.167-116 102.5-178S556 676 556 554V293zm-145.001-68.999c0-41.333-15.332-78.333-45.999-111s-68.334-49-113.001-49c-36 0-63 10-81 30s-27 48-27 84c0 51.333 13.333 96.833 40 136.5s59.667 59.5 99 59.5c36 0 66.333-15 91-45s37-65 37-105zm-59.999-27c0 18.667-13 39.331-39 61.998s-48 34-66 34c-17.333 0-32-7.5-44-22.5s-18-30.5-18-46.5c0-23.333 11-39.666 33-48.999 17.333-7.333 42.333-11 75-11 16.667 0 30.667 2.333 42 7s17 13.334 17 26.001z"/><glyph glyph-name="uni06BE" unicode="ه" horiz-adv-x="960" d="M816 506c0-48.667-9.665-102.001-28.998-160.001-23.333-70.667-51-106-83-106-28 0-74.333 13.333-139 40C490.335 310.666 412.668 351.333 332.001 402c-44.667-39.333-98.334-68.333-161.001-87-49.333-14.667-99.666-22-150.999-22h-90v272h90c20 0 41.5 3 64.5 9s40.833 13.333 53.5 22v36c0 80.667 11.333 151 34 211C197.334 910.333 234.667 959.333 284 990l-48 36c8 54 15.5 96.333 22.5 127s19.5 74.334 37.5 131.001c100-70 191.667-155.333 275-256 76.667-92.667 136.667-185.834 180-279.501S816 574 816 506zM422.002 737.999c0 34-4.833 60.498-14.5 79.498s-23.5 28.5-41.5 28.5c-30 0-55.333-11-76-33-17.333-18.667-26-37.667-26-57 0-26.667 30.667-54 92-82 14.667 6.667 25.667 12.334 33 17.001 22 14.667 33 30.334 33 47.001zm276-186.002c0 20-14.499 50.501-43.499 91.501s-64.5 81.167-106.5 120.5c-4-32-8.833-56.333-14.5-73s-18.834-44.334-39.501-83.001c87.333-48 149.333-72 186-72 12 0 18 5.333 18 16z"/><glyph glyph-name="uni06BF.init" unicode="ڿ" horiz-adv-x="1072" d="m1072 293-1142-.002v272h711c-80.667 83.333-155.334 143.333-224.001 180-60.667 32.667-120 49-178 49-17.333 0-33.166-.833-47.499-2.5s-35.166-5.5-62.499-11.5c36.667 84 77.5 146 122.5 186s96.167 60 153.5 60c44 0 86.333-10.667 127-32s86.334-55.666 137.001-102.999c40-37.333 96.667-95.666 170-174.999 50-56 88.167-92.333 114.5-109s65.833-30.667 118.5-42V293zM764.998 116.998l-104-194-148 74-84-162-182 102 110 204 142-80 80 158zm-36-309-102-204-186 96 100 208zm-54 1550.002-120-224-234 122 121 226z"/><glyph glyph-name="uni06BF.medi" unicode="ڿ" horiz-adv-x="1072" d="m1072 293-1142-.002v272h711c-80.667 83.333-155.334 143.333-224.001 180-60.667 32.667-120 49-178 49-17.333 0-33.166-.833-47.499-2.5s-35.166-5.5-62.499-11.5c36.667 84 77.5 146 122.5 186s96.167 60 153.5 60c44 0 86.333-10.667 127-32s86.334-55.666 137.001-102.999c40-37.333 96.667-95.666 170-174.999 50-56 88.167-92.333 114.5-109s65.833-30.667 118.5-42V293zM764.998 116.998l-104-194-148 74-84-162-182 102 110 204 142-80 80 158zm-36-309-102-204-186 96 100 208zm-54 1550.002-120-224-234 122 121 226z"/><glyph glyph-name="uni06C0" unicode="ۀ" horiz-adv-x="702" arabic-form="isolated" d="M622 668c0-40-3.168-80.502-9.501-121.502s-14.5-74.5-24.5-100.5c-18.667-50.667-64.667-95.334-138-134.001-68-36-132-54-192-54-52 0-93.333 18-124 54s-46 84-46 144c0 54.667 7.833 108.334 23.5 161.001s43.834 119 84.501 199l-36 24c11.333 30.667 26.666 67.834 45.999 111.501s36.666 80.5 51.999 110.5l98-58c42.667-26 83.334-54 122.001-84C532.666 878.666 570.333 839.833 591 803.5S622 722 622 668zm-148.001-80.002c0 12.667-23.167 38.999-69.5 78.999s-91.833 74.333-136.5 103c-42.667-67.333-64-123.333-64-168 0-21.333 8.833-39.666 26.5-54.999s38.834-23 63.501-23c33.333 0 71.666 7.833 114.999 23.5s65 29.167 65 40.5zm-44 675.002c-7.333-19.333-16.002-34-26.002-44-7.333-7.333-18.666-13.333-33.999-18l-216-66c13.333 24 25 40.5 35 49.5s28 17.167 54 24.5c-18.667 12-32.167 23.167-40.5 33.5s-12.5 20.5-12.5 30.5c0 8.667 2.667 18.5 8 29.5s12.333 21.833 21 32.5c43.333 58 86.333 87 129 87 12.667 0 22.834-4.167 30.501-12.5s11.5-19.166 11.5-32.499c0-10.667-1.5-19.834-4.5-27.501s-9.167-19.167-18.5-34.5c-33.333 16.667-56 25-68 25s-24-3-36-9c-8-4-15.333-9.333-22-16 0-8.667 16-22 48-40s55-27 69-27c8.667 0 32.667 5 72 15z"/><glyph glyph-name="uni06C1" unicode="ہ" horiz-adv-x="794" arabic-form="final" d="M794 293h-71.997c-47.333 0-89 11.667-125 35-26.667 16-59.334 45.667-98.001 89l-55 61c-24.667 23.333-48.334 35-71.001 35-52 0-110-50.667-174-152C176.334 325 137.667 251 83 139l-57 35c159.333 398 295.333 597 408 597 38 0 85-32.333 141-97 62.667-72.667 115.667-109 159-109h60V293z"/><glyph glyph-name="uni06C5" unicode="ۅ" horiz-adv-x="924" arabic-form="isolated" d="M924 362c0-106.667-45.332-216.666-135.999-329.999-94.667-118.667-194-178-298-178-68.667 0-154.334 32.333-257.001 97-41.333 26-117 81-227 165l42 58c72-48 131-80 177-96 38-13.333 81-20 129-20 93.333 0 187 38 281 114-18.667-4-38.334-6-59.001-6-45.333 0-93.666 11-144.999 33-37.333 17.333-65.666 26-84.999 26-9.333 0-28.666-4.667-57.999-14l-14 14c30.667 51.333 66 77 106 77 24 0 57-8.667 99-26 53.333-22 101.666-33 144.999-33 32 0 68.667 8.333 110 25l44 50c-28-4-51.333-6-70-6-68.667 0-122.334 23.333-161.001 70-36.667 43.333-55 100-55 170 0 100 23 196.333 69 289 50 100.667 107 151 171 151 65.333 0 116-48.333 152-145 26.667-72.667 40-148.334 40-227.001V362zM804.001 565.001c-18.667 107.333-56.667 161.001-114 161.001-20 0-36.333-7.833-49-23.5s-19-33.834-19-54.501c0-28.667 18-50.667 54-66 26.667-11.333 56.667-17 90-17h38z"/><glyph glyph-name="uni06C6" unicode="ۆ" horiz-adv-x="924" arabic-form="isolated" d="M924 362c0-114.667-48.666-228-145.999-340s-193.333-168-288-168c-55.333 0-115.833 17.667-181.5 53s-166.5 105-302.5 209l42 58c72-48 131-80 177-96 38-13.333 81-20 129-20 64.667 0 128.667 18 192 54 74.667 42.667 152 111.334 232 206.001-28-4-51.333-6-70-6-66 0-118.5 21.5-157.5 64.5s-58.5 101.5-58.5 175.5c0 100 23 196.333 69 289 50 100.667 107 151 171 151 53.333 0 98.666-36.333 135.999-109S924 722.667 924 620V362zM804.001 565c-18.667 107.333-56.666 160.999-113.999 160.999-20.667 0-37.167-8.167-49.5-24.5s-18.5-34.166-18.5-53.499c0-24 13.167-43.833 39.5-59.5S722.668 565 766.001 565h38zm58.001 800-136-230h-96l-136 230h117l67-120 67 120h117z"/><glyph glyph-name="uni06C7" unicode="ۇ" horiz-adv-x="924" arabic-form="isolated" d="M924 362c0-114.667-48.666-228-145.999-340s-193.333-168-288-168c-55.333 0-115.833 17.667-181.5 53s-166.5 105-302.5 209l42 58c72-48 131-80 177-96 38-13.333 81-20 129-20 64.667 0 128.667 18 192 54 74.667 42.667 152 111.334 232 206.001-28-4-51.333-6-70-6-66 0-118.5 21.5-157.5 64.5s-58.5 101.5-58.5 175.5c0 100 23 196.333 69 289 50 100.667 107 151 171 151 53.333 0 98.666-36.333 135.999-109S924 722.667 924 620V362zM804.001 565c-18.667 107.333-56.666 160.999-113.999 160.999-20.667 0-37.167-8.167-49.5-24.5s-18.5-34.166-18.5-53.499c0-24 13.167-43.833 39.5-59.5S722.668 565 766.001 565h38zm25.001 759c0-11.333-.999-22.998-2.999-34.998l-6-36-83 50c-33.333-36.667-56-61-68-73-49.333-48-90.666-72-123.999-72h-73c35.333 16.667 76.666 43.667 123.999 81 42.667 34 75 64 97 90-20.667 12.667-36.334 26-47.001 40-13.333 17.333-20 36.333-20 57 0 44 12.833 82.833 38.5 116.5s53.5 50.5 83.5 50.5c17.333 0 33-9.333 47-28s21-41.334 21-68.001c0-12.667-1.833-25.834-5.5-39.501s-12.167-38.834-25.5-75.501a646.781 646.781 0 0 1 33-27c7.333-7.333 11-17.666 11-30.999zm-74.999 113c0 18-6.332 34.669-18.999 50.002s-25 23-37 23c-6.667 0-11.834-2.333-15.501-7s-5.5-9.334-5.5-14.001c0-14.667 8.333-30 25-46l44-34c5.333 13.333 8 22.666 8 27.999z"/><glyph glyph-name="uni06C8" unicode="ۈ" horiz-adv-x="924" arabic-form="isolated" d="M924 362c0-114.667-48.666-228-145.999-340s-193.333-168-288-168c-55.333 0-115.833 17.667-181.5 53s-166.5 105-302.5 209l42 58c72-48 131-80 177-96 38-13.333 81-20 129-20 64.667 0 128.667 18 192 54 74.667 42.667 152 111.334 232 206.001-28-4-51.333-6-70-6-66 0-118.5 21.5-157.5 64.5s-58.5 101.5-58.5 175.5c0 100 23 196.333 69 289 50 100.667 107 151 171 151 53.333 0 98.666-36.333 135.999-109S924 722.667 924 620V362zM804.001 565c-18.667 107.333-56.666 160.999-113.999 160.999-20.667 0-37.167-8.167-49.5-24.5s-18.5-34.166-18.5-53.499c0-24 13.167-43.833 39.5-59.5S722.668 565 766.001 565h38zm-104.999 669c0-47.333-16.333-104.666-49-171.999l-28 12c7.333 39.333 11 72.333 11 99 0 43.333-5.667 108.666-17 195.999-5.333 39.333-13 83-23 131-4 18.667-6 31-6 37 0 20 18.667 65.333 56 136l29-169c18-104.667 27-194.667 27-270z"/><glyph glyph-name="uni06C9" unicode="ۉ" horiz-adv-x="924" arabic-form="isolated" d="M924 362c0-114.667-48.666-228-145.999-340s-193.333-168-288-168c-55.333 0-115.833 17.667-181.5 53s-166.5 105-302.5 209l42 58c72-48 131-80 177-96 38-13.333 81-20 129-20 64.667 0 128.667 18 192 54 74.667 42.667 152 111.334 232 206.001-28-4-51.333-6-70-6-66 0-118.5 21.5-157.5 64.5s-58.5 101.5-58.5 175.5c0 100 23 196.333 69 289 50 100.667 107 151 171 151 53.333 0 98.666-36.333 135.999-109S924 722.667 924 620V362zM804.001 565c-18.667 107.333-56.666 160.999-113.999 160.999-20.667 0-37.167-8.167-49.5-24.5s-18.5-34.166-18.5-53.499c0-24 13.167-43.833 39.5-59.5S722.668 565 766.001 565h38zm58.001 570h-117l-67 120-67-120h-117l136 230h96z"/><glyph glyph-name="uni06CB" unicode="ۋ" horiz-adv-x="924" arabic-form="isolated" d="M924 362c0-114.667-48.666-228-145.999-340s-193.333-168-288-168c-55.333 0-115.833 17.667-181.5 53s-166.5 105-302.5 209l42 58c72-48 131-80 177-96 38-13.333 81-20 129-20 64.667 0 128.667 18 192 54 74.667 42.667 152 111.334 232 206.001-28-4-51.333-6-70-6-66 0-118.5 21.5-157.5 64.5s-58.5 101.5-58.5 175.5c0 100 23 196.333 69 289 50 100.667 107 151 171 151 53.333 0 98.666-36.333 135.999-109S924 722.667 924 620V362zM804.001 565c-18.667 107.333-56.666 160.999-113.999 160.999-20.667 0-37.167-8.167-49.5-24.5s-18.5-34.166-18.5-53.499c0-24 13.167-43.833 39.5-59.5S722.668 565 766.001 565h38zm-97.999 1011-100-208-188 100 102 204zm194-237-110-204-142 80-80-158-186 102 104 194 148-74 84 162z"/><glyph glyph-name="uni06CC" unicode="ی" horiz-adv-x="1320" arabic-form="isolated" d="M1177 780c0-36.667-3.672-67.001-11.005-91.001s-23-55.667-47-95c-18 47.333-33.167 78.166-45.5 92.499s-30.166 21.5-53.499 21.5c-36 0-85.5-20.5-148.5-61.5s-94.5-75.5-94.5-103.5c0-14.667 12.667-25 38-31 18-4 46-6 84-6h29.5c9.667 0 19.5.333 29.5 1 72.667 0 121-7.333 145-22 20.667-12.667 31-37.334 31-74.001 0-72-13.333-141-40-207-33.333-83.333-81.666-142.666-144.999-177.999-79.333-44.667-161.833-80.667-247.5-108s-165.5-41-239.5-41c-207.333 0-311 93-311 279 0 94 11.667 175 35 243 26 76 81 179 165 309l46-30c-49.333-83.333-86.333-157.5-111-222.5s-37-121.833-37-170.5c0-126 71-189 213-189 53.333 0 104 4.833 152 14.5s96.667 23.167 146 40.5c32 11.333 68.667 26 110 44 66 29.333 101 45 105 47 30 16 45 30.333 45 43 0 6.667-16.167 10.834-48.5 12.501s-55.166 2.5-68.499 2.5c-102.667 0-171.334 14.667-206 44-28 24-42 68.333-42 133 0 30.667 9.832 69.334 29.5 116.001s45.5 93 77.5 139c48.666 70 97.333 123 146 159s96.334 54 143.001 54c38.667 0 69.334-15 92.001-45s34-70 34-120z"/><glyph glyph-name="uni06CE.medi" unicode="ێ" horiz-adv-x="556" d="m556 293-626.001.001v272h526C448.666 610.334 435.333 648.667 416 680c-10 17.333-33.333 47.333-70 90l80 238c50-56.667 84.167-116 102.5-178S556 676 556 554V293zm-16.001-175.999-110-204-142 80-80-158-186 102 104 194 148-74 84 162zm12 1247.999-136-230h-96l-136 230h117l67-120 67 120h117z"/><glyph glyph-name="uni06D0" unicode="ې" horiz-adv-x="1320" arabic-form="isolated" d="M1177 780c0-36.667-3.672-67.001-11.005-91.001s-23-55.667-47-95c-18 47.333-33.167 78.166-45.5 92.499s-30.166 21.5-53.499 21.5c-36 0-85.5-20.5-148.5-61.5s-94.5-75.5-94.5-103.5c0-14.667 12.667-25 38-31 18-4 46-6 84-6h29.5c9.667 0 19.5.333 29.5 1 72.667 0 121-7.333 145-22 20.667-12.667 31-37.334 31-74.001 0-72-13.333-141-40-207-33.333-83.333-81.666-142.666-144.999-177.999-79.333-44.667-161.833-80.667-247.5-108s-165.5-41-239.5-41c-207.333 0-311 93-311 279 0 94 11.667 175 35 243 26 76 81 179 165 309l46-30c-49.333-83.333-86.333-157.5-111-222.5s-37-121.833-37-170.5c0-126 71-189 213-189 53.333 0 104 4.833 152 14.5s96.667 23.167 146 40.5c32 11.333 68.667 26 110 44 66 29.333 101 45 105 47 30 16 45 30.333 45 43 0 6.667-16.167 10.834-48.5 12.501s-55.166 2.5-68.499 2.5c-102.667 0-171.334 14.667-206 44-28 24-42 68.333-42 133 0 30.667 9.832 69.334 29.5 116.001s45.5 93 77.5 139c48.666 70 97.333 123 146 159s96.334 54 143.001 54c38.667 0 69.334-15 92.001-45s34-70 34-120zM644.995-204.001l-34-70-94 24 36 70zm26-108-34-70-94 24 36 70z"/><glyph glyph-name="afii57519" unicode="ے" horiz-adv-x="1663" arabic-form="isolated" d="M1663 192 1410.003-50.998h-1169c-77.333 0-124.333 4.667-141 14-18.667 10.667-28.334 26.667-29.001 48-2 59.333 6.333 144 25 254 18.667 112.667 38.667 183 60 211 12.667 16.667 64.667 50 156 100l178 96c28 15.333 88.333 74.666 181 177.999l60 69c28.667 28 54.667 42 78 42 59.333 0 89-77.667 89-233 0-78-3.667-132.333-11-163-40.667 82.667-81.334 124-122.001 124-54.667 0-112.334-52.667-173.001-158-15.333-28-37.333-59.333-66-94l-203-104C243 292.334 203 264.667 203 250c0-19.333 31.333-29 94-29h1366v-29z"/><glyph glyph-name="uni06D3" unicode="ۓ" horiz-adv-x="1663" arabic-form="isolated" d="M1663 192 1410.003-50.998h-1169c-77.333 0-124.333 4.667-141 14-18.667 10.667-28.334 26.667-29.001 48-2 59.333 6.333 144 25 254 18.667 112.667 38.667 183 60 211 12.667 16.667 64.667 50 156 100l178 96c28 15.333 88.333 74.666 181 177.999l60 69c28.667 28 54.667 42 78 42 59.333 0 89-77.667 89-233 0-78-3.667-132.333-11-163-40.667 82.667-81.334 124-122.001 124-54.667 0-112.334-52.667-173.001-158-15.333-28-37.333-59.333-66-94l-203-104C243 292.334 203 264.667 203 250c0-19.333 31.333-29 94-29h1366v-29zM630.003 1063c-7.333-19.333-16.002-34-26.002-44-7.333-7.333-18.666-13.333-33.999-18l-216-66c13.333 24 25 40.5 35 49.5s28 17.167 54 24.5c-18.667 12-32.167 23.167-40.5 33.5s-12.5 20.5-12.5 30.5c0 8.667 2.667 18.5 8 29.5s12.333 21.833 21 32.5c43.333 58 86.333 87 129 87 12.667 0 22.834-4.167 30.501-12.5s11.5-19.166 11.5-32.499c0-10.667-1.5-19.834-4.5-27.501s-9.167-19.167-18.5-34.5c-33.333 16.667-56 25-68 25s-24-3-36-9c-8-4-15.333-9.333-22-16 0-8.667 16-22 48-40s55-27 69-27c8.667 0 32.667 5 72 15z"/><glyph glyph-name="uni06FA.init" unicode="ۺ" horiz-adv-x="1246" d="m936 1489-100-208-188 100 102 204zm194-237-110-204-142 80-87-158-179 102 104 194 148-74 84 162zm116-959c-74.667 0-136.668 5.336-186.001 16.003s-98 27.667-146 51c-38.667-27.333-73.167-45.333-103.5-54s-75.833-13-136.5-13h-163c-44.667 0-80 11.667-106 35s-49.333 62-70 116c-36.667-56-77.667-96-123-120-38.667-20.667-85-31-139-31h-143v272h143c70 0 128.333 19.667 175 59 60.667 51.333 91 129.333 91 234l66-10c-1.333-21.333-2.666-45.666-3.999-73s-2-57.665-2-90.998c0-34 11.667-62.333 35-85s50-34 80-34h123c81.333 0 139.333 11.333 174 34 42 27.333 63 78.333 63 153 0 16 5 30.333 15 43 6 7.333 18.333 18.333 37 33l38 30c1.333-12.667 2.333-29.834 3-51.501s1-35.834 1-42.501c0-36.667-5.333-85.334-16-146.001 24.667-12 52.334-22.333 83.001-31s63-15.334 97-20.001c0 22.667-8.333 52-25 88s-25 60.333-25 73c0 17.333 2.333 30.666 7 39.999 1.333 3.333 8.666 13.666 21.999 30.999l85 115c18-42 30.833-80.167 38.5-114.5s11.5-77.166 11.5-128.5V293zM1055 95.003l-120-224-234 122 121 226z"/><glyph glyph-name="uni06FA.medi" unicode="ۺ" horiz-adv-x="1246" d="m936 1489-100-208-188 100 102 204zm194-237-110-204-142 80-87-158-179 102 104 194 148-74 84 162zm116-959c-74.667 0-136.668 5.336-186.001 16.003s-98 27.667-146 51c-38.667-27.333-73.167-45.333-103.5-54s-75.833-13-136.5-13h-163c-44.667 0-80 11.667-106 35s-49.333 62-70 116c-36.667-56-77.667-96-123-120-38.667-20.667-85-31-139-31h-143v272h143c70 0 128.333 19.667 175 59 60.667 51.333 91 129.333 91 234l66-10c-1.333-21.333-2.666-45.666-3.999-73s-2-57.665-2-90.998c0-34 11.667-62.333 35-85s50-34 80-34h123c81.333 0 139.333 11.333 174 34 42 27.333 63 78.333 63 153 0 16 5 30.333 15 43 6 7.333 18.333 18.333 37 33l38 30c1.333-12.667 2.333-29.834 3-51.501s1-35.834 1-42.501c0-36.667-5.333-85.334-16-146.001 24.667-12 52.334-22.333 83.001-31s63-15.334 97-20.001c0 22.667-8.333 52-25 88s-25 60.333-25 73c0 17.333 2.333 30.666 7 39.999 1.333 3.333 8.666 13.666 21.999 30.999l85 115c18-42 30.833-80.167 38.5-114.5s11.5-77.166 11.5-128.5V293zM1055 95.003l-120-224-234 122 121 226z"/><glyph glyph-name="uni06FB.init" unicode="ۻ" horiz-adv-x="1580" d="m1082 1367-120-224-234 122 121 226zm498-1074-1059-.002c-47.333 0-85.166 11.833-113.499 35.5s-52.5 62.167-72.5 115.5C292.334 384.665 251.667 344.332 213 322.999c-35.333-19.333-82-29-140-29l-143-1v272l143 1c77.333 0 136 19.333 176 58 46.667 45.333 76.667 123.333 90 234l68-10c-2-24-3.333-43.333-4-58-2.667-44-4-79.333-4-106 0-38 10-67.333 30-88s46.333-31 79-31 62.834 6.667 90.501 20 71.167 41 130.5 83l358 256c42 30 73.667 51.333 95 64 48.667 29.333 95.667 44 141 44 74.667 0 134.334-26.333 179.001-79 52-61.333 78-153.666 78-276.999V293zm-140 373.998c0 30-23.667 54.332-71 72.999-39.333 15.333-83.333 23-132 23-44 0-93.5-14.167-148.5-42.5S953.667 640.331 849 564.998h262c219.333 0 329 34 329 102zm-218-572-120-224-234 122 121 226z"/><glyph glyph-name="uni06FB.medi" unicode="ۻ" horiz-adv-x="1580" d="m1082 1367-120-224-234 122 121 226zm498-1074-1059-.002c-47.333 0-85.166 11.833-113.499 35.5s-52.5 62.167-72.5 115.5C292.334 384.665 251.667 344.332 213 322.999c-35.333-19.333-82-29-140-29l-143-1v272l143 1c77.333 0 136 19.333 176 58 46.667 45.333 76.667 123.333 90 234l68-10c-2-24-3.333-43.333-4-58-2.667-44-4-79.333-4-106 0-38 10-67.333 30-88s46.333-31 79-31 62.834 6.667 90.501 20 71.167 41 130.5 83l358 256c42 30 73.667 51.333 95 64 48.667 29.333 95.667 44 141 44 74.667 0 134.334-26.333 179.001-79 52-61.333 78-153.666 78-276.999V293zm-140 373.998c0 30-23.667 54.332-71 72.999-39.333 15.333-83.333 23-132 23-44 0-93.5-14.167-148.5-42.5S953.667 640.331 849 564.998h262c219.333 0 329 34 329 102zm-218-572-120-224-234 122 121 226z"/><glyph glyph-name="uni06FC.init" unicode="ۼ" horiz-adv-x="1108" d="m583 1514-120-224-234 122 127 226zm407-744L878 486.001c-179.333-55.333-327.666-98-444.999-128-102-26-188-44-258-54-51.333-7.333-103-11-155-11h-90v272h108c19.333 0 33.666.333 42.999 1 20 2.667 39.667 4.667 59 6-33.333 50-55.666 90.5-66.999 121.5s-17 65.833-17 104.5c0 99.333 41.167 186.166 123.5 260.499s178.5 111.5 288.5 111.5c74 0 144.667-24.333 212-73 62-45.333 107.333-100.333 136-165l-42-36c-52.667 20-94.5 33-125.5 39s-69.167 9-114.5 9c-82.667 0-154.334-6.667-215.001-20-76.667-16.667-115-40.667-115-72 0-46 92.667-122 278-228zM755 95.001l-120-224-234 122 121 226z"/><glyph glyph-name="uni06FC.medi" unicode="ۼ" horiz-adv-x="738" d="m481 1424-120-224-234 122 122 226zM738 293H589.999c-52.667 0-99 10.667-139 32s-72.333 55.666-97 102.999c-43.333-53.333-99.666-91-168.999-113-46-14.667-96-22-150-22H-70v272H35c55.333 0 94.166 2.833 116.499 8.5s52.5 18.5 90.5 38.5c-20 39.333-37.333 67.666-52 84.999-18 20.667-36.667 31-56 31-7.333 0-14.166-2.5-20.499-7.5s-13.5-14.5-21.5-28.5l-44 6c0 120.667 20.833 206.834 62.5 258.501s107.5 77.5 197.5 77.5c92.667 0 165.5-18.167 218.5-54.5S606 893.333 606 830c0-34-7-66.5-21-97.5s-40.333-73.167-79-126.5c9.333-12.667 22-22.667 38-30s31.333-11 46-11h148V293zM554.999 95l-120-224-234 122 121 226z"/><glyph glyph-name="uni06FF.init" unicode="ۿ" horiz-adv-x="960" d="M816 506c0-48.667-9.665-102.001-28.998-160.001-23.333-70.667-51-106-83-106-28 0-74.333 13.333-139 40C490.335 310.666 412.668 351.333 332.001 402c-44.667-39.333-98.334-68.333-161.001-87-49.333-14.667-99.666-22-150.999-22h-90v272h90c20 0 41.5 3 64.5 9s40.833 13.333 53.5 22v36c0 80.667 11.333 151 34 211C197.334 910.333 234.667 959.333 284 990l-48 36c8 54 15.5 96.333 22.5 127s19.5 74.334 37.5 131.001c100-70 191.667-155.333 275-256 76.667-92.667 136.667-185.834 180-279.501S816 574 816 506zM422.002 737.999c0 34-4.833 60.498-14.5 79.498s-23.5 28.5-41.5 28.5c-30 0-55.333-11-76-33-17.333-18.667-26-37.667-26-57 0-26.667 30.667-54 92-82 14.667 6.667 25.667 12.334 33 17.001 22 14.667 33 30.334 33 47.001zm276-186.002c0 20-14.499 50.501-43.499 91.501s-64.5 81.167-106.5 120.5c-4-32-8.833-56.333-14.5-73s-18.834-44.334-39.501-83.001c87.333-48 149.333-72 186-72 12 0 18 5.333 18 16zM512.003 1398h-117l-67 120-67-120h-117l136 230h96z"/><glyph glyph-name="uni06FF.medi" unicode="ۿ" horiz-adv-x="924" d="m924 293-204 .001c-15.333 0-31-.167-47-.5s-39.667-1.833-71-4.5l72-41c22.667-17.333 34-39.666 34-66.999 0-26-3.667-53.667-11-83-4-16.667-13.667-46.334-29-89.001-28-83.333-54-139.833-78-169.5s-54.667-44.5-92-44.5c-92.667 0-172.5 48.833-239.5 146.5S158 155.668 158 293.001H-70v272h90c36 0 72.667 3.333 110 10 42 9.333 71.333 15.666 88 18.999 74 200.667 139.333 345.667 196 435 50 78 96 117 138 117 34 0 63.333-33.333 88-100 21.333-57.333 32-114 32-170 0-77.333-15.333-143.333-46-198-33.333-60-83.333-104-150-132 48.667 8 93 13.167 133 15.5s77 3.5 111 3.5h204V293zM516 750.001c0 17.333-6.333 38.668-19 64.001s-25.667 38-39 38c-17.333 0-37.5-18.833-60.5-56.5s-50.833-96.834-83.5-177.501c76.667 26.667 129.5 49.5 158.5 68.5s43.5 40.167 43.5 63.5zm42-669.998c0 37.333-21.335 72.667-64.002 106-51.333 40-125.333 70-222 90 10.667-58.667 41.334-109.667 92.001-153s105.334-65 164.001-65c20 0 30 7.333 30 22zM691.998 1289h-117l-67 120-67-120h-117l136 230h96z"/><glyph glyph-name="uniFB51" unicode="ٱ" horiz-adv-x="480" arabic-form="final" d="M480 293H340c-78 0-134.333 32-169 96-38.667 70.667-58 189.667-58 357v285c0 64.667-9 115-27 151-8.667 17.333-28.667 42.333-60 75l108 250c38.667-53.333 65.667-106 81-158 18-60.667 27-138 27-232V920c0-139.333 9.333-236 28-290 14.667-43.333 38-65 70-65h140V293zM351 1724c0-35.333-16-67.668-48-97.001-34.667-32-76-48-124-48H12c-20.667 0-31-15-31-45 0-3.333.667-9.333 2-18 .667-8 .667-14 0-18-32 32.667-48 66.334-48 101.001 0 44 25.333 66 76 66h24c78.667 106 156.667 159 234 159 54.667 0 82-33.333 82-100zm-90 1c0 25.333-10.666 38-31.999 38-36.667 0-83.334-32.667-140.001-98h82c60 0 90 20 90 60z"/><glyph glyph-name="uniFB53" unicode="ٻ" horiz-adv-x="1330" arabic-form="final" d="m1330 293-838.999.001c-80.667 0-134.167 1.333-160.5 4s-54.833 9.667-85.5 21c-54.667 18.667-99.667 56.667-135 114s-53 121.333-53 192c0 27.333 1.333 51.833 4 73.5s8 47.167 16 76.5c11.333 43.333 24 79.666 38 108.999s38.667 69 74 119l56-40c-28.667-52.667-48.167-94.334-58.5-125.001s-15.5-61-15.5-91c0-38 12.167-72.167 36.5-102.5S263.667 593.333 303 584c23.333-6 53.833-10.667 91.5-14s77.167-5 118.5-5h723c-18.667 50.667-34 86.667-46 108-14 25.333-36.667 57.666-68 96.999l90 232c50-71.333 82.667-136.666 98-195.999 13.333-52 20-128.667 20-230V293zM855.001 123.001l-100-208-188 100 102 204zm-53-169 186-96-100-208-188 100z"/><glyph glyph-name="uniFB54" unicode="ٻ" horiz-adv-x="556" d="m556 293-626.001.001v272h526C448.666 610.334 435.333 648.667 416 680c-10 17.333-33.333 47.333-70 90l80 238c50-56.667 84.167-116 102.5-178S556 676 556 554V293zM354.999 123.001l-100-208-188 100 102 204zm-53-169 186-96-100-208-188 100z"/><glyph glyph-name="uniFB55" unicode="ٻ" horiz-adv-x="556" arabic-form="medial" d="m556 293-626.001.001v272h526C448.666 610.334 435.333 648.667 416 680c-10 17.333-33.333 47.333-70 90l80 238c50-56.667 84.167-116 102.5-178S556 676 556 554V293zM354.999 123.001l-100-208-188 100 102 204zm-53-169 186-96-100-208-188 100z"/><glyph glyph-name="uniFB57" unicode="پ" horiz-adv-x="1330" arabic-form="final" d="m1330 293-838.999.001c-80.667 0-134.167 1.333-160.5 4s-54.833 9.667-85.5 21c-54.667 18.667-99.667 56.667-135 114s-53 121.333-53 192c0 27.333 1.333 51.833 4 73.5s8 47.167 16 76.5c11.333 43.333 24 79.666 38 108.999s38.667 69 74 119l56-40c-28.667-52.667-48.167-94.334-58.5-125.001s-15.5-61-15.5-91c0-38 12.167-72.167 36.5-102.5S263.667 593.333 303 584c23.333-6 53.833-10.667 91.5-14s77.167-5 118.5-5h723c-18.667 50.667-34 86.667-46 108-14 25.333-36.667 57.666-68 96.999l90 232c50-71.333 82.667-136.666 98-195.999 13.333-52 20-128.667 20-230V293zM984.001 117.001l-104-194-148 74-84-162-182 102 110 204 142-80 80 158zm-36-309-102-204-186 96 100 208z"/><glyph glyph-name="uniFB58" unicode="پ" horiz-adv-x="556" d="m556 293-626.001.001v272h526C448.666 610.334 435.333 648.667 416 680c-10 17.333-33.333 47.333-70 90l80 238c50-56.667 84.167-116 102.5-178S556 676 556 554V293zm-16.001-175.999-104-194-148 74-84-162-182 102 110 204 142-80 80 158zm-36-309-102-204-186 96 100 208z"/><glyph glyph-name="uniFB59" unicode="پ" horiz-adv-x="556" arabic-form="medial" d="m556 293-626.001.001v272h526C448.666 610.334 435.333 648.667 416 680c-10 17.333-33.333 47.333-70 90l80 238c50-56.667 84.167-116 102.5-178S556 676 556 554V293zm-16.001-175.999-104-194-148 74-84-162-182 102 110 204 142-80 80 158zm-36-309-102-204-186 96 100 208z"/><glyph glyph-name="uniFB5B" unicode="ڀ" horiz-adv-x="1330" arabic-form="final" d="m1330 293-838.999.001c-80.667 0-134.167 1.333-160.5 4s-54.833 9.667-85.5 21c-54.667 18.667-99.667 56.667-135 114s-53 121.333-53 192c0 27.333 1.333 51.833 4 73.5s8 47.167 16 76.5c11.333 43.333 24 79.666 38 108.999s38.667 69 74 119l56-40c-28.667-52.667-48.167-94.334-58.5-125.001s-15.5-61-15.5-91c0-38 12.167-72.167 36.5-102.5S263.667 593.333 303 584c23.333-6 53.833-10.667 91.5-14s77.167-5 118.5-5h723c-18.667 50.667-34 86.667-46 108-14 25.333-36.667 57.666-68 96.999l90 232c50-71.333 82.667-136.666 98-195.999 13.333-52 20-128.667 20-230V293zM932.001 117.001l-104-194-148 74-84-162-182 102 110 204 142-80 80 158zm-275-241 142-80 80 158 186-102-104-194-148 74-84-162-182 102z"/><glyph glyph-name="uniFB5C" unicode="ڀ" horiz-adv-x="556" d="m556 293-626.001.001v272h526C448.666 610.334 435.333 648.667 416 680c-10 17.333-33.333 47.333-70 90l80 238c50-56.667 84.167-116 102.5-178S556 676 556 554V293zm-84.001-175.999-104-194-148 74-84-162-182 102 110 204 142-80 80 158zm-275-241 142-80 80 158 186-102-104-194-148 74-84-162-182 102z"/><glyph glyph-name="uniFB5D" unicode="ڀ" horiz-adv-x="556" arabic-form="medial" d="m556 293-626.001.001v272h526C448.666 610.334 435.333 648.667 416 680c-10 17.333-33.333 47.333-70 90l80 238c50-56.667 84.167-116 102.5-178S556 676 556 554V293zm-84.001-175.999-104-194-148 74-84-162-182 102 110 204 142-80 80 158zm-275-241 142-80 80 158 186-102-104-194-148 74-84-162-182 102z"/><glyph glyph-name="uniFB5F" unicode="ٺ" horiz-adv-x="1330" arabic-form="final" d="m1330 293-838.999.001c-80.667 0-134.167 1.333-160.5 4s-54.833 9.667-85.5 21c-54.667 18.667-99.667 56.667-135 114s-53 121.333-53 192c0 27.333 1.333 51.833 4 73.5s8 47.167 16 76.5c11.333 43.333 24 79.666 38 108.999s38.667 69 74 119l56-40c-28.667-52.667-48.167-94.334-58.5-125.001s-15.5-61-15.5-91c0-38 12.167-72.167 36.5-102.5S263.667 593.333 303 584c23.333-6 53.833-10.667 91.5-14s77.167-5 118.5-5h723c-18.667 50.667-34 86.667-46 108-14 25.333-36.667 57.666-68 96.999l90 232c50-71.333 82.667-136.666 98-195.999 13.333-52 20-128.667 20-230V293zM755.001 1473l-100-208-188 100 102 204zm-53-169 186-96-100-208-188 100z"/><glyph glyph-name="uniFB60" unicode="ٺ" horiz-adv-x="556" d="m556 293-626.001.001v272h526C448.666 610.334 435.333 648.667 416 680c-10 17.333-33.333 47.333-70 90l80 238c50-56.667 84.167-116 102.5-178S556 676 556 554V293zM314.999 1599l-100-208-188 100 102 204zm-53-169 186-96-100-208-188 100z"/><glyph glyph-name="uniFB61" unicode="ٺ" horiz-adv-x="556" arabic-form="medial" d="m556 293-626.001.001v272h526C448.666 610.334 435.333 648.667 416 680c-10 17.333-33.333 47.333-70 90l80 238c50-56.667 84.167-116 102.5-178S556 676 556 554V293zM314.999 1599l-100-208-188 100 102 204zm-53-169 186-96-100-208-188 100z"/><glyph glyph-name="uniFB63" unicode="ٿ" horiz-adv-x="1330" arabic-form="final" d="m1330 293-838.999.001c-80.667 0-134.167 1.333-160.5 4s-54.833 9.667-85.5 21c-54.667 18.667-99.667 56.667-135 114s-53 121.333-53 192c0 27.333 1.333 51.833 4 73.5s8 47.167 16 76.5c11.333 43.333 24 79.666 38 108.999s38.667 69 74 119l56-40c-28.667-52.667-48.167-94.334-58.5-125.001s-15.5-61-15.5-91c0-38 12.167-72.167 36.5-102.5S263.667 593.333 303 584c23.333-6 53.833-10.667 91.5-14s77.167-5 118.5-5h723c-18.667 50.667-34 86.667-46 108-14 25.333-36.667 57.666-68 96.999l90 232c50-71.333 82.667-136.666 98-195.999 13.333-52 20-128.667 20-230V293zM872.001 1501l-104-194-148 74-84-162-182 102 110 204 142-80 80 158zm-275-241 142-80 80 158 186-102-104-194-148 74-84-162-182 102z"/><glyph glyph-name="uniFB64" unicode="ٿ" horiz-adv-x="556" d="m556 293-626.001.001v272h526C448.666 610.334 435.333 648.667 416 680c-10 17.333-33.333 47.333-70 90l80 238c50-56.667 84.167-116 102.5-178S556 676 556 554V293zm-84.001 1334-104-194-148 74-84-162-182 102 110 204 142-80 80 158zm-275-241 142-80 80 158 186-102-104-194-148 74-84-162-182 102z"/><glyph glyph-name="uniFB65" unicode="ٿ" horiz-adv-x="556" arabic-form="medial" d="m556 293-626.001.001v272h526C448.666 610.334 435.333 648.667 416 680c-10 17.333-33.333 47.333-70 90l80 238c50-56.667 84.167-116 102.5-178S556 676 556 554V293zm-84.001 1334-104-194-148 74-84-162-182 102 110 204 142-80 80 158zm-275-241 142-80 80 158 186-102-104-194-148 74-84-162-182 102z"/><glyph glyph-name="uniFB67" unicode="ٹ" horiz-adv-x="1330" arabic-form="final" d="m1330 293-838.999.001c-80.667 0-134.167 1.333-160.5 4s-54.833 9.667-85.5 21c-54.667 18.667-99.667 56.667-135 114s-53 121.333-53 192c0 27.333 1.333 51.833 4 73.5s8 47.167 16 76.5c11.333 43.333 24 79.666 38 108.999s38.667 69 74 119l56-40c-28.667-52.667-48.167-94.334-58.5-125.001s-15.5-61-15.5-91c0-38 12.167-72.167 36.5-102.5S263.667 593.333 303 584c23.333-6 53.833-10.667 91.5-14s77.167-5 118.5-5h723c-18.667 50.667-34 86.667-46 108-14 25.333-36.667 57.666-68 96.999l90 232c50-71.333 82.667-136.666 98-195.999 13.333-52 20-128.667 20-230V293zm-364.999 769L421 1061.997v130h64c8 0 29.333 13 64 39 14.667 10.667 31.667 24 51 40 0 67.333-6 128.333-18 183l-26 104-28 17c10 46.667 25.333 93.334 46 140.001l22-9c-1.333-4-2-8-2-12 0-11.333 15.667-24.666 47-39.999 7.333-3.333 23-9.666 47-18.999-3.333-26-8.333-49.333-15-70-3.333-9.333-9.666-26-18.999-50l-17 6c16.667-76.667 25-129 25-157v-6c0-14-1.667-29.333-5-46 26 19.333 65.667 46 119 80 26.667 14.667 47 22 61 22 85.333 0 128-41.333 128-124v-228zM899 1240c0 18.667-12 31.667-36 39-14 4.667-34.333 7-61 7-40 0-101.667-31.333-185-94h125c104.667 0 157 16 157 48z"/><glyph glyph-name="uniFB68" unicode="ٹ" horiz-adv-x="556" d="m556 293-626.001.001v272h526C448.666 610.334 435.333 648.667 416 680c-10 17.333-33.333 47.333-70 90l80 238c50-56.667 84.167-116 102.5-178S556 676 556 554V293zm-.001 769-544.001-.003v130h64c8 0 29.333 13 64 39 14.667 10.667 31.667 24 51 40 0 67.333-6 128.333-18 183l-26 104-28 17c10 46.667 25.333 93.334 46 140.001l22-9c-1.333-4-2-8-2-12 0-11.333 15.667-24.666 47-39.999 7.333-3.333 23-9.666 47-18.999-3.333-26-8.333-49.333-15-70-3.333-9.333-9.666-26-18.999-50l-17 6c16.667-76.667 25-129 25-157v-6c0-14-1.667-29.333-5-46 26 19.333 65.667 46 119 80 26.667 14.667 47 22 61 22 85.333 0 128-41.333 128-124v-228zm-66.001 178c0 18.667-12 31.667-36 39-14 4.667-34.333 7-61 7-40 0-101.667-31.333-185-94h125c104.667 0 157 16 157 48z"/><glyph glyph-name="uniFB69" unicode="ٹ" horiz-adv-x="556" arabic-form="medial" d="m556 293-626.001.001v272h526C448.666 610.334 435.333 648.667 416 680c-10 17.333-33.333 47.333-70 90l80 238c50-56.667 84.167-116 102.5-178S556 676 556 554V293zm-.001 769-544.001-.003v130h64c8 0 29.333 13 64 39 14.667 10.667 31.667 24 51 40 0 67.333-6 128.333-18 183l-26 104-28 17c10 46.667 25.333 93.334 46 140.001l22-9c-1.333-4-2-8-2-12 0-11.333 15.667-24.666 47-39.999 7.333-3.333 23-9.666 47-18.999-3.333-26-8.333-49.333-15-70-3.333-9.333-9.666-26-18.999-50l-17 6c16.667-76.667 25-129 25-157v-6c0-14-1.667-29.333-5-46 26 19.333 65.667 46 119 80 26.667 14.667 47 22 61 22 85.333 0 128-41.333 128-124v-228zm-66.001 178c0 18.667-12 31.667-36 39-14 4.667-34.333 7-61 7-40 0-101.667-31.333-185-94h125c104.667 0 157 16 157 48z"/><glyph glyph-name="uniFB6B" unicode="ڤ" horiz-adv-x="1552" arabic-form="final" d="m1552 293-134.001.001c-116.667 0-249-2.667-397-8-89.333-3.333-205.333-8.333-348-15s-219.334-10-230.001-10c-142 0-244.667 25-308 75-58.667 46.667-88 119-88 217 0 76 7.333 142.333 22 199s48.667 148.334 102 275.001l66-30c-48-114-72-197.333-72-250 0-68.667 27-118 81-148 60-33.333 163.667-50 311-50 102 6 201.333 11.167 298 15.5s189.334 6.5 278.001 6.5c-27.333 13.333-46.166 28.166-56.499 44.499S1061 654.667 1061 686c0 95.333 29 190.333 87 285 62.667 102 131.667 153 207 153 70.667 0 122-49.333 154-148 28.667-89.333 43-226.333 43-411V293zm-156 399.001c-23.333 65.333-42.666 108.333-57.999 129s-35.333 31-60 31c-12.667 0-23.834-4.833-33.501-14.5s-14.5-22.167-14.5-37.5c0-20.667 14.333-40 43-58s69.667-34.667 123-50zM1306 1689l-100-208-188 100 102 204zm194-237-110-204-142 80-80-158-186 102 104 194 148-74 84 162z"/><glyph glyph-name="uniFB6C" unicode="ڤ" horiz-adv-x="624" d="m624 293-694 .001v272h600c0 58-1.667 99.333-5 124-5.333 38-16.333 71-33 99-21.333-41.333-50-73-86-95s-74.333-33-115-33c-53.333 0-98.333 17.667-135 53S101 792.667 101 846c0 78.667 24 172 72 280 52.667 118.667 106 178 160 178 70 0 136-61 198-183s93-251 93-387V293zM407 966.001c-18 31.333-33.833 53.166-47.5 65.499S331 1050 315 1050c-20 0-38-9-54-27s-24-39-24-63c0-15.333 6.167-28.166 18.5-38.499s28.166-15.5 47.499-15.5c15.333 0 30.833 4.5 46.5 13.5s34.834 24.5 57.501 46.5zM288 1624l-57-96-130 36 54 96zm175-49-57-96-130 36 54 96zm-217-88-57-96-130 36 54 96z"/><glyph glyph-name="uniFB6D" unicode="ڤ" horiz-adv-x="664" arabic-form="medial" d="m664 293-733.999.001v272h180c30.667 0 59.667-1.333 87-4l251-27c-99.333 22-168.833 51.167-208.5 87.5s-59.5 89.166-59.5 158.499c0 103.333 23.833 196.5 71.5 279.5s101.167 124.5 160.5 124.5c67.333 0 126.166-58.167 176.499-174.5S664 752.667 664 588V293zM528.001 708.001c-24 57.333-50.668 102-80.001 134s-58.666 48-87.999 48c-13.333 0-25-4.333-35-13s-15-19-15-31c0-28.667 21.5-56.5 64.5-83.5s94.167-45.167 153.5-54.5zM346 1729l-100-208-188 100 102 204zm194-237-110-204-142 80-80-158-186 102 104 194 148-74 84 162z"/><glyph glyph-name="uniFB6F" unicode="ڦ" horiz-adv-x="1552" arabic-form="final" d="m1552 293-134.001.001c-116.667 0-249-2.667-397-8-89.333-3.333-205.333-8.333-348-15s-219.334-10-230.001-10c-142 0-244.667 25-308 75-58.667 46.667-88 119-88 217 0 76 7.333 142.333 22 199s48.667 148.334 102 275.001l66-30c-48-114-72-197.333-72-250 0-68.667 27-118 81-148 60-33.333 163.667-50 311-50 102 6 201.333 11.167 298 15.5s189.334 6.5 278.001 6.5c-27.333 13.333-46.166 28.166-56.499 44.499S1061 654.667 1061 686c0 95.333 29 190.333 87 285 62.667 102 131.667 153 207 153 70.667 0 122-49.333 154-148 28.667-89.333 43-226.333 43-411V293zm-156 399.001c-23.333 65.333-42.666 108.333-57.999 129s-35.333 31-60 31c-12.667 0-23.834-4.833-33.501-14.5s-14.5-22.167-14.5-37.5c0-20.667 14.333-40 43-58s69.667-34.667 123-50zM1372 1707l-104-194-148 74-84-162-182 102 110 204 142-80 80 158zm-275-241 142-80 80 158 186-102-104-194-148 74-84-162-182 102z"/><glyph glyph-name="uniFB70" unicode="ڦ" horiz-adv-x="624" d="m624 293-694 .001v272h600c0 58-1.667 99.333-5 124-5.333 38-16.333 71-33 99-21.333-41.333-50-73-86-95s-74.333-33-115-33c-53.333 0-98.333 17.667-135 53S101 792.667 101 846c0 78.667 24 172 72 280 52.667 118.667 106 178 160 178 70 0 136-61 198-183s93-251 93-387V293zM407 966.001c-18 31.333-33.833 53.166-47.5 65.499S331 1050 315 1050c-20 0-38-9-54-27s-24-39-24-63c0-15.333 6.167-28.166 18.5-38.499s28.166-15.5 47.499-15.5c15.333 0 30.833 4.5 46.5 13.5s34.834 24.5 57.501 46.5zM504 1536l-54-105-144 44 56 105zm-209-91-54-105-144 44 56 105zm109 281-54-105-144 44 56 105zm-209-91-54-105-144 44 56 105z"/><glyph glyph-name="uniFB71" unicode="ڦ" horiz-adv-x="664" arabic-form="medial" d="m664 293-733.999.001v272h180c30.667 0 59.667-1.333 87-4l251-27c-99.333 22-168.833 51.167-208.5 87.5s-59.5 89.166-59.5 158.499c0 103.333 23.833 196.5 71.5 279.5s101.167 124.5 160.5 124.5c67.333 0 126.166-58.167 176.499-174.5S664 752.667 664 588V293zM528.001 708.001c-24 57.333-50.668 102-80.001 134s-58.666 48-87.999 48c-13.333 0-25-4.333-35-13s-15-19-15-31c0-28.667 21.5-56.5 64.5-83.5s94.167-45.167 153.5-54.5zM498 1723l-104-194-148 74-84-162-182 102 110 204 142-80 80 158zm-275-241 142-80 80 158 186-102-104-194-148 74-84-162-182 102z"/><glyph glyph-name="uniFB73" unicode="ڄ" horiz-adv-x="1144" arabic-form="final" d="M1144 293H988.001c-117.333 0-197.333 17-240 51s-64 98-64 192c0 42 2.667 82.333 8 121 2 13.333 7.333 45 16 95-152-35.333-274.667-96.333-368-183-96-89.333-144-191-144-305 0-133.333 57.167-236 171.5-308S646.667-152 862-152c63.333 0 154 6 272 18l18-32-380-244-96-2c-195.333 0-345.833 49.5-451.5 148.5S66-23.333 66 160c0 139.333 31.833 268.5 95.5 387.5S306.667 752.667 406 806h-22c-62 0-113.167-5.833-153.5-17.5S129.334 750 48.001 708c30 248 151.333 372 364 372 24.667 0 71.667-3.833 141-11.5s131-13.5 185-17.5c101.333-7.333 200.666-11 297.999-11l-60-242c-39.333 0-73-2.333-101-7l-101-21c-2-12.667-3.833-27-5.5-43s-2.5-28.333-2.5-37c0-47.333 15.667-80 47-98s89.333-27 174-27h157V293zM605.001 433l-100-208-188 100 102 204zm-53-169 186-96-100-208-188 100z"/><glyph glyph-name="uniFB74" unicode="ڄ" horiz-adv-x="1072" d="m1072 293-1142-.002v272h711c-80.667 83.333-155.334 143.333-224.001 180-60.667 32.667-120 49-178 49-17.333 0-33.166-.833-47.499-2.5s-35.166-5.5-62.499-11.5c36.667 84 77.5 146 122.5 186s96.167 60 153.5 60c44 0 86.333-10.667 127-32s86.334-55.666 137.001-102.999c40-37.333 96.667-95.666 170-174.999 50-56 88.167-92.333 114.5-109s65.833-30.667 118.5-42V293zM614.998 122.998l-100-208-188 100 102 204zm-53-169 186-96-100-208-188 100z"/><glyph glyph-name="uniFB75" unicode="ڄ" horiz-adv-x="1072" arabic-form="medial" d="m1072 293-1142-.002v272h711c-80.667 83.333-155.334 143.333-224.001 180-60.667 32.667-120 49-178 49-17.333 0-33.166-.833-47.499-2.5s-35.166-5.5-62.499-11.5c36.667 84 77.5 146 122.5 186s96.167 60 153.5 60c44 0 86.333-10.667 127-32s86.334-55.666 137.001-102.999c40-37.333 96.667-95.666 170-174.999 50-56 88.167-92.333 114.5-109s65.833-30.667 118.5-42V293zM614.998 122.998l-100-208-188 100 102 204zm-53-169 186-96-100-208-188 100z"/><glyph glyph-name="uniFB77" unicode="ڃ" horiz-adv-x="1144" arabic-form="final" d="M1144 293H988.001c-117.333 0-197.333 17-240 51s-64 98-64 192c0 42 2.667 82.333 8 121 2 13.333 7.333 45 16 95-152-35.333-274.667-96.333-368-183-96-89.333-144-191-144-305 0-133.333 57.167-236 171.5-308S646.667-152 862-152c63.333 0 154 6 272 18l18-32-380-244-96-2c-195.333 0-345.833 49.5-451.5 148.5S66-23.333 66 160c0 139.333 31.833 268.5 95.5 387.5S306.667 752.667 406 806h-22c-62 0-113.167-5.833-153.5-17.5S129.334 750 48.001 708c30 248 151.333 372 364 372 24.667 0 71.667-3.833 141-11.5s131-13.5 185-17.5c101.333-7.333 200.666-11 297.999-11l-60-242c-39.333 0-73-2.333-101-7l-101-21c-2-12.667-3.833-27-5.5-43s-2.5-28.333-2.5-37c0-47.333 15.667-80 47-98s89.333-27 174-27h157V293zm-363.999-16-104-194-148 74-84-162-182 102 110 204 142-80 80 158z"/><glyph glyph-name="uniFB78" unicode="ڃ" horiz-adv-x="1072" d="m1072 293-1142-.002v272h711c-80.667 83.333-155.334 143.333-224.001 180-60.667 32.667-120 49-178 49-17.333 0-33.166-.833-47.499-2.5s-35.166-5.5-62.499-11.5c36.667 84 77.5 146 122.5 186s96.167 60 153.5 60c44 0 86.333-10.667 127-32s86.334-55.666 137.001-102.999c40-37.333 96.667-95.666 170-174.999 50-56 88.167-92.333 114.5-109s65.833-30.667 118.5-42V293zM799.998 116.998l-104-194-148 74-84-162-182 102 110 204 142-80 80 158z"/><glyph glyph-name="uniFB79" unicode="ڃ" horiz-adv-x="1072" arabic-form="medial" d="m1072 293-1142-.002v272h711c-80.667 83.333-155.334 143.333-224.001 180-60.667 32.667-120 49-178 49-17.333 0-33.166-.833-47.499-2.5s-35.166-5.5-62.499-11.5c36.667 84 77.5 146 122.5 186s96.167 60 153.5 60c44 0 86.333-10.667 127-32s86.334-55.666 137.001-102.999c40-37.333 96.667-95.666 170-174.999 50-56 88.167-92.333 114.5-109s65.833-30.667 118.5-42V293zM799.998 116.998l-104-194-148 74-84-162-182 102 110 204 142-80 80 158z"/><glyph glyph-name="uniFB7B" unicode="چ" horiz-adv-x="1144" arabic-form="final" d="M1144 293H988.001c-117.333 0-197.333 17-240 51s-64 98-64 192c0 42 2.667 82.333 8 121 2 13.333 7.333 45 16 95-152-35.333-274.667-96.333-368-183-96-89.333-144-191-144-305 0-133.333 57.167-236 171.5-308S646.667-152 862-152c63.333 0 154 6 272 18l18-32-380-244-96-2c-195.333 0-345.833 49.5-451.5 148.5S66-23.333 66 160c0 139.333 31.833 268.5 95.5 387.5S306.667 752.667 406 806h-22c-62 0-113.167-5.833-153.5-17.5S129.334 750 48.001 708c30 248 151.333 372 364 372 24.667 0 71.667-3.833 141-11.5s131-13.5 185-17.5c101.333-7.333 200.666-11 297.999-11l-60-242c-39.333 0-73-2.333-101-7l-101-21c-2-12.667-3.833-27-5.5-43s-2.5-28.333-2.5-37c0-47.333 15.667-80 47-98s89.333-27 174-27h157V293zm-457.999 88-88-165-126 63-72-138-154 87 93 173 121-68 68 135zm-31-263-86-173-158 82 85 176z"/><glyph glyph-name="uniFB7C" unicode="چ" horiz-adv-x="1072" d="m1072 293-1142-.002v272h711c-80.667 83.333-155.334 143.333-224.001 180-60.667 32.667-120 49-178 49-17.333 0-33.166-.833-47.499-2.5s-35.166-5.5-62.499-11.5c36.667 84 77.5 146 122.5 186s96.167 60 153.5 60c44 0 86.333-10.667 127-32s86.334-55.666 137.001-102.999c40-37.333 96.667-95.666 170-174.999 50-56 88.167-92.333 114.5-109s65.833-30.667 118.5-42V293zM764.998 116.998l-104-194-148 74-84-162-182 102 110 204 142-80 80 158zm-36-309-102-204-186 96 100 208z"/><glyph glyph-name="uniFB7D" unicode="چ" horiz-adv-x="1072" arabic-form="medial" d="m1072 293-1142-.002v272h711c-80.667 83.333-155.334 143.333-224.001 180-60.667 32.667-120 49-178 49-17.333 0-33.166-.833-47.499-2.5s-35.166-5.5-62.499-11.5c36.667 84 77.5 146 122.5 186s96.167 60 153.5 60c44 0 86.333-10.667 127-32s86.334-55.666 137.001-102.999c40-37.333 96.667-95.666 170-174.999 50-56 88.167-92.333 114.5-109s65.833-30.667 118.5-42V293zM764.998 116.998l-104-194-148 74-84-162-182 102 110 204 142-80 80 158zm-36-309-102-204-186 96 100 208z"/><glyph glyph-name="uniFB7F" unicode="ڇ" horiz-adv-x="1144" arabic-form="final" d="M1144 293H988.001c-117.333 0-197.333 17-240 51s-64 98-64 192c0 42 2.667 82.333 8 121 2 13.333 7.333 45 16 95-152-35.333-274.667-96.333-368-183-96-89.333-144-191-144-305 0-133.333 57.167-236 171.5-308S646.667-152 862-152c63.333 0 154 6 272 18l18-32-380-244-96-2c-195.333 0-345.833 49.5-451.5 148.5S66-23.333 66 160c0 139.333 31.833 268.5 95.5 387.5S306.667 752.667 406 806h-22c-62 0-113.167-5.833-153.5-17.5S129.334 750 48.001 708c30 248 151.333 372 364 372 24.667 0 71.667-3.833 141-11.5s131-13.5 185-17.5c101.333-7.333 200.666-11 297.999-11l-60-242c-39.333 0-73-2.333-101-7l-101-21c-2-12.667-3.833-27-5.5-43s-2.5-28.333-2.5-37c0-47.333 15.667-80 47-98s89.333-27 174-27h157V293zm-389.999-97-54-105-144 44 56 105zm-209-91-54-105-144 44 56 105zm109 281-54-105-144 44 56 105zm-209-91-54-105-144 44 56 105z"/><glyph glyph-name="uniFB80" unicode="ڇ" horiz-adv-x="1072" d="m1072 293-1142-.002v272h711c-80.667 83.333-155.334 143.333-224.001 180-60.667 32.667-120 49-178 49-17.333 0-33.166-.833-47.499-2.5s-35.166-5.5-62.499-11.5c36.667 84 77.5 146 122.5 186s96.167 60 153.5 60c44 0 86.333-10.667 127-32s86.334-55.666 137.001-102.999c40-37.333 96.667-95.666 170-174.999 50-56 88.167-92.333 114.5-109s65.833-30.667 118.5-42V293zM751.998 116.998l-104-194-148 74-84-162-182 102 110 204 142-80 80 158zm-275-241 142-80 80 158 186-102-104-194-148 74-84-162-182 102z"/><glyph glyph-name="uniFB81" unicode="ڇ" horiz-adv-x="1072" arabic-form="medial" d="m1072 293-1142-.002v272h711c-80.667 83.333-155.334 143.333-224.001 180-60.667 32.667-120 49-178 49-17.333 0-33.166-.833-47.499-2.5s-35.166-5.5-62.499-11.5c36.667 84 77.5 146 122.5 186s96.167 60 153.5 60c44 0 86.333-10.667 127-32s86.334-55.666 137.001-102.999c40-37.333 96.667-95.666 170-174.999 50-56 88.167-92.333 114.5-109s65.833-30.667 118.5-42V293zM751.998 116.998l-104-194-148 74-84-162-182 102 110 204 142-80 80 158zm-275-241 142-80 80 158 186-102-104-194-148 74-84-162-182 102z"/><glyph glyph-name="uniFB83" unicode="ڍ" horiz-adv-x="702" arabic-form="final" d="M702 293H249.001c-44 0-77.667 9.333-101 28-28.667 22.667-43 59.667-43 111 0 29.333 1.5 61 4.5 95s7.5 68.333 13.5 103l38 2c5.333-23.333 17.166-40.333 35.499-51s40.5-16 66.5-16h344c-15.333 98-42 176.333-80 235-31.333 48.667-75 90.667-131 126l72 312c86.667-64.667 148-148 184-250 33.333-94 50-218.667 50-374V293zm-21.999-176-104-194-148 74-84-162-182 102 110 204 142-80 80 158z"/><glyph glyph-name="uniFB85" unicode="ڌ" horiz-adv-x="702" arabic-form="final" d="M702 293H249.001c-44 0-77.667 9.333-101 28-28.667 22.667-43 59.667-43 111 0 29.333 1.5 61 4.5 95s7.5 68.333 13.5 103l38 2c5.333-23.333 17.166-40.333 35.499-51s40.5-16 66.5-16h344c-15.333 98-42 176.333-80 235-31.333 48.667-75 90.667-131 126l72 312c86.667-64.667 148-148 184-250 33.333-94 50-218.667 50-374V293zm-81.999 1344-104-194-148 74-84-162-182 102 110 204 142-80 80 158z"/><glyph glyph-name="uniFB87" unicode="ڎ" horiz-adv-x="702" arabic-form="final" d="m702 293-452.999-.001c-44 0-77.667 9.333-101 28-28.667 22.667-43 59.667-43 111 0 29.333 1.5 61 4.5 95s7.5 68.333 13.5 103l38 2c5.333-23.333 17.166-40.333 35.499-51s40.5-16 66.5-16h344c-15.333 64.667-42 119.667-80 165-31.333 42-75 74-131 96l72 312c86.667-51.333 148-124.666 184-219.999 33.333-80.667 50-182 50-304V293zM446.001 1723l-100-208-188 100 102 204zm194-237-110-204-142 80-80-158-186 102 104 194 148-74 84 162z"/><glyph glyph-name="uniFB89" unicode="ڈ" horiz-adv-x="702" arabic-form="final" d="m702 293-452.999-.001c-44 0-77.667 9.333-101 28-28.667 22.667-43 59.667-43 111 0 29.333 1.5 61 4.5 95s7.5 68.333 13.5 103l38 2c5.333-23.333 17.166-40.333 35.499-51s40.5-16 66.5-16h344c-15.333 64.667-42 119.667-80 165-31.333 42-75 74-131 96l72 312c86.667-51.333 148-124.666 184-219.999 33.333-80.667 50-182 50-304V293zm-78.999 879L79 1171.997v130h64c8 0 29.333 13 64 39 14.667 10.667 31.667 24 51 40 0 67.333-6 128.333-18 183l-26 104-28 17c10 46.667 25.333 93.334 46 140.001l22-9c-1.333-4-2-8-2-12 0-11.333 15.667-24.666 47-39.999 7.333-3.333 23-9.666 47-18.999-3.333-26-8.333-49.333-15-70-3.333-9.333-9.666-26-18.999-50l-17 6c16.667-76.667 25-129 25-157v-6c0-14-1.667-29.333-5-46 26 19.333 65.667 46 119 80 26.667 14.667 47 22 61 22 85.333 0 128-41.333 128-124v-228zM557 1350c0 18.667-12 31.667-36 39-14 4.667-34.333 7-61 7-40 0-101.667-31.333-185-94h125c104.667 0 157 16 157 48z"/><glyph glyph-name="uniFB8B" unicode="ژ" horiz-adv-x="886" arabic-form="final" d="M886 270c0-40.667-23.333-94.499-70-161.499S714.666-16.666 651.999-65.999c-69.333-54.667-128.666-82-177.999-82-58.667 0-121.667 16.667-189 50-58.667 28.667-150.334 86-275.001 172l42 62c60-40 108.333-67 145-81s76.334-21 119.001-21c46 0 92 13 138 39s108.667 74.333 188 145c110.667 98.667 166 174.667 166 228 0 26.667-10.667 61.667-32 105-24 49.333-53.333 90.333-88 123l56 270C789.333 897.334 824.333 843.667 849 783s37-129.667 37-207V270zM721 1569l-100-208-188 100 102 204zm194-237-110-204-142 80-80-158-186 102 104 194 148-74 84 162z"/><glyph glyph-name="uniFB8D" unicode="ڑ" horiz-adv-x="886" arabic-form="final" d="M886 270c0-40.667-23.333-94.499-70-161.499S714.666-16.666 651.999-65.999c-69.333-54.667-128.666-82-177.999-82-58.667 0-121.667 16.667-189 50-58.667 28.667-150.334 86-275.001 172l42 62c60-40 108.333-67 145-81s76.334-21 119.001-21c46 0 92 13 138 39s108.667 74.333 188 145c110.667 98.667 166 174.667 166 228 0 26.667-10.667 61.667-32 105-24 49.333-53.333 90.333-88 123l56 270C789.333 897.334 824.333 843.667 849 783s37-129.667 37-207V270zm-34 792-544.001-.003v130h64c8 0 29.333 13 64 39 14.667 10.667 31.667 24 51 40 0 67.333-6 128.333-18 183l-26 104-28 17c10 46.667 25.333 93.334 46 140.001l22-9c-1.333-4-2-8-2-12 0-11.333 15.667-24.666 47-39.999 7.333-3.333 23-9.666 47-18.999-3.333-26-8.333-49.333-15-70-3.333-9.333-9.666-26-18.999-50l-17 6c16.667-76.667 25-129 25-157v-6c0-14-1.667-29.333-5-46 26 19.333 65.667 46 119 80 26.667 14.667 47 22 61 22 85.333 0 128-41.333 128-124v-228zm-66.001 178c0 18.667-12 31.667-36 39-14 4.667-34.333 7-61 7-40 0-101.667-31.333-185-94h125c104.667 0 157 16 157 48z"/><glyph glyph-name="uniFB8F" unicode="ک" horiz-adv-x="1800" arabic-form="final" d="M790 565c72 0 126.336 1.665 163.003 4.998 57.333 5.333 101.333 15.666 132 30.999 36 18 54 44.667 54 80 0 18-11.333 40.333-34 67s-47.667 47.334-75 62.001l-35-35c-51.333 48.667-83.333 80-96 94-37.333 42-56 87.333-56 136 0 67.333 4.667 114.666 14 141.999 13.333 38.667 41.666 73 84.999 103 36.667 25.333 86 52 148 80 50 22.667 110.667 47.667 182 75l193 73v-238l-107-33c-82-26-149-49-201-69-72-28-108-47.667-108-59-.667-10-1-17-1-21 0-15.333 7-31 21-47 18.667-21.333 57.667-55.333 117-102 43.333-34.667 104-89 182-163 66-63.333 115.333-106.333 148-129 49.333-34.667 96-52 140-52h144v-272h-136c-50 0-105.667 21.667-167 65-50 35.333-101.333 82-154 140-28 30.667-64.667 75.334-110 134.001 0-111.333-36.667-194.666-110-249.999-78.667-59.333-204.334-89-377.001-89h-309c-144 0-247.667 24.667-311 74-56.667 44-85 112.333-85 205 0 62 9.5 122.833 28.5 182.5s51.5 130.834 97.5 213.501l60-42c-26-51.333-42.833-89.5-50.5-114.5s-11.5-51.5-11.5-79.5c0-64 23.667-107.833 71-131.5S373.667 565 507 565h283z"/><glyph glyph-name="uniFB90" unicode="ک" horiz-adv-x="738" d="m738 293-808 .001v272h649c-26 31.333-51.333 58.666-76 81.999-20 18.667-47 41.334-81 68.001l-113 88-32-36c-59.333 58.667-94.666 94.334-105.999 107.001-33.333 38-50 81.667-50 131 0 67.333 4.667 114.666 14 141.999 13.333 38.667 41.666 73 84.999 103 38.667 26.667 80 51 124 73 34.667 17.333 80.667 37.666 138 60.999l169 66v-238c-3.333 0-31.333-8.667-84-26-65.333-21.333-117.333-40-156-56-56-22.667-84-39.667-84-51 0-6 23.667-32 71-78 64.667-62.667 119-120 163-172 72.667-86 131.667-171.667 177-257V293z"/><glyph glyph-name="uniFB91" unicode="ک" horiz-adv-x="1110" arabic-form="medial" d="m-70 293 .002 271.999h170c72 0 126.333 1.667 163 5 57.333 5.333 101.333 15.666 132 30.999 36 18 54 44.667 54 80 0 18-11.333 40.333-34 67s-47.667 47.334-75 62.001l-35-35c-51.333 48.667-83.333 80-96 94-37.333 42-56 87.333-56 136 0 67.333 4.667 114.666 14 141.999 13.333 38.667 41.666 73 84.999 103 36.667 25.333 86 52 148 80 50 22.667 110.667 47.667 182 75l193 73v-238l-107-33c-82-26-149-49-201-69-72-28-108-47.667-108-59-.667-10-1-17-1-21 0-15.333 7-31 21-47 18.667-21.333 57.667-55.333 117-102 43.333-34.667 104-89 182-163 66-63.333 115.333-106.333 148-129 49.333-34.667 96-52 140-52h144v-272h-136c-50 0-105.667 21.667-167 65-50 35.333-101.333 82-154 140-28 30.667-64.667 75.334-110 134.001 0-111.333-36.667-194.666-110-249.999C354.334 322.667 228.667 293 56 293H-70z"/><glyph glyph-name="uniFB93" unicode="گ" horiz-adv-x="1800" arabic-form="final" d="M790 565c72 0 126.336 1.665 163.003 4.998 57.333 5.333 101.333 15.666 132 30.999 36 18 54 44.667 54 80 0 18-11.333 40.333-34 67s-47.667 47.334-75 62.001l-35-35c-51.333 48.667-83.333 80-96 94-37.333 42-56 87.333-56 136 0 67.333 4.667 114.666 14 141.999 13.333 38.667 41.666 73 84.999 103 36.667 25.333 86 52 148 80 50 22.667 110.667 47.667 182 75l193 73v-238l-107-33c-82-26-149-49-201-69-72-28-108-47.667-108-59-.667-10-1-17-1-21 0-15.333 7-31 21-47 18.667-21.333 57.667-55.333 117-102 43.333-34.667 104-89 182-163 66-63.333 115.333-106.333 148-129 49.333-34.667 96-52 140-52h144v-272h-136c-50 0-105.667 21.667-167 65-50 35.333-101.333 82-154 140-28 30.667-64.667 75.334-110 134.001 0-111.333-36.667-194.666-110-249.999-78.667-59.333-204.334-89-377.001-89h-309c-144 0-247.667 24.667-311 74-56.667 44-85 112.333-85 205 0 62 9.5 122.833 28.5 182.5s51.5 130.834 97.5 213.501l60-42c-26-51.333-42.833-89.5-50.5-114.5s-11.5-51.5-11.5-79.5c0-64 23.667-107.833 71-131.5S373.667 565 507 565h283zm675 1230-.001-223.001c-143.333-52.667-267.333-103.667-372-153-96-45.333-172.333-87-229-125v154c22.667 22.667 62.334 53.334 119.001 92.001 66 44.667 136 87 210 127 91.333 49.333 182 92 272 128z"/><glyph glyph-name="uniFB94" unicode="گ" horiz-adv-x="738" d="m738 293-808 .001v272h649c-26 31.333-51.333 58.666-76 81.999-20 18.667-47 41.334-81 68.001l-113 88-32-36c-59.333 58.667-94.666 94.334-105.999 107.001-33.333 38-50 81.667-50 131 0 67.333 4.667 114.666 14 141.999 13.333 38.667 41.666 73 84.999 103 38.667 26.667 80 51 124 73 34.667 17.333 80.667 37.666 138 60.999l169 66v-238c-3.333 0-31.333-8.667-84-26-65.333-21.333-117.333-40-156-56-56-22.667-84-39.667-84-51 0-6 23.667-32 71-78 64.667-62.667 119-120 163-172 72.667-86 131.667-171.667 177-257V293zm-87 1474-.001-223.001c-143.333-52.667-267.333-103.667-372-153-96-45.333-172.333-87-229-125v154C72.666 1442.666 112.333 1473.333 169 1512c66 44.667 136 87 210 127 91.333 49.333 182 92 272 128z"/><glyph glyph-name="uniFB95" unicode="گ" horiz-adv-x="1110" arabic-form="medial" d="m-70 293 .002 271.999h170c72 0 126.333 1.667 163 5 57.333 5.333 101.333 15.666 132 30.999 36 18 54 44.667 54 80 0 18-11.333 40.333-34 67s-47.667 47.334-75 62.001l-35-35c-51.333 48.667-83.333 80-96 94-37.333 42-56 87.333-56 136 0 67.333 4.667 114.666 14 141.999 13.333 38.667 41.666 73 84.999 103 36.667 25.333 86 52 148 80 50 22.667 110.667 47.667 182 75l193 73v-238l-107-33c-82-26-149-49-201-69-72-28-108-47.667-108-59-.667-10-1-17-1-21 0-15.333 7-31 21-47 18.667-21.333 57.667-55.333 117-102 43.333-34.667 104-89 182-163 66-63.333 115.333-106.333 148-129 49.333-34.667 96-52 140-52h144v-272h-136c-50 0-105.667 21.667-167 65-50 35.333-101.333 82-154 140-28 30.667-64.667 75.334-110 134.001 0-111.333-36.667-194.666-110-249.999C354.334 322.667 228.667 293 56 293H-70zm845.002 1502-.001-223.001c-143.333-52.667-267.333-103.667-372-153-96-45.333-172.333-87-229-125v154c22.667 22.667 62.334 53.334 119.001 92.001 66 44.667 136 87 210 127 91.333 49.333 182 92 272 128z"/><glyph glyph-name="uniFB97" unicode="ڳ" horiz-adv-x="1800" arabic-form="final" d="M790 565c72 0 126.336 1.665 163.003 4.998 57.333 5.333 101.333 15.666 132 30.999 36 18 54 44.667 54 80 0 18-11.333 40.333-34 67s-47.667 47.334-75 62.001l-35-35c-51.333 48.667-83.333 80-96 94-37.333 42-56 87.333-56 136 0 67.333 4.667 114.666 14 141.999 13.333 38.667 41.666 73 84.999 103 36.667 25.333 86 52 148 80 50 22.667 110.667 47.667 182 75l193 73v-238l-107-33c-82-26-149-49-201-69-72-28-108-47.667-108-59-.667-10-1-17-1-21 0-15.333 7-31 21-47 18.667-21.333 57.667-55.333 117-102 43.333-34.667 104-89 182-163 66-63.333 115.333-106.333 148-129 49.333-34.667 96-52 140-52h144v-272h-136c-50 0-105.667 21.667-167 65-50 35.333-101.333 82-154 140-28 30.667-64.667 75.334-110 134.001 0-111.333-36.667-194.666-110-249.999-78.667-59.333-204.334-89-377.001-89h-309c-144 0-247.667 24.667-311 74-56.667 44-85 112.333-85 205 0 62 9.5 122.833 28.5 182.5s51.5 130.834 97.5 213.501l60-42c-26-51.333-42.833-89.5-50.5-114.5s-11.5-51.5-11.5-79.5c0-64 23.667-107.833 71-131.5S373.667 565 507 565h283zm675 1230-.001-223.001c-143.333-52.667-267.333-103.667-372-153-96-45.333-172.333-87-229-125v154c22.667 22.667 62.334 53.334 119.001 92.001 66 44.667 136 87 210 127 91.333 49.333 182 92 272 128zM755.002 122.997l-100-208-188 100 102 204zm-53-169 186-96-100-208-188 100z"/><glyph glyph-name="uniFB98" unicode="ڳ" horiz-adv-x="738" d="m738 293-808 .001v272h649c-26 31.333-51.333 58.666-76 81.999-20 18.667-47 41.334-81 68.001l-113 88-32-36c-59.333 58.667-94.666 94.334-105.999 107.001-33.333 38-50 81.667-50 131 0 67.333 4.667 114.666 14 141.999 13.333 38.667 41.666 73 84.999 103 38.667 26.667 80 51 124 73 34.667 17.333 80.667 37.666 138 60.999l169 66v-238c-3.333 0-31.333-8.667-84-26-65.333-21.333-117.333-40-156-56-56-22.667-84-39.667-84-51 0-6 23.667-32 71-78 64.667-62.667 119-120 163-172 72.667-86 131.667-171.667 177-257V293zm-87 1474-.001-223.001c-143.333-52.667-267.333-103.667-372-153-96-45.333-172.333-87-229-125v154C72.666 1442.666 112.333 1473.333 169 1512c66 44.667 136 87 210 127 91.333 49.333 182 92 272 128zM446.999 123l-100-208-188 100 102 204zm-53-169 186-96-100-208-188 100z"/><glyph glyph-name="uniFB99" unicode="ڳ" horiz-adv-x="1110" arabic-form="medial" d="m-70 293 .002 271.999h170c72 0 126.333 1.667 163 5 57.333 5.333 101.333 15.666 132 30.999 36 18 54 44.667 54 80 0 18-11.333 40.333-34 67s-47.667 47.334-75 62.001l-35-35c-51.333 48.667-83.333 80-96 94-37.333 42-56 87.333-56 136 0 67.333 4.667 114.666 14 141.999 13.333 38.667 41.666 73 84.999 103 36.667 25.333 86 52 148 80 50 22.667 110.667 47.667 182 75l193 73v-238l-107-33c-82-26-149-49-201-69-72-28-108-47.667-108-59-.667-10-1-17-1-21 0-15.333 7-31 21-47 18.667-21.333 57.667-55.333 117-102 43.333-34.667 104-89 182-163 66-63.333 115.333-106.333 148-129 49.333-34.667 96-52 140-52h144v-272h-136c-50 0-105.667 21.667-167 65-50 35.333-101.333 82-154 140-28 30.667-64.667 75.334-110 134.001 0-111.333-36.667-194.666-110-249.999C354.334 322.667 228.667 293 56 293H-70zm845.002 1502-.001-223.001c-143.333-52.667-267.333-103.667-372-153-96-45.333-172.333-87-229-125v154c22.667 22.667 62.334 53.334 119.001 92.001 66 44.667 136 87 210 127 91.333 49.333 182 92 272 128zM355.001 122.998l-100-208-188 100 102 204zm-53-169 186-96-100-208-188 100z"/><glyph glyph-name="uniFB9B" unicode="ڱ" horiz-adv-x="1800" arabic-form="final" d="M790 565c72 0 126.336 1.665 163.003 4.998 57.333 5.333 101.333 15.666 132 30.999 36 18 54 44.667 54 80 0 18-11.333 40.333-34 67s-47.667 47.334-75 62.001l-35-35c-51.333 48.667-83.333 80-96 94-37.333 42-56 87.333-56 136 0 67.333 4.667 114.666 14 141.999 13.333 38.667 41.666 73 84.999 103 36.667 25.333 86 52 148 80 50 22.667 110.667 47.667 182 75l193 73v-238l-107-33c-82-26-149-49-201-69-72-28-108-47.667-108-59-.667-10-1-17-1-21 0-15.333 7-31 21-47 18.667-21.333 57.667-55.333 117-102 43.333-34.667 104-89 182-163 66-63.333 115.333-106.333 148-129 49.333-34.667 96-52 140-52h144v-272h-136c-50 0-105.667 21.667-167 65-50 35.333-101.333 82-154 140-28 30.667-64.667 75.334-110 134.001 0-111.333-36.667-194.666-110-249.999-78.667-59.333-204.334-89-377.001-89h-309c-144 0-247.667 24.667-311 74-56.667 44-85 112.333-85 205 0 62 9.5 122.833 28.5 182.5s51.5 130.834 97.5 213.501l60-42c-26-51.333-42.833-89.5-50.5-114.5s-11.5-51.5-11.5-79.5c0-64 23.667-107.833 71-131.5S373.667 565 507 565h283zm675 1230-.001-223.001c-143.333-52.667-267.333-103.667-372-153-96-45.333-172.333-87-229-125v154c22.667 22.667 62.334 53.334 119.001 92.001 66 44.667 136 87 210 127 91.333 49.333 182 92 272 128zm-231-14-54-105-144 44 56 105zm-209-91-54-105-144 44 56 105z"/><glyph glyph-name="uniFB9C" unicode="ڱ" horiz-adv-x="738" d="m738 293-808 .001v272h649c-26 31.333-51.333 58.666-76 81.999-20 18.667-47 41.334-81 68.001l-113 88-32-36c-59.333 58.667-94.666 94.334-105.999 107.001-33.333 38-50 81.667-50 131 0 67.333 4.667 114.666 14 141.999 13.333 38.667 41.666 73 84.999 103 38.667 26.667 80 51 124 73 34.667 17.333 80.667 37.666 138 60.999l169 66v-238c-3.333 0-31.333-8.667-84-26-65.333-21.333-117.333-40-156-56-56-22.667-84-39.667-84-51 0-6 23.667-32 71-78 64.667-62.667 119-120 163-172 72.667-86 131.667-171.667 177-257V293zm-87 1474-.001-223.001c-143.333-52.667-267.333-103.667-372-153-96-45.333-172.333-87-229-125v154C72.666 1442.666 112.333 1473.333 169 1512c66 44.667 136 87 210 127 91.333 49.333 182 92 272 128zm-197.001 14-54-105-144 44 56 105zm-209-91-54-105-144 44 56 105z"/><glyph glyph-name="uniFB9D" unicode="ڱ" horiz-adv-x="1110" arabic-form="medial" d="m-70 293 .002 271.999h170c72 0 126.333 1.667 163 5 57.333 5.333 101.333 15.666 132 30.999 36 18 54 44.667 54 80 0 18-11.333 40.333-34 67s-47.667 47.334-75 62.001l-35-35c-51.333 48.667-83.333 80-96 94-37.333 42-56 87.333-56 136 0 67.333 4.667 114.666 14 141.999 13.333 38.667 41.666 73 84.999 103 36.667 25.333 86 52 148 80 50 22.667 110.667 47.667 182 75l193 73v-238l-107-33c-82-26-149-49-201-69-72-28-108-47.667-108-59-.667-10-1-17-1-21 0-15.333 7-31 21-47 18.667-21.333 57.667-55.333 117-102 43.333-34.667 104-89 182-163 66-63.333 115.333-106.333 148-129 49.333-34.667 96-52 140-52h144v-272h-136c-50 0-105.667 21.667-167 65-50 35.333-101.333 82-154 140-28 30.667-64.667 75.334-110 134.001 0-111.333-36.667-194.666-110-249.999C354.334 322.667 228.667 293 56 293H-70zm845.002 1502-.001-223.001c-143.333-52.667-267.333-103.667-372-153-96-45.333-172.333-87-229-125v154c22.667 22.667 62.334 53.334 119.001 92.001 66 44.667 136 87 210 127 91.333 49.333 182 92 272 128zm-241.001-14-54-105-144 44 56 105zm-209-91-54-105-144 44 56 105z"/><glyph glyph-name="uniFB9F" unicode="ں" horiz-adv-x="1108" arabic-form="final" d="M1108 342c0-92-9.002-165.833-27.002-221.5s-47.5-100.5-88.5-134.5-101-61.833-180-83.5-160.5-32.5-244.5-32.5c-162 0-286.833 29.5-374.5 88.5S61.998 101.333 61.998 210c0 92.667 14 177.334 42 254.001 30.667 84.667 90.667 194.667 180 330l60-42c-66-112.667-109.167-194.334-129.5-245.001s-30.5-103-30.5-157c0-70 37.5-127.167 112.5-171.5s173.5-66.5 295.5-66.5c120 0 221 23 303 69s123 102.333 123 169c0 41.333-7.167 82.333-21.5 123s-45.166 105.667-92.499 195l88 270c46.667-84.667 75.334-143 86.001-175 20-58 30-131.667 30-221V342z"/><glyph glyph-name="uniFBA1" unicode="ڻ" horiz-adv-x="1108" arabic-form="final" d="M1108 342c0-92-9.002-165.833-27.002-221.5s-47.5-100.5-88.5-134.5-101-61.833-180-83.5-160.5-32.5-244.5-32.5c-162 0-286.833 29.5-374.5 88.5S61.998 101.333 61.998 210c0 92.667 14 177.334 42 254.001 30.667 84.667 90.667 194.667 180 330l60-42c-66-112.667-109.167-194.334-129.5-245.001s-30.5-103-30.5-157c0-70 37.5-127.167 112.5-171.5s173.5-66.5 295.5-66.5c120 0 221 23 303 69s123 102.333 123 169c0 41.333-7.167 82.333-21.5 123s-45.166 105.667-92.499 195l88 270c46.667-84.667 75.334-143 86.001-175 20-58 30-131.667 30-221V342zM871.998 982l-544.001-.003v130h64c8 0 29.333 13 64 39 14.667 10.667 31.667 24 51 40 0 67.333-6 128.333-18 183l-26 104-28 17c10 46.667 25.333 93.334 46 140.001l22-9c-1.333-4-2-8-2-12 0-11.333 15.667-24.666 47-39.999 7.333-3.333 23-9.666 47-18.999-3.333-26-8.333-49.333-15-70-3.333-9.333-9.666-26-18.999-50l-17 6c16.667-76.667 25-129 25-157v-6c0-14-1.667-29.333-5-46 26 19.333 65.667 46 119 80 26.667 14.667 47 22 61 22 85.333 0 128-41.333 128-124V982zm-66.001 178c0 18.667-12 31.667-36 39-14 4.667-34.333 7-61 7-40 0-101.667-31.333-185-94h125c104.667 0 157 16 157 48z"/><glyph glyph-name="uniFBA5" unicode="ۀ" horiz-adv-x="850" arabic-form="final" d="m850 293-131-.001c-24 0-46 5-66 15-38.667 19.333-71.334 54.666-98.001 105.999-36 70.667-59.333 167.334-70 290.001-45.333-56-80.666-95.667-105.999-119-36.667-34-67.334-51-92.001-51-12.667 0-28.667 2-48 6l-122 24c-52 10.667-84 18.334-96 23.001s-18 13-18 25c0 18 23.167 74.833 69.5 170.5s79.833 154.834 100.5 177.501c16.667 18 46.334 41.333 89.001 70 25.333 17.333 61.333 39.666 108 66.999l53 31c-2 9.333-3.5 18.833-4.5 28.5s-1.5 18.834-1.5 27.501c0 25.333 5.833 57.166 17.5 95.499S467 1365.333 497 1422l96-624c15.333-98 35.333-164.333 60-199 16-22.667 38-34 66-34h131V293zM461 857.999l-20 119.998-50-24c-36.667-19.333-66-37.333-88-54-16-13.333-29.333-25.666-40-36.999-13.333-14.667-20-25.667-20-33 0-9.333 11.667-16.666 35-21.999s46.333-8 69-8c14.667 0 30 4.167 46 12.5s38.667 23.5 68 45.5zM370 1363c-7.333-19.333-16.002-34-26.002-44-7.333-7.333-18.666-13.333-33.999-18l-216-66c13.333 24 25 40.5 35 49.5s28 17.167 54 24.5c-18.667 12-32.167 23.167-40.5 33.5s-12.5 20.5-12.5 30.5c0 8.667 2.667 18.5 8 29.5s12.333 21.833 21 32.5c43.333 58 86.333 87 129 87 12.667 0 22.834-4.167 30.501-12.5s11.5-19.166 11.5-32.499c0-10.667-1.5-19.834-4.5-27.501s-9.167-19.167-18.5-34.5c-33.333 16.667-56 25-68 25s-24-3-36-9c-8-4-15.333-9.333-22-16 0-8.667 16-22 48-40s55-27 69-27c8.667 0 32.667 5 72 15z"/><glyph glyph-name="uniFBA6" unicode="ہ" horiz-adv-x="702" arabic-form="isolated" d="M622 668c0-40-3.168-80.502-9.501-121.502s-14.5-74.5-24.5-100.5c-18.667-50.667-64.667-95.334-138-134.001-68-36-132-54-192-54-52 0-93.333 18-124 54s-46 84-46 144c0 54.667 7.833 108.334 23.5 161.001s43.834 119 84.501 199l-36 24c11.333 30.667 26.666 67.834 45.999 111.501s36.666 80.5 51.999 110.5l98-58c42.667-26 83.334-54 122.001-84C532.666 878.666 570.333 839.833 591 803.5S622 722 622 668zm-148.001-80.002c0 12.667-23.167 38.999-69.5 78.999s-91.833 74.333-136.5 103c-42.667-67.333-64-123.333-64-168 0-21.333 8.833-39.666 26.5-54.999s38.834-23 63.501-23c33.333 0 71.666 7.833 114.999 23.5s65 29.167 65 40.5z"/><glyph glyph-name="uniFBA8" unicode="ہ" horiz-adv-x="556" d="M556 293H-70.002v272h526c-7.333 44-20.666 82.333-39.999 115-11.333 19.333-34.666 49.333-69.999 90l80 238c56-64 93-134.667 111-212 12.667-53.333 19-134 19-242V293zM370.998-182c0-26.667-9.332-48.832-27.999-66.499s-41.334-26.5-68.001-26.5c-36 0-65.333 16-88 48s-34 73-34 123c0 68 19.667 127 59 177 18.667 23.333 48 49.333 88 78l23-38c-30-28-50.667-49-62-63-24.667-32-37-60.333-37-85 0-24 24.5-41.333 73.5-52s73.5-42.334 73.5-95.001z"/><glyph glyph-name="uniFBA9" unicode="ہ" horiz-adv-x="656" arabic-form="medial" d="m656 293-49.999.002c-128 0-192-49.667-192-149 0-65.333-13.667-98-41-98-54 0-94.667 64.667-122 194-14 67.333-16.667 139.666-8 216.999-53.333-109.333-127.666-164-222.999-164h-90v272h90c80 0 144 21.667 192 65 42 37.333 77.667 96.666 107 177.999l72-18c-46.667-150-70-262.333-70-337 0-72.667 6.667-133.667 20-183 3.333 84 32.666 154.667 87.999 212 53.333 55.333 115.666 83 186.999 83h40V293zM501.001-326.998c0-26.667-9.332-48.832-27.999-66.499s-41.334-26.5-68.001-26.5c-36 0-65.333 16-88 48s-34 73-34 123c0 68 19.667 127 59 177 18.667 23.333 48 49.333 88 78l23-38c-30-28-50.667-49-62-63-24.667-32-37-60.333-37-85 0-24 24.5-41.333 73.5-52s73.5-42.334 73.5-95.001z"/><glyph glyph-name="uniFBAB" unicode="ھ" horiz-adv-x="850" arabic-form="final" d="m850 293-131-.001c-24 0-46 5-66 15-38.667 19.333-71.334 54.666-98.001 105.999-36 70.667-59.333 167.334-70 290.001-45.333-56-80.666-95.667-105.999-119-36.667-34-67.334-51-92.001-51-12.667 0-28.667 2-48 6l-122 24c-52 10.667-84 18.334-96 23.001s-18 13-18 25c0 18 23.167 74.833 69.5 170.5s79.833 154.834 100.5 177.501c16.667 18 46.334 41.333 89.001 70 25.333 17.333 61.333 39.666 108 66.999l53 31c-2 9.333-3.5 18.833-4.5 28.5s-1.5 18.834-1.5 27.501c0 25.333 5.833 57.166 17.5 95.499S467 1365.333 497 1422l96-624c15.333-98 35.333-164.333 60-199 16-22.667 38-34 66-34h131V293zM461 857.999l-20 119.998-50-24c-36.667-19.333-66-37.333-88-54-16-13.333-29.333-25.666-40-36.999-13.333-14.667-20-25.667-20-33 0-9.333 11.667-16.666 35-21.999s46.333-8 69-8c14.667 0 30 4.167 46 12.5s38.667 23.5 68 45.5z"/><glyph glyph-name="uniFBAD" unicode="ھ" horiz-adv-x="924" arabic-form="medial" d="m924 293-204 .001c-15.333 0-31-.167-47-.5s-39.667-1.833-71-4.5l72-41c22.667-17.333 34-39.666 34-66.999 0-26-3.667-53.667-11-83-4-16.667-13.667-46.334-29-89.001-28-83.333-54-139.833-78-169.5s-54.667-44.5-92-44.5c-92.667 0-172.5 48.833-239.5 146.5S158 155.668 158 293.001H-70v272h90c36 0 72.667 3.333 110 10 42 9.333 71.333 15.666 88 18.999 74 200.667 139.333 345.667 196 435 50 78 96 117 138 117 34 0 63.333-33.333 88-100 21.333-57.333 32-114 32-170 0-77.333-15.333-143.333-46-198-33.333-60-83.333-104-150-132 48.667 8 93 13.167 133 15.5s77 3.5 111 3.5h204V293zM516 750.001c0 17.333-6.333 38.668-19 64.001s-25.667 38-39 38c-17.333 0-37.5-18.833-60.5-56.5s-50.833-96.834-83.5-177.501c76.667 26.667 129.5 49.5 158.5 68.5s43.5 40.167 43.5 63.5zm42-669.998c0 37.333-21.335 72.667-64.002 106-51.333 40-125.333 70-222 90 10.667-58.667 41.334-109.667 92.001-153s105.334-65 164.001-65c20 0 30 7.333 30 22z"/><glyph glyph-name="uniFBAF" unicode="ے" horiz-adv-x="1663" arabic-form="final" d="m1663-162-253.001-262.998h-1169c-77.333 0-124.333 4.667-141 14-18.667 10.667-28.334 26.667-29.001 48-1.333 46.667 4.334 102 17.001 166C116.666-53.665 139.333 30.668 156 56.001c45.333 68.667 99 127.667 161 177 276 221.333 646 332 1110 332h236v-272h-242c-254 0-455-16-603-48-185.333-40.667-351.333-116-498-226C242-39.666 203-87.333 203-124c0-19.333 31.333-29 94-29h1366v-9z"/><glyph glyph-name="uniFBB1" unicode="ۓ" horiz-adv-x="1663" arabic-form="final" d="m1663-162-253.001-262.998h-1169c-77.333 0-124.333 4.667-141 14-18.667 10.667-28.334 26.667-29.001 48-1.333 46.667 4.334 102 17.001 166C116.666-53.665 139.333 30.668 156 56.001c45.333 68.667 99 127.667 161 177 276 221.333 646 332 1110 332h236v-272h-242c-254 0-455-16-603-48-185.333-40.667-351.333-116-498-226C242-39.666 203-87.333 203-124c0-19.333 31.333-29 94-29h1366v-9zM1220 863.002c-7.333-19.333-16.002-34-26.002-44-7.333-7.333-18.666-13.333-33.999-18l-216-66c13.333 24 25 40.5 35 49.5s28 17.167 54 24.5c-18.667 12-32.167 23.167-40.5 33.5s-12.5 20.5-12.5 30.5c0 8.667 2.667 18.5 8 29.5s12.333 21.833 21 32.5c43.333 58 86.333 87 129 87 12.667 0 22.834-4.167 30.501-12.5s11.5-19.166 11.5-32.499c0-10.667-1.5-19.834-4.5-27.501s-9.167-19.167-18.5-34.5c-33.333 16.667-56 25-68 25s-24-3-36-9c-8-4-15.333-9.333-22-16 0-8.667 16-22 48-40s55-27 69-27c8.667 0 32.667 5 72 15z"/><glyph glyph-name="uniFBD4" unicode="ڭ" horiz-adv-x="1108" arabic-form="final" d="M765 1038c0-88.667-26.168-157.834-78.501-207.501s-125.5-74.5-219.5-74.5c-26 0-46.833.667-62.5 2s-41.5 5.333-77.5 12l12 64h18c66 0 126.833 9.167 182.5 27.5s83.5 39.833 83.5 64.5c0 9.333-3.333 15.833-10 19.5s-20 6.5-40 8.5c-64 0-96 28-96 84 0 40 7.833 84.5 23.5 133.5s37.834 98.5 66.501 148.5c18.667 30.667 37.667 53.334 57 68.001s48.333 28 87 40c-1.333-26-2.333-54.333-3-85s-1-57.667-1-81c-36-10-66-24-90-42-21.333-16-32-30-32-42 0-14 22.667-24 68-30 41.333 0 70.333-8.333 87-25s25-45 25-85zm343-745-670.998.001c-144 0-247.667 24.667-311 74-56.667 44-85 112.333-85 205 0 62 9.5 122.833 28.5 182.5s51.5 130.834 97.5 213.501l60-42c-26-51.333-42.833-89.5-50.5-114.5s-11.5-51.5-11.5-79.5c0-64 23.667-107.833 71-131.5s137.666-35.5 270.999-35.5h481l-121 679-64 42c0 39.333 6 79 18 119 15.333 50.667 41.333 111 78 181l46-24c0-4-1.333-14.667-4-32 0-22 14-43.333 42-64 24.667-18.667 64-39.334 118-62.001-6-42.667-14.833-84.334-26.5-125.001s-24.834-77-39.501-109l-36 14 109-619V293zM588.001 1724l-57-96-130 36 54 96zm175-49-57-96-130 36 54 96zm-217-88-57-96-130 36 54 96z"/><glyph glyph-name="uniFBD5" unicode="ڭ" horiz-adv-x="738" d="m738 293-808 .001v272h649c-26 31.333-51.333 58.666-76 81.999-20 18.667-47 41.334-81 68.001l-113 88-32-36c-59.333 58.667-94.666 94.334-105.999 107.001-33.333 38-50 81.667-50 131 0 67.333 4.667 114.666 14 141.999 13.333 38.667 41.666 73 84.999 103 38.667 26.667 80 51 124 73 34.667 17.333 80.667 37.666 138 60.999l169 66v-238c-3.333 0-31.333-8.667-84-26-65.333-21.333-117.333-40-156-56-56-22.667-84-39.667-84-51 0-6 23.667-32 71-78 64.667-62.667 119-120 163-172 72.667-86 131.667-171.667 177-257V293zM328 1624l-57-96-130 36 54 96zm175-49-57-96-130 36 54 96zm-217-88-57-96-130 36 54 96z"/><glyph glyph-name="uniFBD6" unicode="ڭ" horiz-adv-x="738" arabic-form="medial" d="m738 293-808 .001v272h649c-26 31.333-51.333 58.666-76 81.999-20 18.667-47 41.334-81 68.001l-113 88-32-36c-59.333 58.667-94.666 94.334-105.999 107.001-33.333 38-50 81.667-50 131 0 67.333 4.667 114.666 14 141.999 13.333 38.667 41.666 73 84.999 103 38.667 26.667 80 51 124 73 34.667 17.333 80.667 37.666 138 60.999l169 66v-238c-3.333 0-31.333-8.667-84-26-65.333-21.333-117.333-40-156-56-56-22.667-84-39.667-84-51 0-6 23.667-32 71-78 64.667-62.667 119-120 163-172 72.667-86 131.667-171.667 177-257V293zM328 1624l-57-96-130 36 54 96zm175-49-57-96-130 36 54 96zm-217-88-57-96-130 36 54 96z"/><glyph glyph-name="uniFBD8" unicode="ۇ" horiz-adv-x="924" arabic-form="final" d="M924 362c0-114.667-48.666-228-145.999-340s-193.333-168-288-168c-55.333 0-115.833 17.667-181.5 53s-166.5 105-302.5 209l42 58c72-48 131-80 177-96 38-13.333 81-20 129-20 64.667 0 128.667 18 192 54 74.667 42.667 152 111.334 232 206.001-28-4-51.333-6-70-6-66 0-118.5 21.5-157.5 64.5s-58.5 101.5-58.5 175.5c0 100 23 196.333 69 289 50 100.667 107 151 171 151 53.333 0 98.666-36.333 135.999-109S924 722.667 924 620V362zM804.001 565c-18.667 107.333-56.666 160.999-113.999 160.999-20.667 0-37.167-8.167-49.5-24.5s-18.5-34.166-18.5-53.499c0-24 13.167-43.833 39.5-59.5S722.668 565 766.001 565h38zm25.001 759c0-11.333-.999-22.998-2.999-34.998l-6-36-83 50c-33.333-36.667-56-61-68-73-49.333-48-90.666-72-123.999-72h-73c35.333 16.667 76.666 43.667 123.999 81 42.667 34 75 64 97 90-20.667 12.667-36.334 26-47.001 40-13.333 17.333-20 36.333-20 57 0 44 12.833 82.833 38.5 116.5s53.5 50.5 83.5 50.5c17.333 0 33-9.333 47-28s21-41.334 21-68.001c0-12.667-1.833-25.834-5.5-39.501s-12.167-38.834-25.5-75.501a646.781 646.781 0 0 1 33-27c7.333-7.333 11-17.666 11-30.999zm-74.999 113c0 18-6.332 34.669-18.999 50.002s-25 23-37 23c-6.667 0-11.834-2.333-15.501-7s-5.5-9.334-5.5-14.001c0-14.667 8.333-30 25-46l44-34c5.333 13.333 8 22.666 8 27.999z"/><glyph glyph-name="uniFBDA" unicode="ۆ" horiz-adv-x="924" arabic-form="final" d="M924 362c0-114.667-48.666-228-145.999-340s-193.333-168-288-168c-55.333 0-115.833 17.667-181.5 53s-166.5 105-302.5 209l42 58c72-48 131-80 177-96 38-13.333 81-20 129-20 64.667 0 128.667 18 192 54 74.667 42.667 152 111.334 232 206.001-28-4-51.333-6-70-6-66 0-118.5 21.5-157.5 64.5s-58.5 101.5-58.5 175.5c0 100 23 196.333 69 289 50 100.667 107 151 171 151 53.333 0 98.666-36.333 135.999-109S924 722.667 924 620V362zM804.001 565c-18.667 107.333-56.666 160.999-113.999 160.999-20.667 0-37.167-8.167-49.5-24.5s-18.5-34.166-18.5-53.499c0-24 13.167-43.833 39.5-59.5S722.668 565 766.001 565h38zm58.001 800-136-230h-96l-136 230h117l67-120 67 120h117z"/><glyph glyph-name="uniFBDC" unicode="ۈ" horiz-adv-x="924" arabic-form="final" d="M924 362c0-114.667-48.666-228-145.999-340s-193.333-168-288-168c-55.333 0-115.833 17.667-181.5 53s-166.5 105-302.5 209l42 58c72-48 131-80 177-96 38-13.333 81-20 129-20 64.667 0 128.667 18 192 54 74.667 42.667 152 111.334 232 206.001-28-4-51.333-6-70-6-66 0-118.5 21.5-157.5 64.5s-58.5 101.5-58.5 175.5c0 100 23 196.333 69 289 50 100.667 107 151 171 151 53.333 0 98.666-36.333 135.999-109S924 722.667 924 620V362zM804.001 565c-18.667 107.333-56.666 160.999-113.999 160.999-20.667 0-37.167-8.167-49.5-24.5s-18.5-34.166-18.5-53.499c0-24 13.167-43.833 39.5-59.5S722.668 565 766.001 565h38zm-104.999 669c0-47.333-16.333-104.666-49-171.999l-28 12c7.333 39.333 11 72.333 11 99 0 43.333-5.667 108.666-17 195.999-5.333 39.333-13 83-23 131-4 18.667-6 31-6 37 0 20 18.667 65.333 56 136l29-169c18-104.667 27-194.667 27-270z"/><glyph glyph-name="uniFBDF" unicode="ۋ" horiz-adv-x="924" arabic-form="final" d="M924 362c0-114.667-48.666-228-145.999-340s-193.333-168-288-168c-55.333 0-115.833 17.667-181.5 53s-166.5 105-302.5 209l42 58c72-48 131-80 177-96 38-13.333 81-20 129-20 64.667 0 128.667 18 192 54 74.667 42.667 152 111.334 232 206.001-28-4-51.333-6-70-6-66 0-118.5 21.5-157.5 64.5s-58.5 101.5-58.5 175.5c0 100 23 196.333 69 289 50 100.667 107 151 171 151 53.333 0 98.666-36.333 135.999-109S924 722.667 924 620V362zM804.001 565c-18.667 107.333-56.666 160.999-113.999 160.999-20.667 0-37.167-8.167-49.5-24.5s-18.5-34.166-18.5-53.499c0-24 13.167-43.833 39.5-59.5S722.668 565 766.001 565h38zm-97.999 1011-100-208-188 100 102 204zm194-237-110-204-142 80-80-158-186 102 104 194 148-74 84 162z"/><glyph glyph-name="uniFBE1" unicode="ۅ" horiz-adv-x="924" arabic-form="final" d="M924 362c0-106.667-45.332-216.666-135.999-329.999-94.667-118.667-194-178-298-178-68.667 0-154.334 32.333-257.001 97-41.333 26-117 81-227 165l42 58c72-48 131-80 177-96 38-13.333 81-20 129-20 93.333 0 187 38 281 114-18.667-4-38.334-6-59.001-6-45.333 0-93.666 11-144.999 33-37.333 17.333-65.666 26-84.999 26-9.333 0-28.666-4.667-57.999-14l-14 14c30.667 51.333 66 77 106 77 24 0 57-8.667 99-26 53.333-22 101.666-33 144.999-33 32 0 68.667 8.333 110 25l44 50c-28-4-51.333-6-70-6-68.667 0-122.334 23.333-161.001 70-36.667 43.333-55 100-55 170 0 100 23 196.333 69 289 50 100.667 107 151 171 151 65.333 0 116-48.333 152-145 26.667-72.667 40-148.334 40-227.001V362zM804.001 565.001c-18.667 107.333-56.667 161.001-114 161.001-20 0-36.333-7.833-49-23.5s-19-33.834-19-54.501c0-28.667 18-50.667 54-66 26.667-11.333 56.667-17 90-17h38z"/><glyph glyph-name="uniFBE3" unicode="ۉ" horiz-adv-x="924" arabic-form="final" d="M924 362c0-114.667-48.666-228-145.999-340s-193.333-168-288-168c-55.333 0-115.833 17.667-181.5 53s-166.5 105-302.5 209l42 58c72-48 131-80 177-96 38-13.333 81-20 129-20 64.667 0 128.667 18 192 54 74.667 42.667 152 111.334 232 206.001-28-4-51.333-6-70-6-66 0-118.5 21.5-157.5 64.5s-58.5 101.5-58.5 175.5c0 100 23 196.333 69 289 50 100.667 107 151 171 151 53.333 0 98.666-36.333 135.999-109S924 722.667 924 620V362zM804.001 565c-18.667 107.333-56.666 160.999-113.999 160.999-20.667 0-37.167-8.167-49.5-24.5s-18.5-34.166-18.5-53.499c0-24 13.167-43.833 39.5-59.5S722.668 565 766.001 565h38zm58.001 570h-117l-67 120-67-120h-117l136 230h96z"/><glyph glyph-name="uniFBE5" unicode="ې" horiz-adv-x="1135" arabic-form="final" d="m1135 293-85.002-.001c-54.667 0-82-7.667-82-23 0-1.333 16.333-9.5 49-24.5s49-34.833 49-59.5c0-38-5.333-82-16-132-11.333-54-26.666-100.667-45.999-140-48.667-100-270.667-150-666-150-106.667 0-186 18-238 54-60 41.333-90 111.333-90 210 0 106 23.333 207.667 70 305 29.333 60.667 81.333 142.334 156 245.001l56-42c-109.333-155.333-164-276-164-362 0-48 21.333-86.667 64-116C232.666 30 285.333 16 350 16c396 0 594 28.333 594 85 0 9.333-52 14-156 14h-97c-47.333 5.333-71 20.333-71 45 0 84.667 21.667 153 65 205s94 96.667 152 134c68 44 130 66 186 66h112V293zM574.998-267.001l-34-70-94 24 36 70zm26-97-34-70-94 24 36 70z"/><glyph glyph-name="uniFBE6" unicode="ې" horiz-adv-x="556" d="m556 293-626.001.001v272h526C448.666 610.334 435.333 648.667 416 680c-10 17.333-33.333 47.333-70 90l80 238c50-56.667 84.167-116 102.5-178S556 676 556 554V293zM354.999 123.001l-100-208-188 100 102 204zm-53-169 186-96-100-208-188 100z"/><glyph glyph-name="uniFBE7" unicode="ې" horiz-adv-x="556" arabic-form="medial" d="m556 293-626.001.001v272h526C448.666 610.334 435.333 648.667 416 680c-10 17.333-33.333 47.333-70 90l80 238c50-56.667 84.167-116 102.5-178S556 676 556 554V293zM354.999 123.001l-100-208-188 100 102 204zm-53-169 186-96-100-208-188 100z"/><glyph glyph-name="uniFBE8" unicode="ى" horiz-adv-x="556" d="m556 293-626.001.001v272h526C448.666 610.334 435.333 648.667 416 680c-10 17.333-33.333 47.333-70 90l80 238c50-56.667 84.167-116 102.5-178S556 676 556 554V293z"/><glyph glyph-name="uniFBEA" unicode="ﯪ" horiz-adv-x="760" arabic-form="isolated" d="m760 293-419.999-.001c-78 0-134.333 32-169 96-38.667 70.667-58 189.667-58 357v285c0 64.667-9 115-27 151-9.333 16.667-29.333 41.667-60 75l108 250c38.667-52.667 65.667-105.334 81-158.001 18-61.333 27-138.666 27-231.999v-197c0-140 9.333-236.667 28-290 15.333-43.333 38.666-65 69.999-65h320c-6.667 44.667-20 83-40 115-10.667 18-34 48-70 90l80 238C680 950.666 714 891.333 732 830c18.667-60.667 28-152.667 28-276V293zm-69.999 902c-6-21.333-13.999-37-23.999-47-6.667-6.667-18-12.667-34-18l-216-66c12 22.667 23.667 39 35 49s28.666 19.333 51.999 28c-18.667 12-32.167 23.167-40.5 33.5s-12.5 20.5-12.5 30.5c0 8.667 2.5 18.5 7.5 29.5s11.833 22.167 20.5 33.5c44 57.333 87.333 86 130 86 12.667 0 22.834-4.167 30.501-12.5s11.5-19.166 11.5-32.499c0-10.667-1.5-19.834-4.5-27.501s-9.167-19.167-18.5-34.5c-32.667 16.667-55.334 25-68.001 25-12 0-24-3-36-9-8-4-15.333-9.333-22-16 0-8.667 16-22 48-40s55-27 69-27c8.667 0 32.667 5 72 15z"/><glyph glyph-name="uniFBEB" unicode="ﯫ" horiz-adv-x="760" arabic-form="final" d="m760 293-419.999-.001c-78 0-134.333 32-169 96-38.667 70.667-58 189.667-58 357v285c0 64.667-9 115-27 151-9.333 16.667-29.333 41.667-60 75l108 250c38.667-52.667 65.667-105.334 81-158.001 18-61.333 27-138.666 27-231.999v-197c0-140 9.333-236.667 28-290 15.333-43.333 38.666-65 69.999-65h320c-6.667 44.667-20 83-40 115-10.667 18-34 48-70 90l80 238C680 950.666 714 891.333 732 830c18.667-60.667 28-152.667 28-276V293zm-69.999 902c-6-21.333-13.999-37-23.999-47-6.667-6.667-18-12.667-34-18l-216-66c12 22.667 23.667 39 35 49s28.666 19.333 51.999 28c-18.667 12-32.167 23.167-40.5 33.5s-12.5 20.5-12.5 30.5c0 8.667 2.5 18.5 7.5 29.5s11.833 22.167 20.5 33.5c44 57.333 87.333 86 130 86 12.667 0 22.834-4.167 30.501-12.5s11.5-19.166 11.5-32.499c0-10.667-1.5-19.834-4.5-27.501s-9.167-19.167-18.5-34.5c-32.667 16.667-55.334 25-68.001 25-12 0-24-3-36-9-8-4-15.333-9.333-22-16 0-8.667 16-22 48-40s55-27 69-27c8.667 0 32.667 5 72 15z"/><glyph glyph-name="uniFBEC" unicode="ﯬ" horiz-adv-x="1123" arabic-form="isolated" d="m1123 293-404.001-.003c-24 0-46 5-66 15-19.333 9.333-37.166 23-53.499 41s-31.166 39.667-44.499 65c-36 70.667-59.333 167.334-70 290.001l-60.5-72c-17.667-20-32.834-35.667-45.501-47-37.333-34-68-51-92-51-13.333 0-29.333 2-48 6l-122 24c-26 5.333-47 9.833-63 13.5S27 584.332 21 587c-12 4.667-18 13-18 25 0 18 23 74.667 69 170 47.333 96.667 81 156 101 178 17.333 18 47 41.333 89 70l46 30c18 11.333 38.667 23.666 62 37l53 31c-4 18.666-6 37.333-6 56 0 25.333 5.833 57.166 17.5 95.5s32.5 85.832 62.5 142.5l96-624c14.667-97.334 34.667-163.667 60-199 16-22.667 38-34 66-34h304c-6.667 44.667-20 83-40 115-10.667 18-34 48-70 90l80 238c50-57.333 84-116.666 102-177.999 18.667-60.667 28-152.667 28-276V293zm-60 902c-6-21.333-13.999-37-23.999-47-6.667-6.667-18-12.667-34-18l-216-66c12 22.667 23.667 39 35 49s28.666 19.333 51.999 28c-18.667 12-32.167 23.167-40.5 33.5S823 1195 823 1205c0 8.667 2.333 18.5 7 29.5s11.667 22.167 21 33.5c23.333 28 45.5 49.333 66.5 64s42.167 22 63.5 22c12.667 0 22.834-4.167 30.501-12.5s11.5-19.166 11.5-32.499c0-10.667-1.5-19.834-4.5-27.501s-9.167-19.167-18.5-34.5c-32.667 16.667-55.334 25-68.001 25-12 0-24-3-36-9-8-4-15.333-9.333-22-16 0-8.667 16-22 48-40s55-27 69-27c8.667 0 32.667 5 72 15zM441 977.997l-49.999-23.999c-36-18.667-65.333-36.667-88-54-8-6.667-15.333-13.167-22-19.5l-18-17.5c-13.333-15.333-20-26.333-20-33 0-9.333 11.667-16.666 35-21.999 24.667-5.333 47.667-8 69-8 7.333 0 14.666 1 21.999 3s15.333 5.167 24 9.5 18.5 10.166 29.5 17.499 23.833 16.666 38.5 27.999z"/><glyph glyph-name="uniFBED" unicode="ﯭ" horiz-adv-x="1123" arabic-form="final" d="m1123 293-404.001-.003c-24 0-46 5-66 15-19.333 9.333-37.166 23-53.499 41s-31.166 39.667-44.499 65c-36 70.667-59.333 167.334-70 290.001l-60.5-72c-17.667-20-32.834-35.667-45.501-47-37.333-34-68-51-92-51-13.333 0-29.333 2-48 6l-122 24c-26 5.333-47 9.833-63 13.5S27 584.332 21 587c-12 4.667-18 13-18 25 0 18 23 74.667 69 170 47.333 96.667 81 156 101 178 17.333 18 47 41.333 89 70l46 30c18 11.333 38.667 23.666 62 37l53 31c-4 18.666-6 37.333-6 56 0 25.333 5.833 57.166 17.5 95.5s32.5 85.832 62.5 142.5l96-624c14.667-97.334 34.667-163.667 60-199 16-22.667 38-34 66-34h304c-6.667 44.667-20 83-40 115-10.667 18-34 48-70 90l80 238c50-57.333 84-116.666 102-177.999 18.667-60.667 28-152.667 28-276V293zm-60 902c-6-21.333-13.999-37-23.999-47-6.667-6.667-18-12.667-34-18l-216-66c12 22.667 23.667 39 35 49s28.666 19.333 51.999 28c-18.667 12-32.167 23.167-40.5 33.5S823 1195 823 1205c0 8.667 2.333 18.5 7 29.5s11.667 22.167 21 33.5c23.333 28 45.5 49.333 66.5 64s42.167 22 63.5 22c12.667 0 22.834-4.167 30.501-12.5s11.5-19.166 11.5-32.499c0-10.667-1.5-19.834-4.5-27.501s-9.167-19.167-18.5-34.5c-32.667 16.667-55.334 25-68.001 25-12 0-24-3-36-9-8-4-15.333-9.333-22-16 0-8.667 16-22 48-40s55-27 69-27c8.667 0 32.667 5 72 15zM441 977.997l-49.999-23.999c-36-18.667-65.333-36.667-88-54-8-6.667-15.333-13.167-22-19.5l-18-17.5c-13.333-15.333-20-26.333-20-33 0-9.333 11.667-16.666 35-21.999 24.667-5.333 47.667-8 69-8 7.333 0 14.666 1 21.999 3s15.333 5.167 24 9.5 18.5 10.166 29.5 17.499 23.833 16.666 38.5 27.999z"/></font>
</defs>
</svg>
